<?xml version="1.0" standalone="no"?>
<!DOCTYPE svg PUBLIC "-//W3C//DTD SVG 1.1//EN" "http://www.w3.org/Graphics/SVG/1.1/DTD/svg11.dtd" >
<svg xmlns="http://www.w3.org/2000/svg" xmlns:xlink="http://www.w3.org/1999/xlink" version="1.1">
<metadata>
Created by FontForge 20150318 at Mon Mar 30 04:18:59 2015
 By uniteet7
(c) Copyright 2001 by Tom Truong. All Rights Reserved
</metadata>
<defs>
<font id="UVNSaigonBold" horiz-adv-x="620" >
  <font-face 
    font-family="UVN Saigon"
    font-weight="700"
    font-stretch="normal"
    units-per-em="1000"
    panose-1="0 0 7 0 0 0 0 0 0 0"
    ascent="800"
    descent="-200"
    x-height="481"
    cap-height="732"
    bbox="-171 -283 1390 1168"
    underline-thickness="50"
    underline-position="-75"
    unicode-range="U+0020-FB02"
  />
<missing-glyph horiz-adv-x="500" 
d="M63 0v1150h375v-1150h-375zM125 63h250v1025h-250v-1025z" />
    <glyph glyph-name=".notdef" horiz-adv-x="500" 
d="M63 0v1150h375v-1150h-375zM125 63h250v1025h-250v-1025z" />
    <glyph glyph-name=".null" horiz-adv-x="0" 
 />
    <glyph glyph-name="nonmarkingreturn" horiz-adv-x="340" 
 />
    <glyph glyph-name="space" unicode=" " horiz-adv-x="340" 
 />
    <glyph glyph-name="exclam" unicode="!" horiz-adv-x="360" 
d="M180 -15q-35 0 -64 21t-29 55q0 35 30 56q27 20 63 20q37 0 65 -20q32 -22 32 -57q0 -34 -30.5 -54.5t-66.5 -20.5zM180 189q-26 0 -36 16q-6 9 -10 39q-57 389 -57 425q0 78 103 78t103 -78q0 -36 -57 -425q-4 -30 -10 -39q-10 -16 -36 -16z" />
    <glyph glyph-name="quotedbl" unicode="&#x22;" horiz-adv-x="580" 
d="M202 428h-46l-44 239q-5 29 16.5 54.5t50.5 25.5t50.5 -25.5t16.5 -54.5zM424 428h-46l-44 239q-5 29 16.5 54.5t50.5 25.5t50.5 -25.5t16.5 -54.5z" />
    <glyph glyph-name="numbersign" unicode="#" horiz-adv-x="680" 
d="M448 247l-32 -92q-11 -31 -17 -40q-13 -18 -37 -18q-19 0 -32.5 13.5t-13.5 32.5q0 7 6 25l27 79h-115l-32 -91q-11 -30 -17 -40q-12 -19 -36 -19q-21 0 -35 13.5t-14 34.5q0 7 6 25l26 77h-48q-54 0 -54 43t52 43h80l42 121h-53q-53 0 -53 43t51 43h85l26 75
q11 31 17 40q13 18 38 18q19 0 33 -14t14 -33q0 -8 -6 -26l-20 -60h115l26 76q10 30 17 39q13 18 37 18q19 0 32 -13.5t13 -32.5q0 -10 -5 -25l-21 -62h46q53 0 53 -43t-51 -43h-79l-41 -121h50q54 0 54 -43t-52 -43h-82zM420 454h-115l-42 -120h116z" />
    <glyph glyph-name="dollar" unicode="$" horiz-adv-x="680" 
d="M302 477v188q-79 -20 -79 -93q0 -59 79 -95zM302 76v238q-210 64 -210 212q0 86 63 141q58 49 147 57v86q0 28 6 40q9 17 35 17q39 0 39 -56v-87q66 -3 119 -31q67 -35 67 -92q0 -24 -16 -40.5t-40 -16.5q-32 0 -49 27q-6 8 -23 55q-16 32 -58 40v-220q103 -34 151 -74
q70 -58 70 -149q0 -87 -68 -146q-64 -55 -153 -57v-86q0 -28 -5 -40q-9 -17 -34 -17q-41 0 -41 55v88q-104 7 -167.5 54t-63.5 112q0 18 19 29q16 10 36 10q31 0 57 -47q34 -63 47 -74q24 -21 72 -28zM382 282v-203q89 20 89 101q0 68 -89 102z" />
    <glyph glyph-name="percent" unicode="%" horiz-adv-x="940" 
d="M217 342q72 0 72 191q0 171 -71 171t-71 -176q0 -186 70 -186zM758 698l-485 -666q-20 -28 -25 -31q-11 -7 -38 -7q-39 0 -39 16q0 6 19 32l453 618q-62 -35 -128 -35q-73 0 -132 35q38 -56 38 -136q0 -101 -52 -162q-55 -66 -154 -66q-94 0 -149 70q-51 64 -51 161
q0 95 53 157q57 66 150 66q52 0 153.5 -35t143.5 -35q50 0 121.5 30.5t93.5 30.5q43 0 43 -12q0 -10 -15 -31zM724 -15q-94 0 -149 70q-51 64 -51 161q0 95 53 157q57 66 150 66q94 0 150 -67q53 -62 53 -158q0 -100 -52 -162q-56 -67 -154 -67zM726 31q72 0 72 191
q0 172 -71 172t-71 -183q0 -180 70 -180z" />
    <glyph glyph-name="ampersand" unicode="&#x26;" horiz-adv-x="840" 
d="M609 421h155q45 0 45 -32q0 -15 -22 -26q-33 -17 -34 -18q-13 -11 -29 -38q-32 -54 -49 -78q-33 -48 -65 -82q64 -67 143 -67q10 0 30 4.5t30 4.5q25 0 25 -27q0 -25 -36 -44q-56 -29 -127 -29q-95 0 -187 67q-99 -71 -219 -71q-98 0 -169 46q-82 54 -82 147
q0 140 171 219q-65 85 -65 163q0 94 79 144q67 43 167 43q83 0 139 -36q66 -42 66 -120q0 -115 -181 -188q94 -126 166 -201q64 73 64 121q0 21 -30 38t-30 33q0 27 45 27zM238 335q-71 -58 -71 -130q0 -60 40 -98.5t100 -38.5q55 0 120 42q-97 87 -189 225zM343 469
q102 56 102 124q0 37 -24 60t-61 23q-33 0 -56 -22t-23 -55q0 -48 62 -130z" />
    <glyph glyph-name="quotesingle" unicode="'" horiz-adv-x="260" 
d="M153 428h-46l-44 239q-5 29 16.5 54.5t50.5 25.5t50.5 -25.5t16.5 -54.5z" />
    <glyph glyph-name="parenleft" unicode="(" horiz-adv-x="340" 
d="M311 -181q0 -29 -39 -29q-42 0 -91 65q-65 86 -102.5 199.5t-37.5 222.5q0 162 86 315q41 74 96 129q26 26 59 26t33 -27q0 -15 -24 -65q-89 -185 -89 -373q0 -197 88 -402q21 -49 21 -61z" />
    <glyph glyph-name="parenright" unicode=")" horiz-adv-x="340" 
d="M23 719q0 28 39 28q42 0 91 -64q65 -85 102.5 -199t37.5 -223q0 -164 -86 -315q-44 -78 -96 -130q-26 -26 -59 -26t-33 28q0 15 24 65q89 185 89 372q0 200 -88 403q-21 49 -21 61z" />
    <glyph glyph-name="asterisk" unicode="*" horiz-adv-x="400" 
d="M211 505l13 -31q15 -36 15 -49q0 -44 -40 -44q-16 0 -28 12t-12 28t10 44l12 34q10 28 10 33q0 10 -6 10q-9 0 -36 -35l-28 -37q-19 -21 -38 -21q-17 0 -29 11.5t-12 28.5q0 25 32 38q12 5 53 12q49 9 49 18q0 13 -61 19q-38 4 -50 9q-27 11 -27 39q0 16 11.5 26.5
t27.5 10.5q24 0 62 -43.5t45 -43.5q6 0 6 9q0 6 -9 29l-11 28q-15 38 -15 51q0 39 40 39q17 0 28 -12.5t11 -29.5q0 -18 -15.5 -55.5t-15.5 -48.5q0 -9 5 -9q7 0 43 46.5t61 46.5q39 0 39 -38q0 -29 -35 -43q-15 -6 -66 -14q-35 -5 -35 -14q0 -11 36 -15q56 -7 68 -11
q36 -12 36 -40q0 -39 -39 -39q-20 0 -43 23q-2 2 -33 38q-24 28 -31 28q-6 0 -6 -9q0 -10 8 -29z" />
    <glyph glyph-name="plus" unicode="+" horiz-adv-x="660" 
d="M73 335h213v212h95v-212h212v-95h-212v-213h-95v213h-213v95z" />
    <glyph glyph-name="comma" unicode="," horiz-adv-x="340" 
d="M174 0q-15 -3 -30 -3q-31 0 -52 19.5t-21 50.5q0 37 28 58t66 21q45 0 74 -29t29 -74q0 -69 -61 -134q-53 -56 -82 -56q-26 0 -26 21q0 26 35.5 64.5t39.5 61.5z" />
    <glyph glyph-name="hyphen" horiz-adv-x="340" 
d="M245 226h-150q-38 0 -52 11q-18 13 -18 50q0 36 18 49q15 11 52 11h150q37 0 53.5 -12t16.5 -48q0 -37 -18 -50q-14 -11 -52 -11z" />
    <glyph glyph-name="period" unicode="." horiz-adv-x="340" 
d="M172 -15q-37 0 -67 22t-30 58q0 37 29 59t67 22q37 0 65.5 -23t28.5 -59q0 -35 -28.5 -57t-64.5 -22z" />
    <glyph glyph-name="slash" unicode="/" horiz-adv-x="460" 
d="M443 688l-362 -790q-13 -29 -16 -33q-9 -11 -32 -11q-33 0 -33 14q0 4 9 24l365 799q13 28 17 32q9 9 34 9q29 0 29 -12q0 -8 -11 -32z" />
    <glyph glyph-name="zero" unicode="0" horiz-adv-x="680" 
d="M340 -15q-148 0 -231 126q-72 109 -72 264q0 148 73 254q84 121 230 121t230 -122q73 -107 73 -260q0 -152 -73 -260q-84 -123 -230 -123zM340 55q113 0 113 318q0 308 -113 308t-113 -313t113 -313z" />
    <glyph glyph-name="one" unicode="1" horiz-adv-x="680" 
d="M256 152v378q0 48 -12 62.5t-59 14.5q-38 0 -47 2q-28 6 -28 29q0 27 51 36q67 12 142 47q63 29 83 29q52 0 52 -67v-527q0 -46 8 -60q11 -20 53 -24q32 -3 40 -6q20 -8 20 -31q0 -35 -47 -35h-331q-53 0 -53 35q0 31 63 36q45 4 56 20q9 13 9 61z" />
    <glyph glyph-name="two" unicode="2" horiz-adv-x="680" 
d="M516 0h-403q-59 0 -59 38q0 40 49 108q36 50 80 94q133 132 178 192q56 75 56 141q0 44 -27 74t-70 30q-40 0 -75 -28t-35 -67q0 -13 12 -36t12 -35q0 -26 -26 -40q-21 -12 -49 -12q-41 0 -66 25t-25 66q0 97 96 153q80 47 184 47t174 -44q83 -53 83 -151q0 -74 -58 -150
q-38 -50 -133 -136q-105 -95 -146 -144h151q47 0 66.5 5t57.5 31q35 25 46 25q27 0 27 -27q0 -8 -9 -35q-8 -32 -17 -64q-13 -47 -26 -53.5t-48 -6.5z" />
    <glyph glyph-name="three" unicode="3" horiz-adv-x="680" 
d="M429 400q78 -14 128 -62q56 -53 56 -128q0 -88 -68 -151q-80 -74 -225 -74q-97 0 -171 31q-99 41 -99 125q0 74 78 74q34 0 49.5 -12.5t19.5 -45.5q6 -53 25 -76q22 -30 72 -30q128 0 128 151q0 83 -43 119q-40 33 -123 33q-37 0 -47 3q-24 8 -24 34q0 33 43 33
q167 0 167 146q0 47 -21 77q-24 34 -69 34q-30 0 -52 -15.5t-22 -44.5q0 -9 3 -27.5t3 -27.5q0 -24 -24 -36q-19 -10 -45 -10q-84 0 -84 67q0 83 89 127q71 36 163 36q95 0 164 -44q80 -52 80 -142q0 -65 -45 -109q-39 -39 -106 -55z" />
    <glyph glyph-name="four" unicode="4" horiz-adv-x="680" 
d="M332 119v70h-224q-38 0 -51 5q-19 7 -19 32q0 54 79 205q111 213 224 296q22 16 39 20q12 3 45 3q58 0 74.5 -14t16.5 -70v-405h67q25 0 35 -5q14 -7 14 -30q0 -37 -45 -37h-70v-69q0 -30 2 -35q4 -16 23 -23q30 -10 30 -31q0 -31 -50 -31h-201q-53 0 -53 31q0 20 33 30
q22 7 28 21q3 9 3 37zM334 261v348q-140 -165 -202 -348h202z" />
    <glyph glyph-name="five" unicode="5" horiz-adv-x="680" 
d="M107 390l23 285q3 32 6 43q8 25 29 25q33 0 99.5 -5.5t99.5 -5.5q9 0 181 11q27 2 27 -23q0 -27 -29 -57t-57 -40q-46 -16 -178 -16q-58 0 -98 4l-13 -175q69 31 150 31q111 0 185 -56q81 -62 81 -170q0 -126 -91 -194q-82 -62 -213 -62q-89 0 -160 32q-92 41 -92 119
q0 69 77 69q29 0 49 -13q25 -16 23 -43l-2 -31q-2 -34 26 -52q23 -14 59 -14q68 0 103 54q31 47 31 118q0 73 -31 118q-35 52 -105 52q-44 0 -92.5 -31.5t-56.5 -31.5q-36 0 -31 59z" />
    <glyph glyph-name="six" unicode="6" horiz-adv-x="680" 
d="M252 415q78 44 149 44q100 0 166 -58q68 -61 68 -160q0 -120 -85 -190q-79 -66 -202 -66q-145 0 -224 83t-79 229q0 193 128.5 323t320.5 130q93 0 93 -39q0 -32 -60 -34q-115 -5 -187.5 -76t-87.5 -186zM347 53q56 0 81 63q18 44 18 110q0 60 -18 102q-24 57 -76 57
q-60 0 -89 -52q-23 -41 -23 -107q0 -64 22 -111q28 -62 85 -62z" />
    <glyph glyph-name="seven" unicode="7" horiz-adv-x="680" 
d="M282 297h-33q-38 0 -54 12t-16 49t17 50q15 10 53 10h96q85 159 109 192h-232q-37 0 -51 -5q-21 -8 -34 -35t-34 -27q-22 0 -29 18q-4 11 -4 49q0 79 1 84q10 38 60 38h417q45 0 45 -19q0 -7 -18 -50q-48 -114 -92 -248q33 -9 33 -57q0 -36 -16 -48.5t-53 -12.5
q-32 -106 -61 -224q-11 -43 -25 -56q-16 -17 -57 -17h-103q-46 5 -46 29q0 12 20 54q44 93 107 214z" />
    <glyph glyph-name="eight" unicode="8" horiz-adv-x="680" 
d="M197 364q-130 71 -130 178q0 102 97 160q82 48 191 48q97 0 168 -36q90 -47 90 -135q0 -51 -45 -96q-35 -36 -90 -60q160 -77 160 -211q0 -112 -103 -175q-86 -52 -206 -52q-147 0 -226 71q-62 56 -62 127q0 64 48 114q42 44 108 67zM271 323q-82 -59 -82 -133
q0 -58 43 -94.5t102 -36.5q47 0 85 26q43 29 43 74q0 54 -73 103q-36 25 -118 61zM402 458q38 37 48 51q21 29 21 65q0 47 -34 77.5t-81 30.5q-45 0 -77 -26q-34 -29 -34 -73t59 -80q32 -20 98 -45z" />
    <glyph glyph-name="nine" unicode="9" horiz-adv-x="680" 
d="M427 318q-65 -42 -141 -42q-104 0 -172 60t-68 163q0 115 87 186q80 65 198 65q144 0 223.5 -84t79.5 -229q0 -189 -126 -319q-127 -133 -315 -133q-103 0 -103 38q0 31 65 34q229 10 272 261zM332 348q58 0 86 52q23 42 23 104q0 68 -19 114q-26 65 -84 65
q-57 0 -83 -62q-19 -44 -19 -110q0 -62 18 -104q25 -59 78 -59z" />
    <glyph glyph-name="colon" unicode=":" horiz-adv-x="340" 
d="M171 -15q-37 0 -67 22t-30 58q0 37 29 59t67 22q37 0 65.5 -23t28.5 -59q0 -35 -28.5 -57t-64.5 -22zM171 292q-37 0 -67 22t-30 58q0 37 29 59t67 22q37 0 65.5 -23t28.5 -59q0 -35 -28.5 -57t-64.5 -22z" />
    <glyph glyph-name="semicolon" unicode=";" horiz-adv-x="340" 
d="M169 292q-37 0 -67 22t-30 58q0 37 29 59t67 22q37 0 65.5 -23t28.5 -59q0 -35 -28.5 -57t-64.5 -22zM174 0q-15 -3 -30 -3q-31 0 -52 19.5t-21 50.5q0 37 28 58t66 21q45 0 74 -29t29 -74q0 -69 -61 -134q-53 -56 -82 -56q-26 0 -26 21q0 26 35.5 64.5t39.5 61.5z" />
    <glyph glyph-name="less" unicode="&#x3c;" horiz-adv-x="660" 
d="M610 81v-93l-554 253v90l554 255v-94l-461 -207z" />
    <glyph glyph-name="equal" unicode="=" horiz-adv-x="660" 
d="M70 415h520v-95h-520v95zM70 255h520v-95h-520v95z" />
    <glyph glyph-name="greater" unicode="&#x3e;" horiz-adv-x="660" 
d="M56 81l462 204l-462 207v94l554 -255v-90l-554 -253v93z" />
    <glyph glyph-name="question" unicode="?" horiz-adv-x="540" 
d="M233 -15q-35 0 -62 20q-30 22 -30 55q0 36 31 57q27 19 65 19q36 0 65 -21t29 -56t-33 -56q-28 -18 -65 -18zM182 281v46q0 41 4 49q6 12 38 30q57 32 83 68q28 41 28 103q0 117 -89 117q-70 0 -68 -70q2 -74 -74 -74q-29 0 -49 16t-20 44q0 72 81 114q64 33 145 33
q106 0 175 -47q79 -55 79 -157q0 -86 -67 -147q-38 -34 -137 -78q-23 -10 -29 -27q-5 -12 -5 -41.5t-6 -42.5q-10 -18 -37 -18q-38 0 -48 24q-4 10 -4 58z" />
    <glyph glyph-name="at" unicode="@" horiz-adv-x="860" 
d="M653 563l-104 -263q-18 -46 -18 -58q0 -19 28 -19q69 0 125 76q52 70 52 141q0 113 -91 183q-84 65 -200 65q-137 0 -234 -94t-97 -231q0 -138 101 -229q97 -88 236 -88q88 0 164.5 40.5t120.5 113.5h59q-43 -105 -141 -162q-92 -53 -211 -53q-162 0 -276 108
q-117 110 -117 271q0 165 118 274t284 109q141 0 241 -82q107 -88 107 -226q0 -109 -80 -195t-189 -86q-33 0 -53 15q-23 17 -19 48q-64 -59 -132 -59q-55 0 -84.5 37t-29.5 93q0 100 66 189q72 98 171 98q56 0 87 -43l11 27h105zM354 225q49 0 105 118q43 91 43 137
q0 34 -29 34q-55 0 -107 -100q-46 -89 -46 -148q0 -41 34 -41z" />
    <glyph glyph-name="A" unicode="A" horiz-adv-x="740" 
d="M461 237h-280q-38 -94 -38 -134q0 -21 26 -38t26 -33q0 -32 -65 -32h-82q-57 0 -57 34q0 16 21 30q15 10 18 13q7 7 12 19q82 294 250 607q14 26 33 33q12 4 49 4t48 -6q8 -6 23 -34q126 -239 250 -605q6 -18 30 -32q19 -11 19 -29q0 -34 -51 -34h-169q-61 0 -61 32
q0 15 21.5 29t21.5 22q0 31 -45 154zM209 319h224q-57 166 -111 265q-65 -129 -113 -265z" />
    <glyph glyph-name="B" unicode="B" horiz-adv-x="740" 
d="M75 127v478q0 33 -3 42q-4 13 -20 17q-30 8 -30 34q0 34 49 34h363q234 0 234 -162q0 -56 -45 -103q-38 -40 -96 -64q82 -15 133 -64q57 -54 57 -133q0 -101 -82 -157q-71 -49 -177 -49h-387q-49 0 -49 34q0 20 25 31q20 9 25 25q3 10 3 37zM257 591v-192q85 18 143 55
q78 49 78 120q0 90 -137 90q-56 0 -72 -17q-12 -13 -12 -56zM257 318v-172q0 -50 20 -64q13 -9 64 -9q76 0 124 32q57 38 57 110q0 48 -35 88q-32 37 -80 51q-48 -14 -150 -36z" />
    <glyph glyph-name="C" unicode="C" horiz-adv-x="760" 
d="M677 681q15 -10 20 -14q10 -8 13 -19q9 -29 9 -110q0 -39 -42 -39q-21 0 -53 55q-39 67 -54 79q-49 41 -113 41q-112 0 -176 -98q-54 -85 -54 -203q0 -104 39 -182q59 -118 196 -118q60 0 111 31q23 14 70 58q33 31 53 31q14 0 24.5 -10.5t10.5 -24.5q0 -53 -86 -110
q-96 -63 -219 -63q-164 0 -277 101q-117 105 -117 267q0 166 123 280t290 114q132 0 232 -66z" />
    <glyph glyph-name="D" unicode="D" horiz-adv-x="820" 
d="M71 732h289q186 0 287 -79q131 -103 131 -282q0 -175 -104 -273t-280 -98h-323q-49 0 -49 34q0 20 25 31q20 9 25 25q3 10 3 37v478q0 33 -3 42q-4 13 -20 17q-30 8 -30 34q0 34 49 34zM257 575v-407q0 -59 10 -75q14 -22 67 -22q120 0 188 86q61 79 61 203
q0 127 -62 210q-69 91 -193 91q-50 0 -62 -19q-9 -14 -9 -67z" />
    <glyph glyph-name="E" unicode="E" horiz-adv-x="660" 
d="M257 356v-173q0 -81 34 -99q20 -11 114 -12q51 0 77 7q35 10 65 43q44 48 65 48q14 0 25 -9.5t11 -23.5q0 -24 -22 -91q-10 -31 -21.5 -38.5t-44.5 -7.5h-489q-49 0 -49 34q0 20 25 31q20 9 25 25q3 10 3 37v478q0 33 -3 42q-4 13 -20 17q-30 8 -30 34q0 34 49 34h467
q48 0 57 -16q15 -27 15 -91q0 -43 -36 -43q-19 0 -46 30q-32 36 -75 45q-19 4 -88 4q-48 0 -65 -3q-43 -9 -43 -38v-183h151q35 0 61 18.5t33 18.5q35 0 35 -69q0 -42 -2 -52q-7 -32 -33 -32q-9 0 -35 17.5t-59 17.5h-151z" />
    <glyph glyph-name="F" unicode="F" 
d="M256 335v-208q0 -27 2 -36q4 -12 16 -19q35 -20 35 -38q0 -34 -49 -34h-190q-49 0 -49 34q0 20 25 31q20 9 25 25q3 10 3 37v478q0 33 -3 42q-4 13 -20 17q-30 8 -30 34q0 34 49 34h434q54 0 66 -8q21 -14 28 -95q5 -56 -26 -56q-20 0 -44 27q-37 42 -76 53q-28 8 -94 8
q-64 0 -76 -6q-26 -13 -26 -70v-169h146q35 0 61 18.5t33 18.5q23 0 30 -21q5 -14 5 -48q0 -40 -5 -58q-7 -26 -30 -26q-9 0 -35 17.5t-59 17.5h-146z" />
    <glyph glyph-name="G" unicode="G" horiz-adv-x="780" 
d="M502 385h161q49 0 58 -1q38 -7 38 -33q0 -19 -5.5 -57.5t-5.5 -58.5t7 -59.5t7 -58.5q0 -47 -121 -92q-108 -40 -205 -40q-174 0 -286 98q-118 102 -118 274q0 177 123 286q117 104 296 104q133 0 225 -53q38 -22 46 -51q4 -14 4 -74q0 -57 -37 -57q-26 0 -40 33
q-53 126 -180 126q-117 0 -184 -102q-58 -87 -58 -211q0 -110 53 -193q62 -97 165 -97q70 0 106 37q29 30 29 119q0 51 -11 65q-14 18 -63 18q-45 0 -58 5q-20 8 -20 33q0 27 26 35q15 5 48 5z" />
    <glyph glyph-name="H" unicode="H" horiz-adv-x="820" 
d="M77 127v478q0 27 -4 37q-5 15 -25 24q-24 11 -24 32q0 34 49 34h190q49 0 49 -34q0 -23 -22.5 -31.5t-27.5 -24.5q-3 -8 -3 -37v-170h298v170q0 27 -3 37q-6 16 -26 24q-24 10 -24 32q0 34 49 34h190q49 0 49 -34q0 -22 -22.5 -31t-27.5 -24q-3 -8 -3 -38v-478
q0 -27 3 -36q4 -13 20 -22q30 -17 30 -35q0 -34 -49 -34h-190q-49 0 -49 34q0 20 22 29q31 12 31 64v233h-298v-233q0 -28 3 -37q4 -12 22 -22q28 -16 28 -34q0 -34 -49 -34h-190q-49 0 -49 34q0 18 31 34q22 11 22 59z" />
    <glyph glyph-name="I" unicode="I" horiz-adv-x="340" 
d="M76 127v478q0 33 -3 42q-4 13 -20 17q-30 8 -30 34q0 34 49 34h190q49 0 49 -34q0 -16 -20 -28q-23 -14 -27 -23q-6 -13 -6 -42v-478q0 -26 3 -36q4 -15 18 -22q32 -17 32 -35q0 -34 -49 -34h-190q-49 0 -49 34q0 20 25 31q20 9 25 25q3 10 3 37z" />
    <glyph glyph-name="J" unicode="J" horiz-adv-x="560" 
d="M304 732h190q49 0 49 -34q0 -22 -31 -35q-15 -6 -19 -20q-3 -10 -3 -38v-380q0 -131 -57 -181q-67 -59 -194 -59q-96 0 -161 41q-77 48 -77 139q0 60 37 100t97 40q59 0 82 -35q18 -28 18 -90q-25 10 -55 10q-22 0 -34.5 -16.5t-12.5 -38.5q0 -34 25 -53.5t59 -19.5
q91 0 91 143v400q0 28 -4 39q-7 17 -28 25.5t-21 28.5q0 34 49 34z" />
    <glyph glyph-name="K" unicode="K" horiz-adv-x="780" 
d="M262 283v-156q0 -27 1 -32q4 -14 20 -24q32 -20 32 -41q0 -30 -49 -30h-190q-49 0 -49 30q0 21 32 41q16 10 20 24q1 5 1 32v478q0 27 -1 32q-4 14 -20 24q-32 20 -32 41q0 30 49 30h190q49 0 49 -30q0 -21 -32 -41q-16 -10 -20 -24q-1 -5 -1 -32v-229q279 211 279 268
q0 12 -21.5 26.5t-21.5 30.5q0 31 46 31h123q63 0 63 -39q0 -16 -32 -36q-45 -29 -48 -32q-9 -9 -45 -52q-53 -65 -130 -134q121 -127 230 -322q8 -15 44 -47q30 -28 30 -41q0 -29 -48 -29h-191q-62 0 -62 33q0 16 17.5 30.5t17.5 19.5q0 33 -71 133q-59 83 -102 127
q-46 -41 -78 -60z" />
    <glyph glyph-name="L" unicode="L" horiz-adv-x="600" 
d="M77 127v478q0 27 -1 32q-4 14 -20 24q-32 20 -32 41q0 30 49 30h190q49 0 49 -30q0 -21 -32 -41q-16 -10 -20 -24q-1 -5 -1 -32v-471q0 -42 15 -53q12 -9 56 -9h37q53 0 77 7q35 10 65 43q44 48 65 48q14 0 25 -9.5t11 -23.5q0 -24 -22 -91q-10 -31 -21.5 -38.5
t-44.5 -7.5h-449q-49 0 -49 30q0 21 32 41q16 10 20 24q1 5 1 32z" />
    <glyph glyph-name="M" unicode="M" horiz-adv-x="920" 
d="M60 732h195q31 0 46 -19q5 -7 17 -41q68 -197 145 -370q58 120 159 385q11 29 21.5 37t40.5 8h171q49 0 49 -34q0 -21 -20 -28q-30 -10 -39 -22t-9 -43q0 -80 7.5 -239t7.5 -239q0 -26 3 -36q4 -15 18 -22q32 -17 32 -35q0 -34 -49 -34h-190q-49 0 -49 34q0 20 25 31
q20 9 25 25q3 10 3 37q0 82 -15 434q-63 -164 -165 -409q-15 -35 -24 -44q-13 -12 -46 -12q-34 0 -46 6q-15 7 -29 36q-96 199 -176 412q-15 -281 -15 -425q0 -27 12 -41q9 -10 37 -20q25 -9 25 -33q0 -31 -73 -31h-87q-63 0 -63 31q0 20 24 32q28 15 34 25t6 37q0 81 9 292
l8 209q0 24 -44 37q-38 11 -38 35q0 34 57 34z" />
    <glyph glyph-name="N" unicode="N" horiz-adv-x="760" 
d="M101 125v443q0 47 -3 58q-8 27 -39 37q-38 12 -38 35q0 34 57 34h137q28 0 39.5 -4.5t30.5 -24.5q80 -84 317 -433v337q0 27 -8.5 38.5t-34.5 22.5t-26 33q0 20 19 27q12 4 49 4h87q68 0 68 -31q0 -23 -25 -33q-29 -11 -36.5 -21.5t-7.5 -39.5v-543q0 -46 -9 -57
q-10 -14 -54 -14q-42 0 -52 16q-180 276 -386 535v-419q0 -27 8.5 -38.5t34.5 -22t26 -33.5q0 -31 -68 -31h-87q-68 0 -68 31q0 21 24 32q31 16 38 24.5t7 37.5z" />
    <glyph glyph-name="O" unicode="O" horiz-adv-x="860" 
d="M424 -15q-153 0 -266 98q-125 109 -125 285q0 166 115 274q112 105 279 105q170 0 283 -104q117 -106 117 -275q0 -165 -120 -276q-116 -107 -283 -107zM428 61q108 0 162 103q42 80 42 200q0 119 -42 201q-54 106 -161 106q-103 0 -157 -104q-44 -83 -44 -196
q0 -117 41 -201q53 -109 159 -109z" />
    <glyph glyph-name="P" unicode="P" horiz-adv-x="680" 
d="M256 276v-149q0 -26 4 -36q6 -14 25 -22q39 -15 39 -35q0 -34 -49 -34h-205q-49 0 -49 34q0 20 25 31q20 9 25 25q3 10 3 37v478q0 33 -3 42q-4 13 -20 17q-30 8 -30 34q0 34 49 34h309q121 0 196 -39q98 -51 98 -160q0 -137 -149 -204q-109 -49 -268 -53zM256 586v-233
q90 12 147 48q75 47 75 126q0 63 -40 99t-104 36q-44 0 -61 -16t-17 -60z" />
    <glyph glyph-name="Q" unicode="Q" horiz-adv-x="860" 
d="M457 -12q-25 -3 -54 -3q-160 0 -266 108.5t-106 268.5q0 168 115 276.5t284 108.5q193 0 302 -129q90 -107 90 -247q0 -124 -74 -223t-192 -137q55 -40 116 -40q14 0 43 4t43 4q23 0 38.5 -15.5t15.5 -38.5q0 -34 -39 -50q-29 -12 -68 -12q-148 0 -248 125zM415 66
q-20 58 -20 99q0 58 40 58q24 0 32 -22q6 -16 12 -57.5t19 -69.5q71 25 104 119q25 70 25 164q0 119 -41 204q-53 110 -159 110q-108 0 -160 -102q-41 -80 -41 -199q0 -110 40 -193q50 -104 149 -111z" />
    <glyph glyph-name="R" unicode="R" horiz-adv-x="740" 
d="M259 305v-178q0 -26 3 -36q4 -15 18 -22q32 -17 32 -35q0 -34 -49 -34h-190q-49 0 -49 34q0 20 25 31q20 9 25 25q3 10 3 37v478q0 33 -3 42q-4 13 -20 17q-30 8 -30 34q0 34 49 34h355q83 0 130 -14q69 -19 104 -73q25 -40 25 -87q0 -124 -152 -194q73 -79 139 -244
q17 -43 48 -61q24 -14 24 -30q0 -29 -52 -29h-196q-60 0 -60 33q0 13 21.5 28t21.5 27q0 35 -47 119q-43 77 -76 114q-28 -7 -99 -16zM258 575v-193q88 2 152 35q82 42 82 121q0 62 -43 94q-38 29 -102 29q-58 0 -76 -22q-13 -16 -13 -64z" />
    <glyph glyph-name="S" unicode="S" horiz-adv-x="680" 
d="M150 144q53 -80 173 -80q59 0 103 28q51 32 51 88q0 70 -111 101l-206 58q-111 53 -111 179q0 69 52 133q79 96 245 96q123 0 221 -52q22 -12 27 -29q7 -24 7 -90q0 -41 -37 -41q-19 0 -42 37q-31 49 -53 68q-44 37 -115 37q-48 0 -84 -24q-41 -27 -41 -73
q0 -72 110 -104l204 -59q110 -53 110 -177q0 -95 -75 -168q-90 -87 -246 -87q-160 0 -247 72q-63 52 -63 104q0 22 14 38.5t35 16.5q25 0 47 -25q4 -4 32 -47z" />
    <glyph glyph-name="T" unicode="T" horiz-adv-x="680" 
d="M246 127v477q0 34 -5 42q-7 12 -35 12q-49 0 -84 -22q-16 -10 -45 -39q-22 -22 -38 -22q-33 0 -33 38q0 7 9 57q7 40 17.5 51t48.5 11h512q38 0 48.5 -11t17.5 -51q9 -50 9 -57q0 -38 -33 -38q-16 0 -38 22q-29 29 -45 39q-35 22 -84 22q-28 0 -35 -12q-5 -8 -5 -42v-477
q0 -26 3 -36q4 -15 18 -22q32 -17 32 -35q0 -34 -49 -34h-190q-49 0 -49 34q0 20 25 31q20 9 25 25q3 10 3 37z" />
    <glyph glyph-name="U" unicode="U" horiz-adv-x="760" 
d="M67 732h200q49 0 49 -32q0 -22 -29 -34q-22 -9 -29 -23q-5 -10 -7 -37q-11 -168 -11 -316q0 -228 181 -228q179 0 179 232q0 72 -6 168q-4 68 -9 166q0 16 -9 24q-16 9 -32 19q-20 11 -20 28q0 33 59 33h87q59 0 59 -33q0 -17 -20 -29q-31 -18 -32 -19q-8 -8 -8 -28
q0 -55 8 -164.5t8 -164.5q0 -161 -76.5 -235t-236.5 -74q-314 0 -314 315q0 51 6.5 152t6.5 152q0 33 -3 42q-4 13 -20 17q-30 8 -30 34q0 35 49 35z" />
    <glyph glyph-name="V" unicode="V" horiz-adv-x="740" 
d="M56 732h165q62 0 62 -33q0 -16 -29 -33.5t-29 -38.5q0 -53 47 -181q55 -149 143 -316q72 148 124 302q45 135 45 181q0 26 -35.5 47.5t-35.5 40.5q0 31 57 31h114q55 0 55 -33q0 -18 -20 -35q-26 -22 -37 -62q-44 -157 -104 -300q-33 -78 -120 -262q-16 -34 -33.5 -44.5
t-55.5 -10.5q-44 0 -60.5 10t-40.5 50q-76 124 -126 247q-57 140 -101 332q-6 24 -27.5 43t-21.5 31q0 34 64 34z" />
    <glyph glyph-name="W" unicode="W" horiz-adv-x="1000" 
d="M62 732h162q50 0 50 -35q0 -15 -25.5 -31.5t-25.5 -40.5q0 -57 31 -196q35 -159 81 -269q96 245 96 424q0 35 -3 48q-6 22 -26 37q-23 17 -23 30q0 33 50 33h181q46 0 46 -35q0 -12 -25 -29t-25 -41q0 -54 41 -205q46 -171 98 -265q54 127 87 272q27 118 27 178
q0 35 -33 56.5t-33 36.5q0 21 21 28q13 4 51 4h88q49 0 49 -31q0 -12 -16 -28q-12 -11 -25 -23q-8 -11 -11 -33q-30 -213 -96 -411q-50 -151 -83 -197q-17 -24 -71 -24q-39 0 -54.5 8.5t-33.5 41.5q-37 67 -72 164q0 1 -56 169q-66 -251 -125 -351q-19 -32 -71 -32
q-49 0 -69 19q-15 15 -39 70q-102 236 -140 538q-4 35 -26 51.5t-22 34.5q0 22 19 29q15 5 51 5z" />
    <glyph glyph-name="X" unicode="X" horiz-adv-x="740" 
d="M203 0h-151q-53 0 -53 33q0 10 39 43q46 39 58 58q82 130 165 227q-92 99 -187 263q-16 28 -37 39q-33 17 -33 37q0 26 32 32h215q49 -5 49 -32q0 -13 -16 -27t-16 -20q0 -34 136 -195q80 105 97 131q25 37 25 54q0 12 -24.5 28t-24.5 33q0 28 44 28h114q35 0 46 -4
q19 -7 19 -29q0 -20 -32 -38q-11 -6 -32 -27q-82 -127 -181 -236q117 -129 214 -283q8 -13 46 -44q32 -26 32 -39q0 -32 -57 -32h-224q-29 11 -29 34q0 15 18 27.5t18 15.5q0 33 -160 224q-74 -99 -99.5 -140t-25.5 -69q0 -15 22 -32.5t22 -30.5q0 -24 -29 -29z" />
    <glyph glyph-name="Y" unicode="Y" horiz-adv-x="740" 
d="M281 127v165q-118 157 -208 319q-13 23 -20.5 31t-31.5 20q-29 15 -29 37t22 29q13 4 54 4h184q53 0 53 -36q0 -15 -22.5 -28t-22.5 -22q0 -46 163 -273q165 206 165 265q0 13 -24 29t-24 31q0 34 53 34h87q32 0 42 -3q22 -6 22 -30q0 -21 -19 -31q-25 -13 -43 -45
q-103 -182 -219 -323v-173q0 -26 3 -36q4 -15 18 -22q32 -17 32 -35q0 -34 -49 -34h-190q-49 0 -49 34q0 20 25 31q20 9 25 25q3 10 3 37z" />
    <glyph glyph-name="Z" unicode="Z" 
d="M105 732h431q38 0 50 -5q20 -8 20 -35q0 -54 -98 -202q-46 -71 -181 -254q-98 -133 -98 -149q0 -10 26 -10h99q62 0 96 9q47 12 82 49q29 30 47 30q34 0 34 -32q0 -13 -12 -89q-5 -30 -19 -39q-8 -5 -35 -5h-449q-83 0 -83 53q0 63 210 342q170 226 170 254q0 11 -45 11
q-98 0 -120 -3q-44 -6 -76 -28q-13 -9 -40 -37q-18 -19 -32 -19q-35 0 -35 33q0 77 13 110q6 16 45 16z" />
    <glyph glyph-name="bracketleft" unicode="[" horiz-adv-x="320" 
d="M70 -132v812q0 35 10 43.5t45 8.5h125q35 0 43 -2q22 -6 22 -30q0 -25 -35 -34q-44 -11 -51 -20q-13 -17 -13 -72v-600q0 -55 13 -72q7 -9 51 -20q35 -9 35 -34q0 -24 -22 -30q-8 -2 -43 -2h-125q-35 0 -45 8.5t-10 43.5z" />
    <glyph glyph-name="backslash" unicode="\" horiz-adv-x="640" 
d="M441 0l-313 757h72l313 -757h-72z" />
    <glyph glyph-name="bracketright" unicode="]" horiz-adv-x="320" 
d="M104 -26v600q0 55 -13 72q-7 9 -50 20q-36 10 -36 34t22 30q9 2 43 2h125q35 0 45 -8.5t10 -43.5v-812q0 -35 -10 -43.5t-45 -8.5h-125q-34 0 -43 2q-22 6 -22 30t36 34q43 11 50 20q13 17 13 72z" />
    <glyph glyph-name="asciicircum" unicode="^" horiz-adv-x="660" 
d="M123 178h-93l253 554h90l256 -554h-95l-207 455z" />
    <glyph glyph-name="underscore" unicode="_" horiz-adv-x="500" 
d="M0 -75h500v-50h-500v50z" />
    <glyph glyph-name="grave" unicode="`" horiz-adv-x="380" 
d="M170 675l110 -62q40 -23 40 -33q0 -12 -7 -27q-7 -18 -18 -18q-12 0 -70 15l-135 35q-45 12 -45 35q0 21 16 50.5t35 29.5q30 0 74 -25z" />
    <glyph glyph-name="a" unicode="a" horiz-adv-x="580" 
d="M516 295v-158q0 -36 3 -50t16 -20q33 -16 33 -35q0 -32 -54 -32h-104q-35 0 -44 14q-6 10 -6 48q-47 -77 -155 -77q-75 0 -125 39q-55 43 -55 116q0 95 104 142q78 35 186 35h34q0 105 -93 105q-26 0 -65.5 -32t-67.5 -32q-62 0 -62 48q0 45 85 68q56 15 122 15
q248 0 248 -194zM354 254h-18q-59 0 -98 -27q-45 -31 -45 -88q0 -30 17 -51t46 -21q46 0 77 48q18 28 21 67v72z" />
    <glyph glyph-name="b" unicode="b" 
d="M221 659v-222q65 52 141 52q105 0 166 -66.5t61 -172.5q0 -125 -89 -198q-83 -67 -211 -67q-104 0 -167 45q-40 28 -54 75q-10 34 -10 94v352q0 57 -1 62q-5 35 -30.5 49t-25.5 28q0 22 48 36q109 31 131 31q41 0 41 -98zM221 280v-55q0 -171 90 -171q58 0 85 62
q20 46 20 112q0 64 -19 115q-26 70 -79 70q-51 0 -76 -43q-21 -36 -21 -90z" />
    <glyph glyph-name="c" unicode="c" horiz-adv-x="520" 
d="M455 38q-77 -53 -163 -53q-112 0 -189 66q-80 69 -80 180q0 116 79 188q76 70 193 70q66 0 126 -24q79 -32 79 -86q0 -24 -17 -39t-41 -15q-32 0 -71 45.5t-72 45.5q-55 0 -83 -67q-20 -48 -21 -115h1q0 -67 29 -112q35 -52 98 -52q67 0 118 51q25 25 41 25q29 0 29 -31
q0 -39 -56 -77z" />
    <glyph glyph-name="d" unicode="d" 
d="M391 456v95q0 57 -1 62q-5 35 -30.5 49t-25.5 28q0 22 48 36q109 31 131 31q41 0 41 -98v-522q0 -33 2 -42q5 -22 25 -32q25 -12 25 -31q0 -32 -54 -32h-102q-36 0 -45 14q-7 10 -7 48q-46 -77 -147 -77q-102 0 -167 70.5t-65 173.5q0 111 72 185.5t183 74.5
q59 0 117 -33zM391 178v134q0 104 -87 104q-60 0 -90 -64q-22 -48 -22 -116q0 -66 21 -111q28 -60 86 -60q50 0 77 42q15 24 15 71z" />
    <glyph glyph-name="e" unicode="e" horiz-adv-x="560" 
d="M203 172q11 -48 46 -77.5t83 -29.5q68 0 135 60q25 22 41 22q11 0 20 -8t9 -19q0 -46 -81 -93q-72 -42 -166 -42q-108 0 -186 63q-83 67 -83 173q0 121 91 197q86 71 210 71q78 0 136 -33q69 -41 69 -113q0 -138 -324 -171zM194 239q66 5 113 28q64 31 64 87q0 65 -60 65
q-59 0 -92 -64q-29 -54 -25 -116z" />
    <glyph glyph-name="f" unicode="f" horiz-adv-x="360" 
d="M253 404v-269q0 -32 2 -41q5 -21 25 -31q25 -12 25 -31q0 -32 -54 -32h-159q-54 0 -54 32q0 19 25 31q20 10 25 31q2 9 2 41v269h-13q-30 0 -40 5q-17 8 -17 34q0 24 15 32q11 6 37 6h19q-2 120 25 179q45 97 164 97q38 0 68 -15q37 -18 37 -53q0 -24 -15.5 -41
t-39.5 -17q-16 0 -39.5 14.5t-22.5 14.5q-15 0 -15 -56v-123h29q36 0 47 -3q26 -8 26 -34q0 -27 -20 -35q-12 -5 -50 -5h-32z" />
    <glyph glyph-name="g" unicode="g" horiz-adv-x="600" 
d="M459 481h55q67 0 67 -42q0 -36 -61 -36h-26q55 -60 55 -143q0 -119 -101 -185q118 -28 118 -118q0 -85 -104 -124q-74 -28 -176 -28q-87 0 -152 15q-105 24 -105 82q0 39 37 61q31 19 73 19q55 0 55 -26q0 -7 -4.5 -14t-4.5 -13q0 -22 39 -33q28 -8 58 -8q129 0 129 75
q0 46 -66 74q-36 -10 -77 -10q-106 0 -174 58q-72 61 -72 165q0 120 81 182q73 57 196 57q27 0 80 -4t80 -4zM281 99q96 0 96 169q0 57 -18 100q-24 58 -72 58q-49 0 -74 -61q-19 -46 -19 -104q0 -162 87 -162z" />
    <glyph glyph-name="h" unicode="h" 
d="M228 659v-218q67 48 146 48q187 0 187 -203v-151q0 -38 2 -51t13 -21q25 -11 25 -31q0 -32 -47 -32h-149q-47 0 -47 32q0 20 25 31q11 8 13 21t2 51v158q0 115 -81 115q-43 0 -66 -27.5t-23 -71.5v-174q0 -38 2 -51t13 -21q25 -11 25 -31q0 -32 -47 -32h-149
q-47 0 -47 32q0 20 25 31q11 8 13 21t2 51v416q0 57 -1 62q-5 35 -30.5 49t-25.5 28q0 22 48 36q109 31 131 31q41 0 41 -98z" />
    <glyph glyph-name="i" unicode="i" horiz-adv-x="300" 
d="M143 546q-36 0 -64 19q-31 21 -31 56q0 38 29 61t68 23t68.5 -21t29.5 -59q0 -37 -33 -59q-29 -20 -67 -20zM78 135v148q0 57 -1 62q-5 35 -30.5 49t-25.5 28q0 22 48 36q109 31 131 31q41 0 41 -98v-256q0 -38 2 -51t13 -21q25 -11 25 -31q0 -32 -47 -32h-149
q-47 0 -47 32q0 20 25 31q11 8 13 21t2 51z" />
    <glyph glyph-name="j" unicode="j" horiz-adv-x="300" 
d="M157 546q-36 0 -64 19q-31 21 -31 56q0 38 29 61t68 23t68.5 -21t29.5 -59q0 -37 -33 -59q-29 -20 -67 -20zM89 -64v347q0 57 -1 62q-5 35 -30.5 49t-25.5 28q0 22 48 36q109 31 131 31q41 0 41 -98v-350q0 -109 -30 -156q-51 -80 -149 -80q-44 0 -76 15q-44 20 -44 58
q0 23 15 39t38 16q22 0 47.5 -19l25.5 -19q10 0 10 41z" />
    <glyph glyph-name="k" unicode="k" horiz-adv-x="600" 
d="M63 135v416q0 57 -1 62q-5 35 -30.5 49t-25.5 28q0 22 48 36q109 31 131 31q41 0 41 -98v-386q34 12 91 59q62 51 62 75q0 9 -18 21.5t-18 23.5q0 20 26 25q21 4 102 4q42 0 48 -1q31 -6 31 -28q0 -14 -12 -24q-2 -2 -24 -15q-11 -7 -55.5 -51t-70.5 -60q85 -76 157 -206
q13 -23 28 -32q23 -13 23 -31q0 -33 -46 -33h-165q-50 0 -50 32q0 11 15 22.5t15 19.5q0 23 -41 79q-37 52 -61 71l-37 -21v-68q0 -38 2 -51t13 -21q25 -11 25 -31q0 -32 -47 -32h-149q-47 0 -47 32q0 20 25 31q11 8 13 21t2 51z" />
    <glyph glyph-name="l" unicode="l" horiz-adv-x="300" 
d="M73 135v416q0 57 -1 62q-5 35 -30.5 49t-25.5 28q0 22 48 36q109 31 131 31q41 0 41 -98v-524q0 -41 3 -50q5 -14 23 -22q25 -11 25 -31q0 -22 -20 -29q-9 -3 -38 -3h-149q-29 0 -38 3q-20 7 -20 29q0 20 25 31q18 8 23 22q3 9 3 50z" />
    <glyph glyph-name="m" unicode="m" horiz-adv-x="920" 
d="M68 135v183q0 35 -2 42q-4 15 -26.5 27.5t-22.5 27.5q0 25 65 51q57 23 89 23q34 0 45 -72q63 72 161 72t143 -81q54 81 171 81q170 0 170 -183v-171q0 -38 2 -51t13 -21q25 -11 25 -31q0 -32 -47 -32h-149q-47 0 -47 32q0 20 25 31q11 8 13 21t2 51v147q0 54 -8 77
q-14 40 -57 40t-69 -34q-18 -24 -18 -88v-142q0 -38 2 -51t13 -21q25 -11 25 -31q0 -32 -47 -32h-149q-47 0 -47 32q0 20 25 31q11 8 13 21t2 51v147q0 54 -8 77q-14 40 -57 40t-69 -34q-18 -24 -18 -88v-142q0 -38 2 -51t13 -21q25 -11 25 -31q0 -32 -47 -32h-149
q-47 0 -47 32q0 20 25 31q11 8 13 21t2 51z" />
    <glyph glyph-name="n" unicode="n" 
d="M561 291v-156q0 -38 2 -51t13 -21q25 -11 25 -31q0 -32 -47 -32h-149q-47 0 -47 32q0 20 25 31q11 8 13 21t2 51v153q0 56 -10 79q-16 38 -64 38q-52 0 -77 -41q-15 -24 -15 -82v-147q0 -38 2 -51t13 -21q25 -11 25 -31q0 -32 -47 -32h-149q-47 0 -47 32q0 20 25 31
q11 8 13 21t2 51v183q0 35 -2 42q-4 15 -26.5 27.5t-22.5 27.5q0 25 65 51q57 23 89 23q34 0 45 -72q59 72 159 72q185 0 185 -198z" />
    <glyph glyph-name="o" unicode="o" 
d="M309 -15q-119 0 -198 64q-85 70 -85 186q0 114 91 187q84 67 201 67q111 0 192 -68q85 -72 85 -181q0 -113 -88 -186q-83 -69 -198 -69zM310 55q113 0 113 192q0 68 -22 112q-28 59 -89 59q-62 0 -91 -61q-23 -46 -23 -115q0 -187 112 -187z" />
    <glyph glyph-name="p" unicode="p" horiz-adv-x="640" 
d="M242 277v-326q0 -41 3 -50q5 -14 23 -22q25 -11 25 -31q0 -22 -20 -29q-9 -3 -38 -3h-149q-29 0 -38 3q-20 7 -20 29q0 20 25 31q18 8 23 22q3 9 3 50v367q0 35 -2 42q-4 15 -26.5 27.5t-22.5 27.5q0 25 65 51q57 23 89 23q34 0 45 -72q67 72 154 72q106 0 171 -73
q63 -69 63 -177q0 -107 -69 -180.5t-175 -73.5q-36 0 -65 12q-39 16 -39 47q0 25 22 25q8 0 23 -1.5t23 -1.5q56 0 85 59q23 46 23 108q0 64 -22 110q-29 61 -85 61q-94 0 -94 -127z" />
    <glyph glyph-name="q" unicode="q" 
d="M393 -49v88q-59 -54 -144 -54q-98 0 -161 68t-63 167q0 113 72.5 191t184.5 78q81 0 150 -48q59 48 90 48q34 0 34 -55v-483q0 -41 3 -50q5 -14 23 -22q25 -11 25 -31q0 -22 -20 -29q-9 -3 -38 -3h-149q-29 0 -38 3q-20 7 -20 29q0 20 25 31q18 8 23 22q3 9 3 50z
M393 170v117q0 129 -88 129q-60 0 -88 -66q-20 -47 -20 -117q0 -66 21 -112q28 -62 86 -62q45 0 72 37q17 23 17 74z" />
    <glyph glyph-name="r" unicode="r" horiz-adv-x="440" 
d="M90 135v183q0 44 -42 64q-27 13 -27 33q0 25 49 45q72 29 105 29q48 0 57 -104q21 41 53 70q38 34 78 34q32 0 53.5 -21t21.5 -53q0 -26 -13 -46q-15 -23 -40 -23q-12 0 -34.5 6.5t-32.5 6.5q-37 0 -54 -59q-11 -39 -11 -86v-79q0 -38 1 -43q4 -19 27 -31t23 -29
q0 -32 -54 -32h-157q-54 0 -54 32q0 15 22.5 29t26.5 32q2 9 2 42z" />
    <glyph glyph-name="s" unicode="s" horiz-adv-x="500" 
d="M101 11q-79 35 -79 86q0 18 12 32t30 14q17 0 47 -29q38 -38 44 -42q25 -16 58 -16q32 0 56 13q29 17 29 46q0 40 -67 58q-116 31 -126 36q-67 33 -67 110q0 86 75 132q63 38 154 38q100 0 158 -38q21 -14 21 -67q0 -49 -30 -49q-17 0 -34 22q-27 36 -35 42
q-26 22 -69 22q-30 0 -51 -13q-25 -15 -25 -43q0 -35 69 -54q109 -30 128 -40q69 -36 69 -113q0 -84 -79 -132q-67 -41 -156 -41q-74 0 -132 26z" />
    <glyph glyph-name="t" unicode="t" horiz-adv-x="380" 
d="M242 402v-255q0 -38 9 -52q12 -18 46.5 -18t46.5 -4q23 -8 23 -35q0 -38 -67 -38h-137q-48 0 -64 12q-20 15 -20 65v325h-20q-29 0 -41 5q-19 8 -19 34q0 29 40 36q30 5 38 8q39 13 57 114q5 29 15.5 39.5t39.5 10.5q46 0 51 -23q2 -9 2 -25v-120h56q31 0 42 -5
q20 -9 20 -35q0 -39 -60 -39h-58z" />
    <glyph glyph-name="u" unicode="u" 
d="M61 169v166q0 28 -2 38q-5 18 -21 30.5t-16 25.5q0 22 54 39q62 19 105 19t43 -87v-222q0 -52 9 -74q15 -36 59 -36q45 0 73 35q18 22 18 78v154q0 28 -2 38q-5 18 -21 30.5t-16 25.5q0 22 54 39q62 19 105 19t43 -87v-263q0 -33 2 -42q5 -22 25 -32q25 -12 25 -31
q0 -32 -54 -32h-97q-36 0 -45 14q-7 10 -7 48q-67 -77 -170 -77q-97 0 -145 75q-19 29 -19 109z" />
    <glyph glyph-name="v" unicode="v" horiz-adv-x="540" 
d="M55 481h130q65 0 65 -30q0 -14 -20.5 -31.5t-20.5 -32.5q0 -42 40 -141q37 -91 67 -137q92 175 92 271q0 22 -23 41t-23 32q0 28 55 28h55q30 0 39 -2q24 -5 24 -24q0 -15 -13 -29q-18 -19 -20 -24q-5 -10 -12 -37l-11 -42q-31 -118 -82 -219q-37 -73 -62 -99
q-19 -20 -60 -20q-33 0 -51.5 9t-36.5 36q-87 131 -146 347q-3 10 -7 24q-5 10 -15 18q-22 17 -22 31q0 22 20 28q10 3 38 3z" />
    <glyph glyph-name="w" unicode="w" horiz-adv-x="800" 
d="M45 481h144q51 0 51 -32q0 -15 -17.5 -27.5t-17.5 -25.5q0 -42 24 -130q27 -99 63 -161q60 117 60 243q0 54 -24 74q-18 15 -18 31q0 28 46 28h132q54 0 54 -31q0 -14 -17 -27t-17 -26q0 -46 23 -126q26 -91 66 -166q28 55 54 133q29 89 29 138q0 26 -22.5 44t-22.5 34
q0 27 55 27h52q62 0 62 -28q0 -12 -10 -24t-18 -23t-14 -33q-84 -307 -145 -366q-23 -22 -65 -22q-52 0 -77 34q-33 45 -78 164q-44 -120 -87 -170q-24 -28 -67 -28q-44 0 -67 21q-16 15 -40 64q-74 152 -100 308q-5 28 -13 35q-25 21 -25 37q0 31 47 31z" />
    <glyph glyph-name="x" unicode="x" horiz-adv-x="560" 
d="M145 0h-85q-55 0 -55 30q0 19 20 31q30 19 32.5 21t25.5 32q45 57 100 116q-52 60 -122 159q-7 10 -36 32q-21 16 -21 30q0 30 44 30h171q48 0 48 -29q0 -9 -10.5 -22t-10.5 -18q0 -22 74 -99q64 64 64 93q0 7 -17 19.5t-17 26.5q0 21 19 27q8 2 37 2h58q28 0 37 -2
q21 -5 21 -25q0 -17 -27 -35q-16 -10 -30 -31q-39 -57 -105 -123q36 -41 104 -131q44 -58 63 -68q32 -16 32 -36q0 -13 -11.5 -21.5t-24.5 -8.5h-179q-53 0 -53 30q0 13 12 25.5t12 15.5q0 11 -88 111q-65 -71 -65 -97q0 -10 21.5 -24t21.5 -31q0 -20 -17 -26q-11 -4 -43 -4
z" />
    <glyph glyph-name="y" unicode="y" horiz-adv-x="540" 
d="M46 481h130q33 0 44 -4q19 -7 19 -29q0 -7 -17 -27t-17 -44q0 -90 32 -181q40 -113 80 -113t70 123q24 99 24 159q0 25 -3 34q-5 13 -23 24q-21 12 -21 30q0 20 20 26q9 2 37 2h57q31 0 39 -2q24 -4 24 -24q0 -14 -14 -30t-15 -24q-31 -234 -121 -400
q-106 -196 -252 -196q-32 0 -58 15q-31 17 -31 47q0 24 17.5 38.5t41.5 14.5q16 0 43 -11t34 -11q49 0 117 116q-52 -13 -63 -13q-161 0 -209 388q-3 22 -18.5 37.5t-15.5 26.5q0 28 49 28z" />
    <glyph glyph-name="z" unicode="z" horiz-adv-x="500" 
d="M401 0h-307q-77 0 -77 45q0 33 42 87l224 286h-75q-38 0 -56 -6q-26 -9 -44 -35q-23 -33 -41 -33q-27 0 -27 31q0 47 15 87q7 19 49 19h303q38 0 50 -5q18 -8 18 -33q0 -35 -58 -111l-201 -264h75q46 0 68 8q30 11 52 44q18 27 37 27q26 0 26 -26q0 -45 -16 -92
q-10 -29 -57 -29z" />
    <glyph glyph-name="braceleft" unicode="{" horiz-adv-x="340" 
d="M96 -51v204q0 98 -81 119q25 3 52 25q20 16 26 42q3 14 3 52v180q0 72 18 105q24 44 87 53q27 4 99 3q-58 -27 -58 -122v-191q0 -62 -15 -93q-20 -42 -74 -54q53 -13 73 -50q16 -30 16 -89v-205q0 -93 58 -123q-73 0 -92 2q-40 4 -70 25q-42 29 -42 117z" />
    <glyph glyph-name="bar" unicode="|" horiz-adv-x="660" 
d="M282 -250v1000h96v-1000h-96z" />
    <glyph glyph-name="braceright" unicode="}" horiz-adv-x="340" 
d="M97 -72v205q0 59 16 89q20 37 73 50q-54 12 -74 54q-15 31 -15 93v191q0 95 -58 122q72 1 99 -3q63 -9 87 -53q18 -33 18 -105v-180q0 -38 3 -52q6 -26 26 -42q27 -22 52 -25q-81 -21 -81 -119v-204q0 -88 -42 -117q-30 -21 -70 -25q-19 -2 -92 -2q58 30 58 123z" />
    <glyph glyph-name="asciitilde" unicode="~" horiz-adv-x="660" 
d="M548 380l74 -47q-45 -62 -68 -83q-44 -39 -99 -39q-37 0 -103 25l-53 20q-64 24 -87 24q-35 0 -61 -28q-10 -10 -40 -58l-74 49q79 128 173 128q44 0 129.5 -34.5t115.5 -34.5q29 0 55 27q11 11 38 51z" />
    <glyph glyph-name="exclamdown" unicode="&#xa1;" horiz-adv-x="360" 
d="M180 489q36 0 64.5 -21t28.5 -55q0 -35 -28.5 -55.5t-64.5 -20.5q-37 0 -65 20q-32 22 -32 57q0 34 32 56q29 19 65 19zM180 285q26 0 36 -16q6 -9 10 -39q57 -389 57 -425q0 -78 -103 -78t-103 78q0 36 57 425q4 30 10 39q10 16 36 16z" />
    <glyph glyph-name="cent" unicode="&#xa2;" horiz-adv-x="680" 
d="M399 142v-78q0 -27 -4 -36q-7 -16 -31 -16t-32 13q-5 9 -5 34v80q-100 5 -159.5 70t-59.5 165q0 96 61.5 163.5t157.5 81.5v90q0 48 35 48q34 0 34 -48v-90q48 0 98 -26q59 -31 59 -73q0 -24 -17 -38.5t-41 -14.5q-32 0 -66.5 44.5t-64.5 44.5q-52 0 -79 -63
q-20 -47 -20 -108q0 -65 29 -114q35 -59 96 -59q55 0 102 51q24 26 41 26q30 0 30 -31q0 -40 -64 -78q-52 -31 -100 -38z" />
    <glyph glyph-name="sterling" unicode="&#xa3;" horiz-adv-x="680" 
d="M131 342h-64q-44 0 -44 19q0 58 49 58h46q-6 42 -6 74q0 119 74 188t194 69q82 0 149 -32q84 -41 84 -115q0 -61 -63 -61q-34 0 -49 17t-21 53q-11 68 -93 68q-51 0 -80 -34t-29 -86q0 -53 20 -141h159q41 0 41 -16q0 -23 -20 -49q-9 -12 -44 -12h-124l6 -79
q6 -78 -54 -155q65 42 109 42q28 0 80.5 -15t78.5 -15q33 0 66 39q23 27 36 27q27 0 27 -29q0 -36 -51 -97q-62 -75 -139 -75q-41 0 -126 24t-125 24q-54 0 -98 -28q-28 -18 -38 -18q-15 0 -27 17t-12 33q0 17 28 31q39 20 53 37q28 35 28 99q0 33 -21 138z" />
    <glyph glyph-name="currency" unicode="&#xa4;" horiz-adv-x="680" 
d="M340 471q-46 0 -74 -31.5t-28 -78.5q0 -48 27.5 -80t74.5 -32q46 0 75 32.5t29 79.5t-29 78.5t-75 31.5zM59 146l98 98q-31 51 -31 117t31 115l-98 98q-18 18 -18 39q0 18 13.5 31.5t31.5 13.5q21 0 39 -18l98 -98q54 33 117 33q67 0 117 -33l98 98q18 18 39 18
q18 0 31.5 -13.5t13.5 -31.5q0 -21 -18 -39l-98 -98q33 -50 33 -115q0 -67 -33 -117l98 -98q18 -18 18 -39q0 -18 -13.5 -31.5t-31.5 -13.5q-21 0 -39 18l-98 98q-50 -33 -117 -33q-63 0 -117 33l-98 -98q-18 -18 -39 -18q-18 0 -31.5 13.5t-13.5 31.5q0 21 18 39z" />
    <glyph glyph-name="yen" unicode="&#xa5;" horiz-adv-x="680" 
d="M266 234v58l-9 13h-111q-56 0 -56 33q0 20 20 27q12 4 47 4h56q-80 119 -137 237q-13 27 -16 31q-6 8 -26 20q-34 21 -34 42q0 33 43 33h194q38 0 38 -34q0 -12 -21 -27.5t-21 -25.5q0 -48 151 -272q35 45 88 131q64 104 64 134q0 13 -22 29.5t-22 33.5q0 31 52 31h84
q52 0 52 -24q0 -26 -18 -40q-25 -19 -41 -51q-49 -96 -151 -248h93q37 0 37 -32q0 -20 -8 -26t-29 -6h-140v-71h125q52 0 52 -32t-42 -32h-135v-34q0 -36 2 -43q4 -14 27 -29q20 -13 20 -29q0 -35 -43 -35h-151q-35 0 -46 5q-16 7 -16 31q0 17 25 31t25 41v62h-115
q-61 0 -61 32t61 32h115z" />
    <glyph glyph-name="brokenbar" unicode="&#xa6;" horiz-adv-x="660" 
d="M282 -175v350h96v-350h-96zM282 325v350h96v-350h-96z" />
    <glyph glyph-name="section" unicode="&#xa7;" horiz-adv-x="600" 
d="M119 432q-30 35 -41 56q-15 29 -15 67q0 91 77 145q69 47 164 47q97 0 171 -35q24 -11 33 -35q20 -80 20 -99q0 -35 -36 -35q-18 0 -43 36q-36 51 -60 71q-37 30 -85 30q-41 0 -72 -21q-35 -24 -35 -63q0 -58 94 -91l176 -61q94 -48 94 -144q0 -86 -78 -162
q59 -61 59 -130q0 -103 -86 -167q-78 -59 -184 -59q-73 0 -146 32q-29 13 -35 17q-22 16 -39 97q-10 45 -10 63q0 37 33 37q26 0 51 -45q40 -72 50 -84q39 -45 96 -45q49 0 87 30q42 32 42 79q0 69 -97 104q-60 21 -181 63q-97 49 -97 146q0 84 93 156zM181 395
q-33 -31 -33 -67q0 -56 101 -84q109 -30 174 -65q27 44 27 71q0 53 -93 83q-68 22 -176 62z" />
    <glyph glyph-name="dieresis" unicode="&#xa8;" horiz-adv-x="540" 
d="M153 566q-30 0 -53 20.5t-23 50.5q0 31 23 51.5t54 20.5q32 0 53.5 -20t21.5 -52q0 -30 -23 -50.5t-53 -20.5zM387 565q-30 0 -52.5 21.5t-22.5 51.5q0 29 22 49.5t51 20.5q34 0 56.5 -19.5t22.5 -52.5q0 -30 -23.5 -50.5t-53.5 -20.5z" />
    <glyph glyph-name="copyright" unicode="&#xa9;" horiz-adv-x="840" 
d="M36 366q0 159 111 270t270 111t270.5 -111t111.5 -270t-111.5 -270t-270.5 -111q-158 0 -269.5 111.5t-111.5 269.5zM100 366q0 -133 92 -225t225 -92t225.5 92t92.5 225t-92.5 225t-225.5 92t-225 -92t-92 -225zM548 246q19 26 35 26q27 0 27 -28q0 -26 -26 -56
q-58 -66 -156 -66q-111 0 -177 69t-66 180q0 104 66.5 175.5t170.5 71.5q92 0 150 -46q13 -10 17 -65q2 -24 -1 -33q-5 -17 -28 -17q-14 0 -28 25q-19 34 -33 47q-28 25 -78 25q-64 0 -94 -65q-22 -49 -22 -121q0 -71 29 -117q35 -56 102 -56q76 0 112 51z" />
    <glyph glyph-name="ordfeminine" unicode="&#xaa;" horiz-adv-x="440" 
d="M371 612v-89q0 -30 16.5 -40t16.5 -21q0 -22 -42 -22h-62q-21 0 -28 5t-7 25q-31 -38 -105 -38q-47 0 -77 23q-33 25 -33 71q0 58 69 87q50 21 119 21h19q0 54 -52 54q-19 0 -44.5 -18.5t-43.5 -18.5q-44 0 -44 31q0 28 54 43q37 10 80 10q164 0 164 -123zM260 590h-10
q-33 0 -57 -15q-28 -17 -28 -49q0 -38 36 -38q26 0 45 24q14 18 14 78z" />
    <glyph glyph-name="guillemotleft" unicode="&#xab;" horiz-adv-x="380" 
d="M127 265l57 -103q21 -38 21 -48q0 -19 -54 -19q-36 0 -52 29l-64 116q-14 25 -14 50t14 50l64 116q16 29 52 29q54 0 54 -19q0 -10 -21 -48l-57 -103q-6 -11 -6 -25t6 -25zM287 265l57 -103q21 -38 21 -48q0 -19 -54 -19q-36 0 -52 29l-64 116q-14 25 -14 50t14 50
l64 116q16 29 52 29q54 0 54 -19q0 -10 -21 -48l-57 -103q-6 -11 -6 -25t6 -25z" />
    <glyph glyph-name="logicalnot" unicode="&#xac;" horiz-adv-x="660" 
d="M502 99v221h-439v95h534v-316h-95z" />
    <glyph glyph-name="registered" unicode="&#xae;" horiz-adv-x="840" 
d="M36 366q0 159 111 270t270 111t270.5 -111t111.5 -270t-111.5 -270t-270.5 -111q-158 0 -269.5 111.5t-111.5 269.5zM100 366q0 -133 92 -225t225 -92t225.5 92t92.5 225t-92.5 225t-225.5 92t-225 -92t-92 -225zM345 325v-115q0 -16 18.5 -28t18.5 -22q0 -26 -47 -26
h-75q-42 0 -42 26q0 10 18.5 22t18.5 28v320q0 19 -18.5 28t-18.5 21q0 19 14 24q6 2 29 2h192q61 0 102 -26q49 -30 49 -87q0 -83 -96 -125q60 -74 86 -142q9 -24 10 -25q4 -10 19 -18q20 -11 20 -24q0 -24 -41 -24h-84q-41 0 -41 24q0 14 16 21.5t16 13.5q0 29 -32 81
q-28 45 -52 66zM344 508v-123q58 5 101 24q60 27 60 74q0 45 -34 59q-19 8 -71 8q-32 0 -42 -6q-14 -8 -14 -36z" />
    <glyph glyph-name="degree" unicode="&#xb0;" horiz-adv-x="400" 
d="M350 600q0 -62 -44 -106t-106 -44t-106 44t-44 106t44 106t106 44t106 -44t44 -106zM200 507q40 0 66.5 26.5t26.5 66.5t-27 66.5t-67 26.5t-66 -26.5t-26 -66.5q0 -41 26 -67t67 -26z" />
    <glyph glyph-name="plusminus" unicode="&#xb1;" horiz-adv-x="660" 
d="M70 415h213v132h95v-132h212v-95h-212v-133h-95v133h-213v95zM70 122h520v-95h-520v95z" />
    <glyph glyph-name="twosuperior" unicode="&#xb2;" horiz-adv-x="408" 
d="M321 300h-262q-38 0 -38 23q0 45 85.5 122.5t114.5 113.5q36 45 36 85q0 56 -63 56q-66 0 -66 -46q0 -8 7.5 -21.5t7.5 -20.5q0 -16 -18 -26.5t-36 -10.5q-26 0 -42.5 15t-16.5 40q0 59 65 93q52 27 117 27t111 -25q56 -32 56 -92q0 -45 -37 -90q-21 -25 -85 -78.5
t-92 -84.5h93q64 0 78 19q17 23 33 23q17 0 17 -17q0 -11 -5.5 -30t-10.5 -38q-9 -29 -17 -33t-32 -4z" />
    <glyph glyph-name="threesuperior" unicode="&#xb3;" horiz-adv-x="408" 
d="M268 540q49 -8 82 -36q37 -31 37 -78q0 -67 -64 -104q-54 -31 -126 -31q-64 0 -111 19q-65 26 -65 81q0 44 51 44q41 0 45 -35q7 -63 63 -63q83 0 83 84q0 85 -108 85q-46 0 -46 23q0 31 28 31q109 0 109 82q0 27 -16 44t-43 17q-48 0 -48 -36q0 -5 3 -13.5t3 -13.5
q0 -34 -55 -34q-47 0 -47 46q0 51 60 78q46 20 104 20q60 0 105 -26q54 -30 54 -86q0 -75 -98 -98z" />
    <glyph glyph-name="acute" unicode="&#xb4;" horiz-adv-x="380" 
d="M100 613l110 62q44 25 74 25q19 0 35 -29.5t16 -50.5q0 -23 -45 -35l-135 -35q-58 -15 -70 -15q-11 0 -18 18q-7 15 -7 27q0 10 40 33z" />
    <glyph glyph-name="paragraph" unicode="&#xb6;" horiz-adv-x="780" 
d="M651 659v-779q0 -70 -47 -70q-48 0 -48 66v785h-65v-781q0 -41 -11 -53q-15 -17 -37 -17q-47 0 -47 66v362q-150 6 -252 64q-128 73 -128 209q0 221 266 221h398q39 0 47 -2q25 -6 25 -33q0 -28 -24 -35q-11 -3 -48 -3h-29zM396 661h-36q-193 0 -193 -151q0 -91 71 -152
q63 -55 158 -68v371z" />
    <glyph glyph-name="cedilla" unicode="&#xb8;" horiz-adv-x="340" 
d="M120 2h53l-12 -53q23 5 49 5q35 0 61 -15q32 -17 32 -50q0 -51 -64 -80q-50 -23 -108 -23q-38 0 -83 12q-60 16 -60 42q0 30 26 30q13 0 44 -16q43 -22 80 -22q79 0 79 47q0 31 -46 31q-11 0 -31 -6t-26 -6q-17 0 -17 15q0 13 23 89z" />
    <glyph glyph-name="onesuperior" unicode="&#xb9;" horiz-adv-x="408" 
d="M153 395v223q0 27 -8.5 34.5t-36.5 7.5q-50 0 -50 19q0 20 33 25q21 3 81 26q55 20 65 20q34 0 34 -40v-312q0 -27 5 -36q7 -13 35 -15q39 -3 39 -26q0 -21 -31 -21h-215q-34 0 -34 21q0 22 40 26q29 3 36 11t7 37z" />
    <glyph glyph-name="ordmasculine" unicode="&#xba;" horiz-adv-x="440" 
d="M223 432q-73 0 -126 37q-59 42 -59 112t60 114q54 40 126 40q73 0 126 -38q60 -43 60 -113t-60 -113q-55 -39 -127 -39zM223 482q70 0 70 108q0 95 -68 95q-70 0 -70 -102q0 -101 68 -101z" />
    <glyph glyph-name="guillemotright" unicode="&#xbb;" horiz-adv-x="380" 
d="M93 315l-57 103q-21 38 -21 48q0 19 54 19q36 0 52 -29l64 -116q14 -25 14 -50t-14 -50l-64 -116q-16 -29 -52 -29q-54 0 -54 19q0 10 21 48l57 103q6 11 6 25t-6 25zM253 315l-57 103q-21 38 -21 48q0 19 54 19q36 0 52 -29l64 -116q14 -25 14 -50t-14 -50l-64 -116
q-16 -29 -52 -29q-54 0 -54 19q0 10 21 48l57 103q6 11 6 25t-6 25z" />
    <glyph glyph-name="onequarter" unicode="&#xbc;" horiz-adv-x="1020" 
d="M814 156v209q-92 -98 -132 -209h132zM769 706l-394 -668q-15 -25 -21 -30q-10 -8 -34 -8q-33 0 -33 16q0 5 16 32l397 667q13 22 22 28.5t32 6.5q30 0 30 -13q0 -6 -15 -31zM812 80v24h-155q-46 0 -46 32t51 123q70 125 146 177q20 14 74 14q31 0 40.5 -9.5t9.5 -40.5
v-242h43q32 0 32 -26q0 -27 -29 -27h-46v-24q0 -19 1 -22q3 -9 16 -13q24 -8 24 -27t-37 -19h-131q-39 0 -39 19q0 20 26 27q14 4 18 12q2 4 2 22zM153 395v223q0 27 -8.5 34.5t-36.5 7.5q-50 0 -50 19q0 20 33 25q21 3 81 26q55 20 65 20q34 0 34 -40v-312q0 -27 5 -36
q7 -13 35 -15q39 -3 39 -26q0 -21 -31 -21h-215q-34 0 -34 21q0 22 40 26q29 3 36 11t7 37z" />
    <glyph glyph-name="onehalf" unicode="&#xbd;" horiz-adv-x="1020" 
d="M153 395v223q0 27 -8.5 34.5t-36.5 7.5q-50 0 -50 19q0 20 33 25q21 3 81 26q55 20 65 20q34 0 34 -40v-312q0 -27 5 -36q7 -13 35 -15q39 -3 39 -26q0 -21 -31 -21h-215q-34 0 -34 21q0 22 40 26q29 3 36 11t7 37zM749 706l-394 -668q-15 -25 -21 -30q-10 -8 -34 -8
q-33 0 -33 16q0 5 16 32l397 667q13 22 22 28.5t32 6.5q30 0 30 -13q0 -6 -15 -31zM918 0h-262q-38 0 -38 23q0 45 85.5 122.5t114.5 113.5q36 45 36 85q0 56 -63 56q-66 0 -66 -46q0 -8 7.5 -21.5t7.5 -20.5q0 -16 -18 -26.5t-36 -10.5q-26 0 -42.5 15t-16.5 40q0 59 65 93
q52 27 117 27t111 -25q56 -32 56 -92q0 -45 -37 -90q-21 -25 -85 -78.5t-92 -84.5h93q64 0 78 19q17 23 33 23q17 0 17 -17q0 -11 -5.5 -30t-10.5 -38q-9 -29 -17 -33t-32 -4z" />
    <glyph glyph-name="threequarters" unicode="&#xbe;" horiz-adv-x="1020" 
d="M769 706l-394 -668q-15 -25 -21 -30q-10 -8 -34 -8q-33 0 -33 16q0 5 16 32l397 667q13 22 22 28.5t32 6.5q30 0 30 -13q0 -6 -15 -31zM814 156v209q-92 -98 -132 -209h132zM268 540q49 -8 82 -36q37 -31 37 -78q0 -67 -64 -104q-54 -31 -126 -31q-64 0 -111 19
q-65 26 -65 81q0 44 51 44q41 0 45 -35q7 -63 63 -63q83 0 83 84q0 85 -108 85q-46 0 -46 23q0 31 28 31q109 0 109 82q0 27 -16 44t-43 17q-48 0 -48 -36q0 -5 3 -13.5t3 -13.5q0 -34 -55 -34q-47 0 -47 46q0 51 60 78q46 20 104 20q60 0 105 -26q54 -30 54 -86
q0 -75 -98 -98zM812 80v24h-155q-46 0 -46 32t51 123q70 125 146 177q20 14 74 14q31 0 40.5 -9.5t9.5 -40.5v-242h43q32 0 32 -26q0 -27 -29 -27h-46v-24q0 -19 1 -22q3 -9 16 -13q24 -8 24 -27t-37 -19h-131q-39 0 -39 19q0 20 26 27q14 4 18 12q2 4 2 22z" />
    <glyph glyph-name="questiondown" unicode="&#xbf;" horiz-adv-x="540" 
d="M315 489q35 0 63.5 -20.5t28.5 -54.5q0 -36 -31 -57q-27 -19 -65 -19q-36 0 -63 20q-31 22 -31 57t33 56q28 18 65 18zM366 193v-45q0 -43 -4 -50q-5 -10 -37 -30q-23 -13 -45 -27q-67 -47 -67 -144q0 -117 89 -117q70 0 68 70q-2 74 74 74q30 0 49.5 -15.5t19.5 -44.5
q0 -72 -81 -114q-64 -33 -145 -33q-107 0 -175 47q-78 54 -78 157q0 87 66 147q39 36 137 78q24 10 30 28q4 12 4 44q0 57 44 57q38 0 47 -24q4 -11 4 -58z" />
    <glyph glyph-name="Agrave" unicode="&#xc0;" horiz-adv-x="740" 
d="M461 237h-280q-38 -94 -38 -134q0 -21 26 -38t26 -33q0 -32 -65 -32h-82q-57 0 -57 34q0 16 21 30q15 10 18 13q7 7 12 19q82 294 250 607q14 26 33 33q12 4 49 4t48 -6q8 -6 23 -34q126 -239 250 -605q6 -18 30 -32q19 -11 19 -29q0 -34 -51 -34h-169q-61 0 -61 32
q0 15 21.5 29t21.5 22q0 31 -45 154zM209 319h224q-57 166 -111 265q-65 -129 -113 -265zM340 920l110 -62q40 -23 40 -33q0 -12 -7 -27q-7 -18 -18 -18q-12 0 -70 15l-135 35q-45 12 -45 35q0 21 16 50.5t35 29.5q30 0 74 -25z" />
    <glyph glyph-name="Aacute" unicode="&#xc1;" horiz-adv-x="740" 
d="M461 237h-280q-38 -94 -38 -134q0 -21 26 -38t26 -33q0 -32 -65 -32h-82q-57 0 -57 34q0 16 21 30q15 10 18 13q7 7 12 19q82 294 250 607q14 26 33 33q12 4 49 4t48 -6q8 -6 23 -34q126 -239 250 -605q6 -18 30 -32q19 -11 19 -29q0 -34 -51 -34h-169q-61 0 -61 32
q0 15 21.5 29t21.5 22q0 31 -45 154zM209 319h224q-57 166 -111 265q-65 -129 -113 -265zM290 858l110 62q44 25 74 25q19 0 35 -29.5t16 -50.5q0 -23 -45 -35l-135 -35q-58 -15 -70 -15q-11 0 -18 18q-7 15 -7 27q0 10 40 33z" />
    <glyph glyph-name="Acircumflex" unicode="&#xc2;" horiz-adv-x="740" 
d="M461 237h-280q-38 -94 -38 -134q0 -21 26 -38t26 -33q0 -32 -65 -32h-82q-57 0 -57 34q0 16 21 30q15 10 18 13q7 7 12 19q82 294 250 607q14 26 33 33q12 4 49 4t48 -6q8 -6 23 -34q126 -239 250 -605q6 -18 30 -32q19 -11 19 -29q0 -34 -51 -34h-169q-61 0 -61 32
q0 15 21.5 29t21.5 22q0 31 -45 154zM209 319h224q-57 166 -111 265q-65 -129 -113 -265zM209 812l106 119q22 31 35 31h40q14 0 35 -31l106 -119q24 -27 24 -32q0 -10 -32 -11q23 1 -38 1q-33 0 -50 20l-50 60q-7 9 -15 9t-15 -9l-50 -60q-17 -20 -50 -20q-61 0 -38 -1
q-32 1 -32 11q0 5 24 32z" />
    <glyph glyph-name="Atilde" unicode="&#xc3;" horiz-adv-x="740" 
d="M461 237h-280q-38 -94 -38 -134q0 -21 26 -38t26 -33q0 -32 -65 -32h-82q-57 0 -57 34q0 16 21 30q15 10 18 13q7 7 12 19q82 294 250 607q14 26 33 33q12 4 49 4t48 -6q8 -6 23 -34q126 -239 250 -605q6 -18 30 -32q19 -11 19 -29q0 -34 -51 -34h-169q-61 0 -61 32
q0 15 21.5 29t21.5 22q0 31 -45 154zM209 319h224q-57 166 -111 265q-65 -129 -113 -265zM203 884q38 45 106 45q34 0 89.5 -27t74.5 -27q21 0 44.5 25t30.5 25q19 0 19 -21q0 -54 -40.5 -88.5t-95.5 -34.5q-34 0 -89.5 27t-74.5 27q-21 0 -44.5 -25t-30.5 -25q-19 0 -19 31
q0 33 30 68z" />
    <glyph glyph-name="Adieresis" unicode="&#xc4;" horiz-adv-x="740" 
d="M461 237h-280q-38 -94 -38 -134q0 -21 26 -38t26 -33q0 -32 -65 -32h-82q-57 0 -57 34q0 16 21 30q15 10 18 13q7 7 12 19q82 294 250 607q14 26 33 33q12 4 49 4t48 -6q8 -6 23 -34q126 -239 250 -605q6 -18 30 -32q19 -11 19 -29q0 -34 -51 -34h-169q-61 0 -61 32
q0 15 21.5 29t21.5 22q0 31 -45 154zM209 319h224q-57 166 -111 265q-65 -129 -113 -265zM253 791q-30 0 -53 20.5t-23 50.5q0 31 23 51.5t54 20.5q32 0 53.5 -20t21.5 -52q0 -30 -23 -50.5t-53 -20.5zM487 790q-30 0 -52.5 21.5t-22.5 51.5q0 29 22 49.5t51 20.5
q34 0 56.5 -19.5t22.5 -52.5q0 -30 -23.5 -50.5t-53.5 -20.5z" />
    <glyph glyph-name="Aring" unicode="&#xc5;" horiz-adv-x="740" 
d="M461 237h-280q-38 -94 -38 -134q0 -21 26 -38t26 -33q0 -32 -65 -32h-82q-57 0 -57 34q0 16 21 30q15 10 18 13q7 7 12 19q82 294 250 607q14 26 33 33q12 4 49 4t48 -6q8 -6 23 -34q126 -239 250 -605q6 -18 30 -32q19 -11 19 -29q0 -34 -51 -34h-169q-61 0 -61 32
q0 15 21.5 29t21.5 22q0 31 -45 154zM209 319h224q-57 166 -111 265q-65 -129 -113 -265zM370 772q-44 0 -75.5 30.5t-31.5 74.5q0 45 30.5 77.5t75.5 32.5t77 -31t32 -76t-31.5 -76.5t-76.5 -31.5zM370 832q21 0 34 14t13 35q0 20 -14.5 32.5t-34.5 12.5q-18 0 -31 -14.5
t-13 -32.5q0 -19 13.5 -33t32.5 -14z" />
    <glyph glyph-name="AE" unicode="&#xc6;" horiz-adv-x="1020" 
d="M465 356h-201q-108 -192 -108 -257q0 -18 30.5 -32.5t30.5 -34.5q0 -27 -36 -32h-145q-53 0 -53 34q0 18 27 33q31 18 40 41q40 106 154 320q129 243 183 283q28 21 93 21h418q48 0 57 -16q15 -27 15 -91q0 -43 -36 -43q-16 0 -48 32q-35 34 -56.5 40.5t-74.5 6.5
q-48 0 -65 -3q-43 -9 -43 -38v-183h121q35 0 61 18.5t33 18.5q35 0 35 -69q0 -42 -2 -52q-7 -32 -33 -32q-9 0 -35 17.5t-59 17.5h-121v-173q0 -73 22 -92t96 -19q53 0 77 7q35 10 65 43q44 48 65 48q14 0 25 -9.5t11 -23.5q0 -24 -22 -91q-10 -31 -21.5 -38.5t-44.5 -7.5
h-459q-49 0 -49 34q0 20 25 31q20 9 25 25q3 10 3 37v229zM309 437h156v176q0 39 -13 39q-28 0 -143 -215z" />
    <glyph glyph-name="Ccedilla" unicode="&#xc7;" horiz-adv-x="760" 
d="M436 -15l-8 -36q23 5 49 5q35 0 61 -15q32 -17 32 -50q0 -51 -64 -80q-50 -23 -108 -23q-38 0 -83 12q-60 16 -60 42q0 30 26 30q13 0 44 -16q43 -22 80 -22q79 0 79 47q0 31 -46 31q-11 0 -31 -6t-26 -6q-17 0 -17 15q0 13 19 74q-151 15 -249 114q-102 102 -102 252
q0 166 123 280t290 114q132 0 232 -66q15 -10 20 -14q10 -8 13 -19q9 -29 9 -110q0 -39 -42 -39q-21 0 -53 55q-39 67 -54 79q-49 41 -113 41q-112 0 -176 -98q-54 -85 -54 -203q0 -104 39 -182q59 -118 196 -118q60 0 111 31q23 14 70 58q33 31 53 31q14 0 24.5 -10.5
t10.5 -24.5q0 -52 -83 -108q-92 -62 -212 -65z" />
    <glyph glyph-name="Egrave" unicode="&#xc8;" horiz-adv-x="660" 
d="M257 356v-173q0 -81 34 -99q20 -11 114 -12q51 0 77 7q35 10 65 43q44 48 65 48q14 0 25 -9.5t11 -23.5q0 -24 -22 -91q-10 -31 -21.5 -38.5t-44.5 -7.5h-489q-49 0 -49 34q0 20 25 31q20 9 25 25q3 10 3 37v478q0 33 -3 42q-4 13 -20 17q-30 8 -30 34q0 34 49 34h467
q48 0 57 -16q15 -27 15 -91q0 -43 -36 -43q-19 0 -46 30q-32 36 -75 45q-19 4 -88 4q-48 0 -65 -3q-43 -9 -43 -38v-183h151q35 0 61 18.5t33 18.5q35 0 35 -69q0 -42 -2 -52q-7 -32 -33 -32q-9 0 -35 17.5t-59 17.5h-151zM310 920l110 -62q40 -23 40 -33q0 -12 -7 -27
q-7 -18 -18 -18q-12 0 -70 15l-135 35q-45 12 -45 35q0 21 16 50.5t35 29.5q30 0 74 -25z" />
    <glyph glyph-name="Eacute" unicode="&#xc9;" horiz-adv-x="660" 
d="M257 356v-173q0 -81 34 -99q20 -11 114 -12q51 0 77 7q35 10 65 43q44 48 65 48q14 0 25 -9.5t11 -23.5q0 -24 -22 -91q-10 -31 -21.5 -38.5t-44.5 -7.5h-489q-49 0 -49 34q0 20 25 31q20 9 25 25q3 10 3 37v478q0 33 -3 42q-4 13 -20 17q-30 8 -30 34q0 34 49 34h467
q48 0 57 -16q15 -27 15 -91q0 -43 -36 -43q-19 0 -46 30q-32 36 -75 45q-19 4 -88 4q-48 0 -65 -3q-43 -9 -43 -38v-183h151q35 0 61 18.5t33 18.5q35 0 35 -69q0 -42 -2 -52q-7 -32 -33 -32q-9 0 -35 17.5t-59 17.5h-151zM240 858l110 62q44 25 74 25q19 0 35 -29.5
t16 -50.5q0 -23 -45 -35l-135 -35q-58 -15 -70 -15q-11 0 -18 18q-7 15 -7 27q0 10 40 33z" />
    <glyph glyph-name="Ecircumflex" unicode="&#xca;" horiz-adv-x="660" 
d="M257 356v-173q0 -81 34 -99q20 -11 114 -12q51 0 77 7q35 10 65 43q44 48 65 48q14 0 25 -9.5t11 -23.5q0 -24 -22 -91q-10 -31 -21.5 -38.5t-44.5 -7.5h-489q-49 0 -49 34q0 20 25 31q20 9 25 25q3 10 3 37v478q0 33 -3 42q-4 13 -20 17q-30 8 -30 34q0 34 49 34h467
q48 0 57 -16q15 -27 15 -91q0 -43 -36 -43q-19 0 -46 30q-32 36 -75 45q-19 4 -88 4q-48 0 -65 -3q-43 -9 -43 -38v-183h151q35 0 61 18.5t33 18.5q35 0 35 -69q0 -42 -2 -52q-7 -32 -33 -32q-9 0 -35 17.5t-59 17.5h-151zM169 827l106 119q22 31 35 31h40q14 0 35 -31
l106 -119q24 -27 24 -32q0 -10 -32 -11q23 1 -38 1q-33 0 -50 20l-50 60q-7 9 -15 9t-15 -9l-50 -60q-17 -20 -50 -20q-61 0 -38 -1q-32 1 -32 11q0 5 24 32z" />
    <glyph glyph-name="Edieresis" unicode="&#xcb;" horiz-adv-x="660" 
d="M257 356v-173q0 -81 34 -99q20 -11 114 -12q51 0 77 7q35 10 65 43q44 48 65 48q14 0 25 -9.5t11 -23.5q0 -24 -22 -91q-10 -31 -21.5 -38.5t-44.5 -7.5h-489q-49 0 -49 34q0 20 25 31q20 9 25 25q3 10 3 37v478q0 33 -3 42q-4 13 -20 17q-30 8 -30 34q0 34 49 34h467
q48 0 57 -16q15 -27 15 -91q0 -43 -36 -43q-19 0 -46 30q-32 36 -75 45q-19 4 -88 4q-48 0 -65 -3q-43 -9 -43 -38v-183h151q35 0 61 18.5t33 18.5q35 0 35 -69q0 -42 -2 -52q-7 -32 -33 -32q-9 0 -35 17.5t-59 17.5h-151zM213 811q-30 0 -53 20.5t-23 50.5q0 31 23 51.5
t54 20.5q32 0 53.5 -20t21.5 -52q0 -30 -23 -50.5t-53 -20.5zM447 810q-30 0 -52.5 21.5t-22.5 51.5q0 29 22 49.5t51 20.5q34 0 56.5 -19.5t22.5 -52.5q0 -30 -23.5 -50.5t-53.5 -20.5z" />
    <glyph glyph-name="Igrave" unicode="&#xcc;" horiz-adv-x="340" 
d="M76 127v478q0 33 -3 42q-4 13 -20 17q-30 8 -30 34q0 34 49 34h190q49 0 49 -34q0 -16 -20 -28q-23 -14 -27 -23q-6 -13 -6 -42v-478q0 -26 3 -36q4 -15 18 -22q32 -17 32 -35q0 -34 -49 -34h-190q-49 0 -49 34q0 20 25 31q20 9 25 25q3 10 3 37zM135 920l110 -62
q40 -23 40 -33q0 -12 -7 -27q-7 -18 -18 -18q-12 0 -70 15l-135 35q-45 12 -45 35q0 21 16 50.5t35 29.5q30 0 74 -25z" />
    <glyph glyph-name="Iacute" unicode="&#xcd;" horiz-adv-x="340" 
d="M76 127v478q0 33 -3 42q-4 13 -20 17q-30 8 -30 34q0 34 49 34h190q49 0 49 -34q0 -16 -20 -28q-23 -14 -27 -23q-6 -13 -6 -42v-478q0 -26 3 -36q4 -15 18 -22q32 -17 32 -35q0 -34 -49 -34h-190q-49 0 -49 34q0 20 25 31q20 9 25 25q3 10 3 37zM95 858l110 62
q44 25 74 25q19 0 35 -29.5t16 -50.5q0 -23 -45 -35l-135 -35q-58 -15 -70 -15q-11 0 -18 18q-7 15 -7 27q0 10 40 33z" />
    <glyph glyph-name="Icircumflex" unicode="&#xce;" horiz-adv-x="340" 
d="M76 127v478q0 33 -3 42q-4 13 -20 17q-30 8 -30 34q0 34 49 34h190q49 0 49 -34q0 -16 -20 -28q-23 -14 -27 -23q-6 -13 -6 -42v-478q0 -26 3 -36q4 -15 18 -22q32 -17 32 -35q0 -34 -49 -34h-190q-49 0 -49 34q0 20 25 31q20 9 25 25q3 10 3 37zM9 827l106 119
q22 31 35 31h40q14 0 35 -31l106 -119q24 -27 24 -32q0 -10 -32 -11q23 1 -38 1q-33 0 -50 20l-50 60q-7 9 -15 9t-15 -9l-50 -60q-17 -20 -50 -20q-61 0 -38 -1q-32 1 -32 11q0 5 24 32z" />
    <glyph glyph-name="Idieresis" unicode="&#xcf;" horiz-adv-x="340" 
d="M76 127v478q0 33 -3 42q-4 13 -20 17q-30 8 -30 34q0 34 49 34h190q49 0 49 -34q0 -16 -20 -28q-23 -14 -27 -23q-6 -13 -6 -42v-478q0 -26 3 -36q4 -15 18 -22q32 -17 32 -35q0 -34 -49 -34h-190q-49 0 -49 34q0 20 25 31q20 9 25 25q3 10 3 37zM53 796q-30 0 -53 20.5
t-23 50.5q0 31 23 51.5t54 20.5q32 0 53.5 -20t21.5 -52q0 -30 -23 -50.5t-53 -20.5zM287 795q-30 0 -52.5 21.5t-22.5 51.5q0 29 22 49.5t51 20.5q34 0 56.5 -19.5t22.5 -52.5q0 -30 -23.5 -50.5t-53.5 -20.5z" />
    <glyph glyph-name="Eth" unicode="&#xd0;" horiz-adv-x="820" 
d="M257 575v-149h118q29 0 41 -6q19 -9 19 -38q0 -30 -19 -40q-11 -6 -41 -6h-118v-168q0 -59 10 -75q14 -22 67 -22q121 0 188 86q61 79 61 203q0 127 -62 210q-69 91 -193 91q-50 0 -62 -19q-9 -14 -9 -67zM75 426v179q0 27 -3 37q-6 17 -25 25q-25 11 -25 31q0 34 49 34
h289q186 0 287 -79q131 -103 131 -282q0 -175 -104 -273t-280 -98h-323q-49 0 -49 34q0 20 25 31q20 9 25 25q3 10 3 37v209h-60q-30 0 -41 6q-19 10 -19 40q0 29 19 38q12 6 41 6h60z" />
    <glyph glyph-name="Ntilde" unicode="&#xd1;" horiz-adv-x="760" 
d="M101 125v443q0 47 -3 58q-8 27 -39 37q-38 12 -38 35q0 34 57 34h137q28 0 39.5 -4.5t30.5 -24.5q80 -84 317 -433v337q0 27 -8.5 38.5t-34.5 22.5t-26 33q0 20 19 27q12 4 49 4h87q68 0 68 -31q0 -23 -25 -33q-29 -11 -36.5 -21.5t-7.5 -39.5v-543q0 -46 -9 -57
q-10 -14 -54 -14q-42 0 -52 16q-180 276 -386 535v-419q0 -27 8.5 -38.5t34.5 -22t26 -33.5q0 -31 -68 -31h-87q-68 0 -68 31q0 21 24 32q31 16 38 24.5t7 37.5zM228 884q38 45 106 45q34 0 89.5 -27t74.5 -27q21 0 44.5 25t30.5 25q19 0 19 -21q0 -54 -40.5 -88.5
t-95.5 -34.5q-34 0 -89.5 27t-74.5 27q-21 0 -44.5 -25t-30.5 -25q-19 0 -19 31q0 33 30 68z" />
    <glyph glyph-name="Ograve" unicode="&#xd2;" horiz-adv-x="860" 
d="M410 920l110 -62q40 -23 40 -33q0 -12 -7 -27q-7 -18 -18 -18q-12 0 -70 15l-135 35q-45 12 -45 35q0 21 16 50.5t35 29.5q30 0 74 -25zM424 -15q-153 0 -266 98q-125 109 -125 285q0 166 115 274q112 105 279 105q170 0 283 -104q117 -106 117 -275q0 -165 -120 -276
q-116 -107 -283 -107zM428 61q108 0 162 103q42 80 42 200q0 119 -42 201q-54 106 -161 106q-103 0 -157 -104q-44 -83 -44 -196q0 -117 41 -201q53 -109 159 -109z" />
    <glyph glyph-name="Oacute" unicode="&#xd3;" horiz-adv-x="860" 
d="M340 858l110 62q44 25 74 25q19 0 35 -29.5t16 -50.5q0 -23 -45 -35l-135 -35q-58 -15 -70 -15q-11 0 -18 18q-7 15 -7 27q0 10 40 33zM424 -15q-153 0 -266 98q-125 109 -125 285q0 166 115 274q112 105 279 105q170 0 283 -104q117 -106 117 -275q0 -165 -120 -276
q-116 -107 -283 -107zM428 61q108 0 162 103q42 80 42 200q0 119 -42 201q-54 106 -161 106q-103 0 -157 -104q-44 -83 -44 -196q0 -117 41 -201q53 -109 159 -109z" />
    <glyph glyph-name="Ocircumflex" unicode="&#xd4;" horiz-adv-x="860" 
d="M424 -15q-153 0 -266 98q-125 109 -125 285q0 166 115 274q112 105 279 105q170 0 283 -104q117 -106 117 -275q0 -165 -120 -276q-116 -107 -283 -107zM428 61q108 0 162 103q42 80 42 200q0 119 -42 201q-54 106 -161 106q-103 0 -157 -104q-44 -83 -44 -196
q0 -117 41 -201q53 -109 159 -109zM269 827l106 119q22 31 35 31h40q14 0 35 -31l106 -119q24 -27 24 -32q0 -10 -32 -11q23 1 -38 1q-33 0 -50 20l-50 60q-7 9 -15 9t-15 -9l-50 -60q-17 -20 -50 -20q-61 0 -38 -1q-32 1 -32 11q0 5 24 32z" />
    <glyph glyph-name="Otilde" unicode="&#xd5;" horiz-adv-x="860" 
d="M263 899q38 45 106 45q34 0 89.5 -27t74.5 -27q21 0 44.5 25t30.5 25q19 0 19 -21q0 -54 -40.5 -88.5t-95.5 -34.5q-34 0 -89.5 27t-74.5 27q-21 0 -44.5 -25t-30.5 -25q-19 0 -19 31q0 33 30 68zM424 -15q-153 0 -266 98q-125 109 -125 285q0 166 115 274
q112 105 279 105q170 0 283 -104q117 -106 117 -275q0 -165 -120 -276q-116 -107 -283 -107zM428 61q108 0 162 103q42 80 42 200q0 119 -42 201q-54 106 -161 106q-103 0 -157 -104q-44 -83 -44 -196q0 -117 41 -201q53 -109 159 -109z" />
    <glyph glyph-name="Odieresis" unicode="&#xd6;" horiz-adv-x="860" 
d="M424 -15q-153 0 -266 98q-125 109 -125 285q0 166 115 274q112 105 279 105q170 0 283 -104q117 -106 117 -275q0 -165 -120 -276q-116 -107 -283 -107zM428 61q108 0 162 103q42 80 42 200q0 119 -42 201q-54 106 -161 106q-103 0 -157 -104q-44 -83 -44 -196
q0 -117 41 -201q53 -109 159 -109zM313 801q-30 0 -53 20.5t-23 50.5q0 31 23 51.5t54 20.5q32 0 53.5 -20t21.5 -52q0 -30 -23 -50.5t-53 -20.5zM547 800q-30 0 -52.5 21.5t-22.5 51.5q0 29 22 49.5t51 20.5q34 0 56.5 -19.5t22.5 -52.5q0 -30 -23.5 -50.5t-53.5 -20.5z
" />
    <glyph glyph-name="multiply" unicode="&#xd7;" horiz-adv-x="660" 
d="M70 95l193 193l-192 192l67 67l192 -192l192 192l67 -67l-192 -192l193 -193l-67 -67l-193 193l-193 -193z" />
    <glyph glyph-name="Oslash" unicode="&#xd8;" horiz-adv-x="860" 
d="M220 47l-46 -67q-19 -28 -38 -28q-31 0 -31 15q0 8 12 25l59 84q-143 121 -143 273q0 171 109.5 284.5t280.5 113.5q106 0 193 -47l46 62q17 23 27 23q37 0 37 -16q0 -7 -12 -24l-51 -71q161 -113 161 -309q0 -163 -116.5 -271.5t-280.5 -108.5q-116 0 -207 62zM590 566
l-307 -422q53 -84 145 -84q109 0 161 105q40 80 40 201q0 117 -39 200zM255 198l302 417q-51 57 -126 57q-105 0 -159 -101q-44 -81 -44 -195q0 -87 27 -178z" />
    <glyph glyph-name="Ugrave" unicode="&#xd9;" horiz-adv-x="760" 
d="M380 921l110 -62q40 -23 40 -33q0 -12 -7 -27q-7 -18 -18 -18q-12 0 -70 15l-135 35q-45 12 -45 35q0 21 16 50.5t35 29.5q30 0 74 -25zM67 732h200q49 0 49 -32q0 -22 -29 -34q-22 -9 -29 -23q-5 -10 -7 -37q-11 -168 -11 -316q0 -228 181 -228q179 0 179 232
q0 72 -6 168q-4 68 -9 166q0 16 -9 24q-16 9 -32 19q-20 11 -20 28q0 33 59 33h87q59 0 59 -33q0 -17 -20 -29q-31 -18 -32 -19q-8 -8 -8 -28q0 -55 8 -164.5t8 -164.5q0 -161 -76.5 -235t-236.5 -74q-314 0 -314 315q0 51 6.5 152t6.5 152q0 33 -3 42q-4 13 -20 17
q-30 8 -30 34q0 35 49 35z" />
    <glyph glyph-name="Uacute" unicode="&#xda;" horiz-adv-x="760" 
d="M340 858l110 62q44 25 74 25q19 0 35 -29.5t16 -50.5q0 -23 -45 -35l-135 -35q-58 -15 -70 -15q-11 0 -18 18q-7 15 -7 27q0 10 40 33zM67 732h200q49 0 49 -32q0 -22 -29 -34q-22 -9 -29 -23q-5 -10 -7 -37q-11 -168 -11 -316q0 -228 181 -228q179 0 179 232
q0 72 -6 168q-4 68 -9 166q0 16 -9 24q-16 9 -32 19q-20 11 -20 28q0 33 59 33h87q59 0 59 -33q0 -17 -20 -29q-31 -18 -32 -19q-8 -8 -8 -28q0 -55 8 -164.5t8 -164.5q0 -161 -76.5 -235t-236.5 -74q-314 0 -314 315q0 51 6.5 152t6.5 152q0 33 -3 42q-4 13 -20 17
q-30 8 -30 34q0 35 49 35z" />
    <glyph glyph-name="Ucircumflex" unicode="&#xdb;" horiz-adv-x="760" 
d="M67 732h200q49 0 49 -32q0 -22 -29 -34q-22 -9 -29 -23q-5 -10 -7 -37q-11 -168 -11 -316q0 -228 181 -228q179 0 179 232q0 72 -6 168q-4 68 -9 166q0 16 -9 24q-16 9 -32 19q-20 11 -20 28q0 33 59 33h87q59 0 59 -33q0 -17 -20 -29q-31 -18 -32 -19q-8 -8 -8 -28
q0 -55 8 -164.5t8 -164.5q0 -161 -76.5 -235t-236.5 -74q-314 0 -314 315q0 51 6.5 152t6.5 152q0 33 -3 42q-4 13 -20 17q-30 8 -30 34q0 35 49 35zM249 827l106 119q22 31 35 31h40q14 0 35 -31l106 -119q24 -27 24 -32q0 -10 -32 -11q23 1 -38 1q-33 0 -50 20l-50 60
q-7 9 -15 9t-15 -9l-50 -60q-17 -20 -50 -20q-61 0 -38 -1q-32 1 -32 11q0 5 24 32z" />
    <glyph glyph-name="Udieresis" unicode="&#xdc;" horiz-adv-x="760" 
d="M67 732h200q49 0 49 -32q0 -22 -29 -34q-22 -9 -29 -23q-5 -10 -7 -37q-11 -168 -11 -316q0 -228 181 -228q179 0 179 232q0 72 -6 168q-4 68 -9 166q0 16 -9 24q-16 9 -32 19q-20 11 -20 28q0 33 59 33h87q59 0 59 -33q0 -17 -20 -29q-31 -18 -32 -19q-8 -8 -8 -28
q0 -55 8 -164.5t8 -164.5q0 -161 -76.5 -235t-236.5 -74q-314 0 -314 315q0 51 6.5 152t6.5 152q0 33 -3 42q-4 13 -20 17q-30 8 -30 34q0 35 49 35zM293 801q-30 0 -53 20.5t-23 50.5q0 31 23 51.5t54 20.5q32 0 53.5 -20t21.5 -52q0 -30 -23 -50.5t-53 -20.5zM527 800
q-30 0 -52.5 21.5t-22.5 51.5q0 29 22 49.5t51 20.5q34 0 56.5 -19.5t22.5 -52.5q0 -30 -23.5 -50.5t-53.5 -20.5z" />
    <glyph glyph-name="Yacute" unicode="&#xdd;" horiz-adv-x="740" 
d="M281 127v165q-118 157 -208 319q-13 23 -20.5 31t-31.5 20q-29 15 -29 37t22 29q13 4 54 4h184q53 0 53 -36q0 -15 -22.5 -28t-22.5 -22q0 -46 163 -273q165 206 165 265q0 13 -24 29t-24 31q0 34 53 34h87q32 0 42 -3q22 -6 22 -30q0 -21 -19 -31q-25 -13 -43 -45
q-103 -182 -219 -323v-173q0 -26 3 -36q4 -15 18 -22q32 -17 32 -35q0 -34 -49 -34h-190q-49 0 -49 34q0 20 25 31q20 9 25 25q3 10 3 37zM370 858l110 62q44 25 74 25q19 0 35 -29.5t16 -50.5q0 -23 -45 -35l-135 -35q-58 -15 -70 -15q-11 0 -18 18q-7 15 -7 27q0 10 40 33
z" />
    <glyph glyph-name="Thorn" unicode="&#xde;" horiz-adv-x="680" 
d="M74 127v478q0 33 -3 42q-4 13 -20 17q-30 8 -30 34q0 34 49 34h190q49 0 49 -34q0 -20 -25 -31q-19 -8 -25 -25q-3 -10 -3 -37v-33h121q110 0 179 -33q94 -44 94 -142q0 -120 -146 -181q-109 -45 -248 -45v-44q0 -27 3 -37q5 -16 25 -25q25 -11 25 -31q0 -34 -49 -34
h-190q-49 0 -49 34q0 20 25 31q20 9 25 25q3 10 3 37zM256 425v-185q207 10 207 154q0 107 -133 107q-44 0 -59 -15.5t-15 -60.5z" />
    <glyph glyph-name="germandbls" unicode="&#xdf;" horiz-adv-x="660" 
d="M232 524v-471q0 -31 -9.5 -42t-39.5 -11h-107q-29 0 -38 3q-20 7 -20 29q0 20 25 31q18 8 23 22q3 9 3 50v344q0 271 262 271q95 0 164 -39q85 -48 85 -136q0 -132 -130 -175q185 -21 185 -210q0 -91 -54 -148t-144 -57q-73 0 -116 34q-46 37 -46 109q0 39 16 67
q19 35 55 35q39 0 39 -35q0 -17 -11.5 -36.5t-11.5 -28.5q0 -23 14 -37.5t37 -14.5q37 0 54 42q13 31 13 74q0 62 -41.5 104t-102.5 42t-61 50t60 50q43 0 67 35q21 30 21 75q0 114 -93 114q-98 0 -98 -140z" />
    <glyph glyph-name="agrave" unicode="&#xe0;" horiz-adv-x="580" 
d="M516 295v-158q0 -36 3 -50t16 -20q33 -16 33 -35q0 -32 -54 -32h-104q-35 0 -44 14q-6 10 -6 48q-47 -77 -155 -77q-75 0 -125 39q-55 43 -55 116q0 95 104 142q78 35 186 35h34q0 105 -93 105q-26 0 -65.5 -32t-67.5 -32q-62 0 -62 48q0 45 85 68q56 15 122 15
q248 0 248 -194zM354 254h-18q-59 0 -98 -27q-45 -31 -45 -88q0 -30 17 -51t46 -21q46 0 77 48q18 28 21 67v72zM270 675l110 -62q40 -23 40 -33q0 -12 -7 -27q-7 -18 -18 -18q-12 0 -70 15l-135 35q-45 12 -45 35q0 21 16 50.5t35 29.5q30 0 74 -25z" />
    <glyph glyph-name="aacute" unicode="&#xe1;" horiz-adv-x="580" 
d="M516 295v-158q0 -36 3 -50t16 -20q33 -16 33 -35q0 -32 -54 -32h-104q-35 0 -44 14q-6 10 -6 48q-47 -77 -155 -77q-75 0 -125 39q-55 43 -55 116q0 95 104 142q78 35 186 35h34q0 105 -93 105q-26 0 -65.5 -32t-67.5 -32q-62 0 -62 48q0 45 85 68q56 15 122 15
q248 0 248 -194zM354 254h-18q-59 0 -98 -27q-45 -31 -45 -88q0 -30 17 -51t46 -21q46 0 77 48q18 28 21 67v72zM200 613l110 62q44 25 74 25q19 0 35 -29.5t16 -50.5q0 -23 -45 -35l-135 -35q-58 -15 -70 -15q-11 0 -18 18q-7 15 -7 27q0 10 40 33z" />
    <glyph glyph-name="acircumflex" unicode="&#xe2;" horiz-adv-x="580" 
d="M516 295v-158q0 -36 3 -50t16 -20q33 -16 33 -35q0 -32 -54 -32h-104q-35 0 -44 14q-6 10 -6 48q-47 -77 -155 -77q-75 0 -125 39q-55 43 -55 116q0 95 104 142q78 35 186 35h34q0 105 -93 105q-26 0 -65.5 -32t-67.5 -32q-62 0 -62 48q0 45 85 68q56 15 122 15
q248 0 248 -194zM354 254h-18q-59 0 -98 -27q-45 -31 -45 -88q0 -30 17 -51t46 -21q46 0 77 48q18 28 21 67v72zM129 582l106 119q22 31 35 31h40q14 0 35 -31l106 -119q24 -27 24 -32q0 -10 -32 -11q23 1 -38 1q-33 0 -50 20l-50 60q-7 9 -15 9t-15 -9l-50 -60
q-17 -20 -50 -20q-61 0 -38 -1q-32 1 -32 11q0 5 24 32z" />
    <glyph glyph-name="atilde" unicode="&#xe3;" horiz-adv-x="580" 
d="M516 295v-158q0 -36 3 -50t16 -20q33 -16 33 -35q0 -32 -54 -32h-104q-35 0 -44 14q-6 10 -6 48q-47 -77 -155 -77q-75 0 -125 39q-55 43 -55 116q0 95 104 142q78 35 186 35h34q0 105 -93 105q-26 0 -65.5 -32t-67.5 -32q-62 0 -62 48q0 45 85 68q56 15 122 15
q248 0 248 -194zM354 254h-18q-59 0 -98 -27q-45 -31 -45 -88q0 -30 17 -51t46 -21q46 0 77 48q18 28 21 67v72zM123 659q38 45 106 45q34 0 89.5 -27t74.5 -27q21 0 44.5 25t30.5 25q19 0 19 -21q0 -54 -40.5 -88.5t-95.5 -34.5q-34 0 -89.5 27t-74.5 27q-21 0 -44.5 -25
t-30.5 -25q-19 0 -19 31q0 33 30 68z" />
    <glyph glyph-name="adieresis" unicode="&#xe4;" horiz-adv-x="580" 
d="M516 295v-158q0 -36 3 -50t16 -20q33 -16 33 -35q0 -32 -54 -32h-104q-35 0 -44 14q-6 10 -6 48q-47 -77 -155 -77q-75 0 -125 39q-55 43 -55 116q0 95 104 142q78 35 186 35h34q0 105 -93 105q-26 0 -65.5 -32t-67.5 -32q-62 0 -62 48q0 45 85 68q56 15 122 15
q248 0 248 -194zM354 254h-18q-59 0 -98 -27q-45 -31 -45 -88q0 -30 17 -51t46 -21q46 0 77 48q18 28 21 67v72zM173 566q-30 0 -53 20.5t-23 50.5q0 31 23 51.5t54 20.5q32 0 53.5 -20t21.5 -52q0 -30 -23 -50.5t-53 -20.5zM407 565q-30 0 -52.5 21.5t-22.5 51.5
q0 29 22 49.5t51 20.5q34 0 56.5 -19.5t22.5 -52.5q0 -30 -23.5 -50.5t-53.5 -20.5z" />
    <glyph glyph-name="aring" unicode="&#xe5;" horiz-adv-x="580" 
d="M516 295v-158q0 -36 3 -50t16 -20q33 -16 33 -35q0 -32 -54 -32h-104q-35 0 -44 14q-6 10 -6 48q-47 -77 -155 -77q-75 0 -125 39q-55 43 -55 116q0 95 104 142q78 35 186 35h34q0 105 -93 105q-26 0 -65.5 -32t-67.5 -32q-62 0 -62 48q0 45 85 68q56 15 122 15
q248 0 248 -194zM354 254h-18q-59 0 -98 -27q-45 -31 -45 -88q0 -30 17 -51t46 -21q46 0 77 48q18 28 21 67v72zM280 542q-44 0 -75.5 30.5t-31.5 74.5q0 45 30.5 77.5t75.5 32.5t77 -31t32 -76t-31.5 -76.5t-76.5 -31.5zM280 602q21 0 34 14t13 35q0 20 -14.5 32.5
t-34.5 12.5q-18 0 -31 -14.5t-13 -32.5q0 -19 13.5 -33t32.5 -14z" />
    <glyph glyph-name="ae" unicode="&#xe6;" horiz-adv-x="880" 
d="M633 -15q-122 0 -193 89q-74 -89 -212 -89q-77 0 -135 34q-68 41 -68 113q0 95 103 139q75 32 184 32q35 0 59 -3q2 47 -25 82.5t-73 35.5q-36 0 -81 -34t-73 -34q-21 0 -39 11q-21 12 -21 31q0 48 82 76q63 21 123 21q137 0 193 -81q75 81 208 81q71 0 128 -31
q70 -37 70 -102q0 -100 -130 -134q-68 -18 -209 -18q4 -58 43 -97.5t97 -39.5q45 0 82 18q19 9 52 34q24 18 35 18q32 0 32 -30q0 -51 -94 -90q-78 -32 -138 -32zM525 270q190 0 190 92q0 26 -20 41t-47 15q-52 0 -88 -49q-33 -44 -35 -99zM373 231h-31q-85 0 -125 -39
q-26 -26 -26 -54q0 -30 19.5 -48.5t49.5 -18.5q70 0 98 60q15 32 15 100z" />
    <glyph glyph-name="ccedilla" unicode="&#xe7;" horiz-adv-x="520" 
d="M292 -15l-9 -36q23 5 49 5q35 0 61 -15q32 -17 32 -50q0 -51 -64 -80q-50 -23 -108 -23q-38 0 -83 12q-60 16 -60 42q0 30 26 30q13 0 44 -16q43 -22 80 -22q79 0 79 47q0 31 -46 31q-11 0 -31 -6t-26 -6q-17 0 -17 15q0 14 20 77q-96 16 -156 80.5t-60 160.5
q0 116 79 188q76 70 193 70q66 0 126 -24q79 -32 79 -86q0 -24 -17 -39t-41 -15q-32 0 -71 45.5t-72 45.5q-55 0 -83 -67q-20 -48 -21 -115h1q0 -67 29 -112q35 -52 98 -52q67 0 118 51q25 25 41 25q29 0 29 -31q0 -39 -56 -77q-77 -53 -163 -53z" />
    <glyph glyph-name="egrave" unicode="&#xe8;" horiz-adv-x="560" 
d="M203 172q11 -48 46 -77.5t83 -29.5q68 0 135 60q25 22 41 22q11 0 20 -8t9 -19q0 -46 -81 -93q-72 -42 -166 -42q-108 0 -186 63q-83 67 -83 173q0 121 91 197q86 71 210 71q78 0 136 -33q69 -41 69 -113q0 -138 -324 -171zM194 239q66 5 113 28q64 31 64 87q0 65 -60 65
q-59 0 -92 -64q-29 -54 -25 -116zM260 675l110 -62q40 -23 40 -33q0 -12 -7 -27q-7 -18 -18 -18q-12 0 -70 15l-135 35q-45 12 -45 35q0 21 16 50.5t35 29.5q30 0 74 -25z" />
    <glyph glyph-name="eacute" unicode="&#xe9;" horiz-adv-x="560" 
d="M203 172q11 -48 46 -77.5t83 -29.5q68 0 135 60q25 22 41 22q11 0 20 -8t9 -19q0 -46 -81 -93q-72 -42 -166 -42q-108 0 -186 63q-83 67 -83 173q0 121 91 197q86 71 210 71q78 0 136 -33q69 -41 69 -113q0 -138 -324 -171zM194 239q66 5 113 28q64 31 64 87q0 65 -60 65
q-59 0 -92 -64q-29 -54 -25 -116zM240 613l110 62q44 25 74 25q19 0 35 -29.5t16 -50.5q0 -23 -45 -35l-135 -35q-58 -15 -70 -15q-11 0 -18 18q-7 15 -7 27q0 10 40 33z" />
    <glyph glyph-name="ecircumflex" unicode="&#xea;" horiz-adv-x="560" 
d="M203 172q11 -48 46 -77.5t83 -29.5q68 0 135 60q25 22 41 22q11 0 20 -8t9 -19q0 -46 -81 -93q-72 -42 -166 -42q-108 0 -186 63q-83 67 -83 173q0 121 91 197q86 71 210 71q78 0 136 -33q69 -41 69 -113q0 -138 -324 -171zM194 239q66 5 113 28q64 31 64 87q0 65 -60 65
q-59 0 -92 -64q-29 -54 -25 -116zM149 582l106 119q22 31 35 31h40q14 0 35 -31l106 -119q24 -27 24 -32q0 -10 -32 -11q23 1 -38 1q-33 0 -50 20l-50 60q-7 9 -15 9t-15 -9l-50 -60q-17 -20 -50 -20q-61 0 -38 -1q-32 1 -32 11q0 5 24 32z" />
    <glyph glyph-name="edieresis" unicode="&#xeb;" horiz-adv-x="560" 
d="M203 172q11 -48 46 -77.5t83 -29.5q68 0 135 60q25 22 41 22q11 0 20 -8t9 -19q0 -46 -81 -93q-72 -42 -166 -42q-108 0 -186 63q-83 67 -83 173q0 121 91 197q86 71 210 71q78 0 136 -33q69 -41 69 -113q0 -138 -324 -171zM194 239q66 5 113 28q64 31 64 87q0 65 -60 65
q-59 0 -92 -64q-29 -54 -25 -116zM193 566q-30 0 -53 20.5t-23 50.5q0 31 23 51.5t54 20.5q32 0 53.5 -20t21.5 -52q0 -30 -23 -50.5t-53 -20.5zM427 565q-30 0 -52.5 21.5t-22.5 51.5q0 29 22 49.5t51 20.5q34 0 56.5 -19.5t22.5 -52.5q0 -30 -23.5 -50.5t-53.5 -20.5z" />
    <glyph glyph-name="igrave" unicode="&#xec;" horiz-adv-x="300" 
d="M78 135v148q0 57 -1 62q-5 35 -30.5 49t-25.5 28q0 22 48 36q109 31 131 31q41 0 41 -98v-256q0 -38 2 -51t13 -21q25 -11 25 -31q0 -32 -47 -32h-149q-47 0 -47 32q0 20 25 31q11 8 13 21t2 51zM130 675l110 -62q40 -23 40 -33q0 -12 -7 -27q-7 -18 -18 -18
q-12 0 -70 15l-135 35q-45 12 -45 35q0 21 16 50.5t35 29.5q30 0 74 -25z" />
    <glyph glyph-name="iacute" unicode="&#xed;" horiz-adv-x="300" 
d="M78 135v148q0 57 -1 62q-5 35 -30.5 49t-25.5 28q0 22 48 36q109 31 131 31q41 0 41 -98v-256q0 -38 2 -51t13 -21q25 -11 25 -31q0 -32 -47 -32h-149q-47 0 -47 32q0 20 25 31q11 8 13 21t2 51zM70 613l110 62q44 25 74 25q19 0 35 -29.5t16 -50.5q0 -23 -45 -35
l-135 -35q-58 -15 -70 -15q-11 0 -18 18q-7 15 -7 27q0 10 40 33z" />
    <glyph glyph-name="icircumflex" unicode="&#xee;" horiz-adv-x="300" 
d="M78 135v148q0 57 -1 62q-5 35 -30.5 49t-25.5 28q0 22 48 36q109 31 131 31q41 0 41 -98v-256q0 -38 2 -51t13 -21q25 -11 25 -31q0 -32 -47 -32h-149q-47 0 -47 32q0 20 25 31q11 8 13 21t2 51zM-11 582l106 119q22 31 35 31h40q14 0 35 -31l106 -119q24 -27 24 -32
q0 -10 -32 -11q23 1 -38 1q-33 0 -50 20l-50 60q-7 9 -15 9t-15 -9l-50 -60q-17 -20 -50 -20q-61 0 -38 -1q-32 1 -32 11q0 5 24 32z" />
    <glyph glyph-name="idieresis" unicode="&#xef;" horiz-adv-x="300" 
d="M78 135v148q0 57 -1 62q-5 35 -30.5 49t-25.5 28q0 22 48 36q109 31 131 31q41 0 41 -98v-256q0 -38 2 -51t13 -21q25 -11 25 -31q0 -32 -47 -32h-149q-47 0 -47 32q0 20 25 31q11 8 13 21t2 51zM33 566q-30 0 -53 20.5t-23 50.5q0 31 23 51.5t54 20.5q32 0 53.5 -20
t21.5 -52q0 -30 -23 -50.5t-53 -20.5zM267 565q-30 0 -52.5 21.5t-22.5 51.5q0 29 22 49.5t51 20.5q34 0 56.5 -19.5t22.5 -52.5q0 -30 -23.5 -50.5t-53.5 -20.5z" />
    <glyph glyph-name="eth" unicode="&#xf0;" horiz-adv-x="660" 
d="M198 243q0 -188 112 -187q63 0 100 68q30 56 30 130q0 68 -29 112q-35 53 -99 53q-62 0 -91 -61q-23 -46 -23 -115zM349 585l-193 -69q-31 -11 -48 -11q-24 0 -37 23q-5 9 -5 17q0 27 49 45l148 53q-64 32 -153 32q-60 0 -60 43q0 39 100 39q158 0 261 -61l155 55
q20 7 35 7q28 0 38 -21q5 -11 5 -20q0 -28 -55 -47l-96 -34q122 -113 122 -311q0 -153 -75 -243q-81 -97 -231 -97q-119 0 -198 64q-85 70 -85 186q0 111 82 184q79 70 192 70q79 0 120 -34q-19 88 -71 130z" />
    <glyph glyph-name="ntilde" unicode="&#xf1;" 
d="M561 291v-156q0 -38 2 -51t13 -21q25 -11 25 -31q0 -32 -47 -32h-149q-47 0 -47 32q0 20 25 31q11 8 13 21t2 51v153q0 56 -10 79q-16 38 -64 38q-52 0 -77 -41q-15 -24 -15 -82v-147q0 -38 2 -51t13 -21q25 -11 25 -31q0 -32 -47 -32h-149q-47 0 -47 32q0 20 25 31
q11 8 13 21t2 51v183q0 35 -2 42q-4 15 -26.5 27.5t-22.5 27.5q0 25 65 51q57 23 89 23q34 0 45 -72q59 72 159 72q185 0 185 -198zM143 659q38 45 106 45q34 0 89.5 -27t74.5 -27q21 0 44.5 25t30.5 25q19 0 19 -21q0 -54 -40.5 -88.5t-95.5 -34.5q-34 0 -89.5 27t-74.5 27
q-21 0 -44.5 -25t-30.5 -25q-19 0 -19 31q0 33 30 68z" />
    <glyph glyph-name="ograve" unicode="&#xf2;" 
d="M290 675l110 -62q40 -23 40 -33q0 -12 -7 -27q-7 -18 -18 -18q-12 0 -70 15l-135 35q-45 12 -45 35q0 21 16 50.5t35 29.5q30 0 74 -25zM309 -15q-119 0 -198 64q-85 70 -85 186q0 114 91 187q84 67 201 67q111 0 192 -68q85 -72 85 -181q0 -113 -88 -186
q-83 -69 -198 -69zM310 55q113 0 113 192q0 68 -22 112q-28 59 -89 59q-62 0 -91 -61q-23 -46 -23 -115q0 -187 112 -187z" />
    <glyph glyph-name="oacute" unicode="&#xf3;" 
d="M220 613l110 62q44 25 74 25q19 0 35 -29.5t16 -50.5q0 -23 -45 -35l-135 -35q-58 -15 -70 -15q-11 0 -18 18q-7 15 -7 27q0 10 40 33zM309 -15q-119 0 -198 64q-85 70 -85 186q0 114 91 187q84 67 201 67q111 0 192 -68q85 -72 85 -181q0 -113 -88 -186
q-83 -69 -198 -69zM310 55q113 0 113 192q0 68 -22 112q-28 59 -89 59q-62 0 -91 -61q-23 -46 -23 -115q0 -187 112 -187z" />
    <glyph glyph-name="ocircumflex" unicode="&#xf4;" 
d="M309 -15q-119 0 -198 64q-85 70 -85 186q0 114 91 187q84 67 201 67q111 0 192 -68q85 -72 85 -181q0 -113 -88 -186q-83 -69 -198 -69zM310 55q113 0 113 192q0 68 -22 112q-28 59 -89 59q-62 0 -91 -61q-23 -46 -23 -115q0 -187 112 -187zM149 582l106 119q22 31 35 31
h40q14 0 35 -31l106 -119q24 -27 24 -32q0 -10 -32 -11q23 1 -38 1q-33 0 -50 20l-50 60q-7 9 -15 9t-15 -9l-50 -60q-17 -20 -50 -20q-61 0 -38 -1q-32 1 -32 11q0 5 24 32z" />
    <glyph glyph-name="otilde" unicode="&#xf5;" 
d="M143 659q38 45 106 45q34 0 89.5 -27t74.5 -27q21 0 44.5 25t30.5 25q19 0 19 -21q0 -54 -40.5 -88.5t-95.5 -34.5q-34 0 -89.5 27t-74.5 27q-21 0 -44.5 -25t-30.5 -25q-19 0 -19 31q0 33 30 68zM309 -15q-119 0 -198 64q-85 70 -85 186q0 114 91 187q84 67 201 67
q111 0 192 -68q85 -72 85 -181q0 -113 -88 -186q-83 -69 -198 -69zM310 55q113 0 113 192q0 68 -22 112q-28 59 -89 59q-62 0 -91 -61q-23 -46 -23 -115q0 -187 112 -187z" />
    <glyph glyph-name="odieresis" unicode="&#xf6;" 
d="M309 -15q-119 0 -198 64q-85 70 -85 186q0 114 91 187q84 67 201 67q111 0 192 -68q85 -72 85 -181q0 -113 -88 -186q-83 -69 -198 -69zM310 55q113 0 113 192q0 68 -22 112q-28 59 -89 59q-62 0 -91 -61q-23 -46 -23 -115q0 -187 112 -187zM193 566q-30 0 -53 20.5
t-23 50.5q0 31 23 51.5t54 20.5q32 0 53.5 -20t21.5 -52q0 -30 -23 -50.5t-53 -20.5zM427 565q-30 0 -52.5 21.5t-22.5 51.5q0 29 22 49.5t51 20.5q34 0 56.5 -19.5t22.5 -52.5q0 -30 -23.5 -50.5t-53.5 -20.5z" />
    <glyph glyph-name="divide" unicode="&#xf7;" horiz-adv-x="660" 
d="M78 240v95h504v-95h-504zM330 0q-33 0 -54 21t-21 54t21 54t54 21t54 -21t21 -54t-21 -54t-54 -21zM330 425q-33 0 -54 21t-21 54t21 54t54 21t54 -21t21 -54t-21 -54t-54 -21z" />
    <glyph glyph-name="oslash" unicode="&#xf8;" 
d="M178 19l-33 -45q-15 -21 -26 -21q-23 0 -23 11q0 6 12 23l36 51q-116 70 -116 195q0 114 89 187q83 69 199 69q72 0 126 -31l36 49q15 20 24 20q26 0 26 -10q0 -5 -12 -22l-40 -56q117 -75 117 -201q0 -113 -87 -185q-81 -68 -197 -68q-66 0 -131 34zM411 338l-182 -242
q30 -41 81 -41q115 0 115 189q0 52 -14 94zM209 140l182 240q-31 38 -79 38q-116 0 -116 -180q0 -52 13 -98z" />
    <glyph glyph-name="ugrave" unicode="&#xf9;" 
d="M270 675l110 -62q40 -23 40 -33q0 -12 -7 -27q-7 -18 -18 -18q-12 0 -70 15l-135 35q-45 12 -45 35q0 21 16 50.5t35 29.5q30 0 74 -25zM61 169v166q0 28 -2 38q-5 18 -21 30.5t-16 25.5q0 22 54 39q62 19 105 19t43 -87v-222q0 -52 9 -74q15 -36 59 -36q45 0 73 35
q18 22 18 78v154q0 28 -2 38q-5 18 -21 30.5t-16 25.5q0 22 54 39q62 19 105 19t43 -87v-263q0 -33 2 -42q5 -22 25 -32q25 -12 25 -31q0 -32 -54 -32h-97q-36 0 -45 14q-7 10 -7 48q-67 -77 -170 -77q-97 0 -145 75q-19 29 -19 109z" />
    <glyph glyph-name="uacute" unicode="&#xfa;" 
d="M235 613l110 62q44 25 74 25q19 0 35 -29.5t16 -50.5q0 -23 -45 -35l-135 -35q-58 -15 -70 -15q-11 0 -18 18q-7 15 -7 27q0 10 40 33zM61 169v166q0 28 -2 38q-5 18 -21 30.5t-16 25.5q0 22 54 39q62 19 105 19t43 -87v-222q0 -52 9 -74q15 -36 59 -36q45 0 73 35
q18 22 18 78v154q0 28 -2 38q-5 18 -21 30.5t-16 25.5q0 22 54 39q62 19 105 19t43 -87v-263q0 -33 2 -42q5 -22 25 -32q25 -12 25 -31q0 -32 -54 -32h-97q-36 0 -45 14q-7 10 -7 48q-67 -77 -170 -77q-97 0 -145 75q-19 29 -19 109z" />
    <glyph glyph-name="ucircumflex" unicode="&#xfb;" 
d="M61 169v166q0 28 -2 38q-5 18 -21 30.5t-16 25.5q0 22 54 39q62 19 105 19t43 -87v-222q0 -52 9 -74q15 -36 59 -36q45 0 73 35q18 22 18 78v154q0 28 -2 38q-5 18 -21 30.5t-16 25.5q0 22 54 39q62 19 105 19t43 -87v-263q0 -33 2 -42q5 -22 25 -32q25 -12 25 -31
q0 -32 -54 -32h-97q-36 0 -45 14q-7 10 -7 48q-67 -77 -170 -77q-97 0 -145 75q-19 29 -19 109zM149 582l106 119q22 31 35 31h40q14 0 35 -31l106 -119q24 -27 24 -32q0 -10 -32 -11q23 1 -38 1q-33 0 -50 20l-50 60q-7 9 -15 9t-15 -9l-50 -60q-17 -20 -50 -20
q-61 0 -38 -1q-32 1 -32 11q0 5 24 32z" />
    <glyph glyph-name="udieresis" unicode="&#xfc;" 
d="M61 169v166q0 28 -2 38q-5 18 -21 30.5t-16 25.5q0 22 54 39q62 19 105 19t43 -87v-222q0 -52 9 -74q15 -36 59 -36q45 0 73 35q18 22 18 78v154q0 28 -2 38q-5 18 -21 30.5t-16 25.5q0 22 54 39q62 19 105 19t43 -87v-263q0 -33 2 -42q5 -22 25 -32q25 -12 25 -31
q0 -32 -54 -32h-97q-36 0 -45 14q-7 10 -7 48q-67 -77 -170 -77q-97 0 -145 75q-19 29 -19 109zM183 566q-30 0 -53 20.5t-23 50.5q0 31 23 51.5t54 20.5q32 0 53.5 -20t21.5 -52q0 -30 -23 -50.5t-53 -20.5zM417 565q-30 0 -52.5 21.5t-22.5 51.5q0 29 22 49.5t51 20.5
q34 0 56.5 -19.5t22.5 -52.5q0 -30 -23.5 -50.5t-53.5 -20.5z" />
    <glyph glyph-name="yacute" unicode="&#xfd;" horiz-adv-x="540" 
d="M46 481h130q33 0 44 -4q19 -7 19 -29q0 -7 -17 -27t-17 -44q0 -90 32 -181q40 -113 80 -113t70 123q24 99 24 159q0 25 -3 34q-5 13 -23 24q-21 12 -21 30q0 20 20 26q9 2 37 2h57q31 0 39 -2q24 -4 24 -24q0 -14 -14 -30t-15 -24q-31 -234 -121 -400
q-106 -196 -252 -196q-32 0 -58 15q-31 17 -31 47q0 24 17.5 38.5t41.5 14.5q16 0 43 -11t34 -11q49 0 117 116q-52 -13 -63 -13q-161 0 -209 388q-3 22 -18.5 37.5t-15.5 26.5q0 28 49 28zM250 613l110 62q44 25 74 25q19 0 35 -29.5t16 -50.5q0 -23 -45 -35l-135 -35
q-58 -15 -70 -15q-11 0 -18 18q-7 15 -7 27q0 10 40 33z" />
    <glyph glyph-name="thorn" unicode="&#xfe;" horiz-adv-x="640" 
d="M64 -49v600q0 57 -1 62q-5 35 -30.5 49t-25.5 28q0 22 48 36q109 31 131 31q41 0 41 -98v-229q56 59 149 59q106 0 171 -73q63 -69 63 -177q0 -107 -69 -180.5t-175 -73.5q-36 0 -65 12q-39 16 -39 47q0 25 22 25q8 0 23 -1.5t23 -1.5q56 0 85 59q23 46 23 108
q0 64 -22 110q-29 61 -85 61q-104 0 -104 -127v-326q0 -41 3 -50q5 -14 23 -22q25 -11 25 -31q0 -22 -20 -29q-9 -3 -38 -3h-149q-29 0 -38 3q-20 7 -20 29q0 20 25 31q18 8 23 22q3 9 3 50z" />
    <glyph glyph-name="ydieresis" unicode="&#xff;" horiz-adv-x="540" 
d="M46 481h130q33 0 44 -4q19 -7 19 -29q0 -7 -17 -27t-17 -44q0 -90 32 -181q40 -113 80 -113t70 123q24 99 24 159q0 25 -3 34q-5 13 -23 24q-21 12 -21 30q0 20 20 26q9 2 37 2h57q31 0 39 -2q24 -4 24 -24q0 -14 -14 -30t-15 -24q-31 -234 -121 -400
q-106 -196 -252 -196q-32 0 -58 15q-31 17 -31 47q0 24 17.5 38.5t41.5 14.5q16 0 43 -11t34 -11q49 0 117 116q-52 -13 -63 -13q-161 0 -209 388q-3 22 -18.5 37.5t-15.5 26.5q0 28 49 28zM188 566q-30 0 -53 20.5t-23 50.5q0 31 23 51.5t54 20.5q32 0 53.5 -20t21.5 -52
q0 -30 -23 -50.5t-53 -20.5zM422 565q-30 0 -52.5 21.5t-22.5 51.5q0 29 22 49.5t51 20.5q34 0 56.5 -19.5t22.5 -52.5q0 -30 -23.5 -50.5t-53.5 -20.5z" />
    <glyph glyph-name="Dslash" unicode="&#x110;" horiz-adv-x="820" 
d="M257 575v-149h118q29 0 41 -6q19 -9 19 -38q0 -30 -19 -40q-11 -6 -41 -6h-118v-168q0 -59 10 -75q14 -22 67 -22q120 0 188 86q61 79 61 203q0 127 -62 210q-69 91 -193 91q-50 0 -62 -19q-9 -14 -9 -67zM75 426v179q0 27 -3 37q-6 17 -25 25q-25 11 -25 31q0 34 49 34
h289q186 0 287 -79q131 -103 131 -282q0 -175 -104 -273t-280 -98h-323q-49 0 -49 34q0 20 25 31q20 9 25 25q3 10 3 37v209h-60q-30 0 -41 6q-19 10 -19 40q0 29 19 38q12 6 41 6h60z" />
    <glyph glyph-name="dcroat" unicode="&#x111;" 
d="M391 178v134q0 104 -87 104q-60 0 -90 -64q-22 -48 -22 -116q0 -66 21 -111q28 -60 86 -60q50 0 77 42q15 24 15 71zM556 537h-2v-400q0 -33 2 -42q5 -22 25 -32q25 -12 25 -31q0 -32 -54 -32h-102q-36 0 -45 14q-7 11 -7 48q-46 -77 -147 -77q-102 0 -167 70.5
t-65 173.5q0 111 72 185.5t183 74.5q59 0 117 -33v81h-144q-34 0 -47 6q-21 10 -21 39t21 39q14 6 47 6h140q-3 21 -28 35t-25 28q0 22 48 36q109 31 131 31q41 0 41 -98v-32h2q33 0 47 -6q21 -10 21 -39t-21 -39q-13 -6 -47 -6z" />
    <glyph glyph-name="dotlessi" unicode="&#x131;" horiz-adv-x="300" 
d="M78 135v148q0 57 -1 62q-5 35 -30.5 49t-25.5 28q0 22 48 36q109 31 131 31q41 0 41 -98v-256q0 -38 2 -51t13 -21q25 -11 25 -31q0 -32 -47 -32h-149q-47 0 -47 32q0 20 25 31q11 8 13 21t2 51z" />
    <glyph glyph-name="Lslash" unicode="&#x141;" horiz-adv-x="600" 
d="M77 127v122l-51 -34q-36 -24 -54 -24q-13 0 -21 18q-6 14 -6 29q0 17 38 42l94 63v262q0 27 -1 32q-4 14 -20 24q-32 20 -32 41q0 30 49 30h190q49 0 49 -30q0 -21 -32 -41q-16 -10 -20 -24q-1 -5 -1 -32v-141l117 78q36 24 44 24q40 0 40 -40q0 -23 -41 -50l-160 -106
v-236q0 -42 15 -53q12 -9 56 -9h37q53 0 77 7q35 10 65 43q44 48 65 48q14 0 25 -9.5t11 -23.5q0 -24 -22 -91q-10 -31 -21.5 -38.5t-44.5 -7.5h-449q-49 0 -49 30q0 21 32 41q16 10 20 24q1 5 1 32z" />
    <glyph glyph-name="lslash" unicode="&#x142;" horiz-adv-x="300" 
d="M73 135v167l-42 -28q-25 -17 -37 -17q-15 0 -25.5 12t-10.5 27q0 26 32 47l83 54v154q0 57 -1 62q-5 35 -30.5 49t-25.5 28q0 22 48 36q109 31 131 31q41 0 41 -98v-149l49 32q26 17 37 17q15 0 25.5 -12t10.5 -27q0 -26 -32 -47l-90 -59v-279q0 -41 3 -50q5 -14 23 -22
q25 -11 25 -31q0 -22 -20 -29q-9 -3 -38 -3h-149q-29 0 -38 3q-20 7 -20 29q0 20 25 31q18 8 23 22q3 9 3 50z" />
    <glyph glyph-name="OE" unicode="&#x152;" horiz-adv-x="1200" 
d="M808 356v-173q0 -79 29 -98q20 -12 108 -13q51 0 77 7q35 10 65 43q44 48 65 48q14 0 25 -9.5t11 -23.5q0 -24 -22 -91q-10 -31 -21.5 -38.5t-44.5 -7.5h-714q-163 0 -257.5 94.5t-94.5 257.5q0 152 89 262q96 118 245 118h710q48 0 57 -16q15 -27 15 -91q0 -43 -36 -43
q-19 0 -46 30q-31 35 -70 44q-21 5 -82 5q-48 0 -65 -3q-43 -9 -43 -38v-183h140q35 0 61 18.5t33 18.5q35 0 35 -69q0 -42 -2 -52q-7 -32 -33 -32q-9 0 -35 17.5t-59 17.5h-140zM436 65q107 0 162 101q45 82 45 199q0 121 -42 200q-54 102 -165 102q-107 0 -162 -101
q-45 -82 -45 -199q0 -121 42 -200q54 -102 165 -102z" />
    <glyph glyph-name="oe" unicode="&#x153;" horiz-adv-x="960" 
d="M499 60q-79 -75 -190 -75q-117 0 -198 65q-86 70 -86 185q0 114 87 186q82 68 198 68q118 0 200 -86q89 86 223 86q75 0 132 -34q67 -41 67 -111q0 -158 -335 -164q10 -52 48.5 -82.5t91.5 -30.5q65 0 132 54q29 23 41 23t20.5 -9t8.5 -21q0 -23 -34 -53q-26 -23 -55 -38
q-75 -38 -156 -38q-120 0 -195 75zM590 245q67 -1 121 26q67 33 67 94q0 26 -21 40.5t-48 14.5q-58 0 -92 -61q-28 -52 -27 -114zM196 235q0 -70 22 -116q29 -62 91 -62t92 64q23 48 23 118q0 71 -23 117q-30 61 -93 61q-60 0 -90 -65q-22 -49 -22 -117z" />
    <glyph glyph-name="Scaron" unicode="&#x160;" horiz-adv-x="680" 
d="M150 144q53 -80 173 -80q59 0 103 28q51 32 51 88q0 70 -111 101l-206 58q-111 53 -111 179q0 69 52 133q79 96 245 96q123 0 221 -52q22 -12 27 -29q7 -24 7 -90q0 -41 -37 -41q-19 0 -42 37q-31 49 -53 68q-44 37 -115 37q-48 0 -84 -24q-41 -27 -41 -73
q0 -72 110 -104l204 -59q110 -53 110 -177q0 -95 -75 -168q-90 -87 -246 -87q-160 0 -247 72q-63 52 -63 104q0 22 14 38.5t35 16.5q25 0 47 -25q4 -4 32 -47zM285 806l-106 119q-24 27 -24 32q0 10 32 11q-23 -1 38 -1q33 0 50 -20l50 -60q7 -9 15 -9t15 9l50 60
q17 20 50 20q61 0 38 1q32 -1 32 -11q0 -5 -24 -32l-106 -119q-21 -31 -35 -31h-40q-13 0 -35 31z" />
    <glyph glyph-name="scaron" unicode="&#x161;" horiz-adv-x="500" 
d="M101 11q-79 35 -79 86q0 18 12 32t30 14q17 0 47 -29q38 -38 44 -42q25 -16 58 -16q32 0 56 13q29 17 29 46q0 40 -67 58q-116 31 -126 36q-67 33 -67 110q0 86 75 132q63 38 154 38q100 0 158 -38q21 -14 21 -67q0 -49 -30 -49q-17 0 -34 22q-27 36 -35 42
q-26 22 -69 22q-30 0 -51 -13q-25 -15 -25 -43q0 -35 69 -54q109 -30 128 -40q69 -36 69 -113q0 -84 -79 -132q-67 -41 -156 -41q-74 0 -132 26zM195 561l-106 119q-24 27 -24 32q0 10 32 11q-23 -1 38 -1q33 0 50 -20l50 -60q7 -9 15 -9t15 9l50 60q17 20 50 20q61 0 38 1
q32 -1 32 -11q0 -5 -24 -32l-106 -119q-21 -31 -35 -31h-40q-13 0 -35 31z" />
    <glyph glyph-name="Ydieresis" unicode="&#x178;" horiz-adv-x="740" 
d="M281 127v165q-118 157 -208 319q-13 23 -20.5 31t-31.5 20q-29 15 -29 37t22 29q13 4 54 4h184q53 0 53 -36q0 -15 -22.5 -28t-22.5 -22q0 -46 163 -273q165 206 165 265q0 13 -24 29t-24 31q0 34 53 34h87q32 0 42 -3q22 -6 22 -30q0 -21 -19 -31q-25 -13 -43 -45
q-103 -182 -219 -323v-173q0 -26 3 -36q4 -15 18 -22q32 -17 32 -35q0 -34 -49 -34h-190q-49 0 -49 34q0 20 25 31q20 9 25 25q3 10 3 37zM293 801q-30 0 -53 20.5t-23 50.5q0 31 23 51.5t54 20.5q32 0 53.5 -20t21.5 -52q0 -30 -23 -50.5t-53 -20.5zM527 800
q-30 0 -52.5 21.5t-22.5 51.5q0 29 22 49.5t51 20.5q34 0 56.5 -19.5t22.5 -52.5q0 -30 -23.5 -50.5t-53.5 -20.5z" />
    <glyph glyph-name="Zcaron" unicode="&#x17d;" 
d="M105 732h431q38 0 50 -5q20 -8 20 -35q0 -54 -98 -202q-46 -71 -181 -254q-98 -133 -98 -149q0 -10 26 -10h99q62 0 96 9q47 12 82 49q29 30 47 30q34 0 34 -32q0 -13 -12 -89q-5 -30 -19 -39q-8 -5 -35 -5h-449q-83 0 -83 53q0 63 210 342q170 226 170 254q0 11 -45 11
q-98 0 -120 -3q-44 -6 -76 -28q-13 -9 -40 -37q-18 -19 -32 -19q-35 0 -35 33q0 77 13 110q6 16 45 16zM265 806l-106 119q-24 27 -24 32q0 10 32 11q-23 -1 38 -1q33 0 50 -20l50 -60q7 -9 15 -9t15 9l50 60q17 20 50 20q61 0 38 1q32 -1 32 -11q0 -5 -24 -32l-106 -119
q-21 -31 -35 -31h-40q-13 0 -35 31z" />
    <glyph glyph-name="zcaron" unicode="&#x17e;" horiz-adv-x="500" 
d="M401 0h-307q-77 0 -77 45q0 33 42 87l224 286h-75q-38 0 -56 -6q-26 -9 -44 -35q-23 -33 -41 -33q-27 0 -27 31q0 47 15 87q7 19 49 19h303q38 0 50 -5q18 -8 18 -33q0 -35 -58 -111l-201 -264h75q46 0 68 8q30 11 52 44q18 27 37 27q26 0 26 -26q0 -45 -16 -92
q-10 -29 -57 -29zM195 561l-106 119q-24 27 -24 32q0 10 32 11q-23 -1 38 -1q33 0 50 -20l50 -60q7 -9 15 -9t15 9l50 60q17 20 50 20q61 0 38 1q32 -1 32 -11q0 -5 -24 -32l-106 -119q-21 -31 -35 -31h-40q-13 0 -35 31z" />
    <glyph glyph-name="florin" unicode="&#x192;" horiz-adv-x="680" 
d="M276 403h-33q-46 0 -59 5q-20 8 -20 34q0 39 64 39h60q18 156 111 245q78 75 169 75q112 0 112 -92q0 -26 -15.5 -45t-41.5 -19t-55 32.5t-44 32.5q-28 0 -44 -56q-11 -39 -32 -173h32q43 0 57 -5q22 -8 22 -32q0 -27 -21 -35q-13 -5 -44 -5h-55q-35 -248 -62 -351
q-23 -88 -64 -142q-88 -117 -222 -117q-57 0 -101 25q-54 30 -54 83q0 27 17.5 47.5t44.5 20.5t62 -43.5t67 -43.5q45 0 72 85q10 33 29 144z" />
    <glyph glyph-name="circumflex" unicode="&#x2c6;" horiz-adv-x="520" 
d="M99 582l106 119q22 31 35 31h40q14 0 35 -31l106 -119q24 -27 24 -32q0 -10 -32 -11q23 1 -38 1q-33 0 -50 20l-50 60q-7 9 -15 9t-15 -9l-50 -60q-17 -20 -50 -20q-61 0 -38 -1q-32 1 -32 11q0 5 24 32z" />
    <glyph glyph-name="caron" unicode="&#x2c7;" horiz-adv-x="520" 
d="M205 561l-106 119q-24 27 -24 32q0 10 32 11q-23 -1 38 -1q33 0 50 -20l50 -60q7 -9 15 -9t15 9l50 60q17 20 50 20q61 0 38 1q32 -1 32 -11q0 -5 -24 -32l-106 -119q-21 -31 -35 -31h-40q-13 0 -35 31z" />
    <glyph glyph-name="macron" unicode="&#x2c9;" horiz-adv-x="440" 
d="M299 584h-153q-40 0 -51 6q-18 10 -18 45q0 30 18 40q12 6 45 6h155q38 0 49 -5q20 -9 20 -43t-17 -43q-11 -6 -48 -6z" />
    <glyph glyph-name="breve" unicode="&#x2d8;" horiz-adv-x="500" 
d="M412 727q19 0 19 -25q0 -40 -39 -83q-54 -60 -143 -60q-62 0 -119 40q-62 45 -62 105q0 28 21 28q12 0 31 -25q25 -33 45 -47q36 -25 88 -25q44 0 74 17q25 15 55 52q17 23 30 23z" />
    <glyph glyph-name="dotaccent" unicode="&#x2d9;" horiz-adv-x="300" 
d="M147 544q-37 0 -64 19q-30 22 -30 57q0 38 29 60.5t68 22.5q41 0 67 -19q30 -22 30 -61q0 -36 -33 -59q-29 -20 -67 -20z" />
    <glyph glyph-name="ring" unicode="&#x2da;" horiz-adv-x="360" 
d="M180 542q-44 0 -75.5 30.5t-31.5 74.5q0 45 30.5 77.5t75.5 32.5t77 -31t32 -76t-31.5 -76.5t-76.5 -31.5zM180 602q21 0 34 14t13 35q0 20 -14.5 32.5t-34.5 12.5q-18 0 -31 -14.5t-13 -32.5q0 -19 13.5 -33t32.5 -14z" />
    <glyph glyph-name="ogonek" unicode="&#x2db;" horiz-adv-x="340" 
d="M116 0h74q-51 -48 -51 -79q0 -15 12 -25.5t27 -10.5t36.5 10.5t27.5 10.5q17 0 17 -15q0 -24 -39 -39q-31 -12 -57 -12q-36 0 -61 18q-29 20 -29 55q0 47 43 87z" />
    <glyph glyph-name="tilde" unicode="&#x2dc;" horiz-adv-x="540" 
d="M103 659q38 45 106 45q34 0 89.5 -27t74.5 -27q21 0 44.5 25t30.5 25q19 0 19 -21q0 -54 -40.5 -88.5t-95.5 -34.5q-34 0 -89.5 27t-74.5 27q-21 0 -44.5 -25t-30.5 -25q-19 0 -19 31q0 33 30 68z" />
    <glyph glyph-name="hungarumlaut" unicode="&#x2dd;" horiz-adv-x="600" 
d="M120 605l90 80q53 47 75 47q15 0 32.5 -23t17.5 -39q0 -21 -35 -40l-110 -60q-46 -25 -60 -25q-9 0 -19.5 10.5t-10.5 19.5q0 12 20 30zM360 605l90 80q53 47 75 47q15 0 32.5 -23t17.5 -39q0 -21 -35 -40l-110 -60q-46 -25 -60 -25q-9 0 -19.5 10.5t-10.5 19.5
q0 12 20 30z" />
    <glyph glyph-name="mu" unicode="&#x3bc;" 
d="M61 100v235q0 28 -2 38q-5 18 -21 30.5t-16 25.5q0 22 54 39q62 19 105 19t43 -87v-222q0 -52 9 -74q15 -36 59 -36q45 0 73 35q18 22 18 78v154q0 28 -2 38q-5 18 -21 30.5t-16 25.5q0 22 54 39q62 19 105 19t43 -87v-263q0 -33 2 -42q5 -22 25 -32q25 -12 25 -31
q0 -32 -54 -32h-97q-36 0 -45 14q-7 10 -7 48q-23 -27 -66 -51q-46 -26 -79 -26q-30 0 -50 20q0 -23 12 -65.5t12 -64.5q0 -34 -29 -53q-25 -17 -60 -17q-85 0 -85 85q0 35 5.5 105t5.5 105z" />
    <glyph glyph-name="endash" unicode="&#x2013;" horiz-adv-x="500" 
d="M425 226h-350q-38 0 -52 11q-18 13 -18 50q0 36 18 49q15 11 52 11h350q37 0 53.5 -12t16.5 -48q0 -37 -18 -50q-14 -11 -52 -11z" />
    <glyph glyph-name="emdash" unicode="&#x2014;" horiz-adv-x="1000" 
d="M925 226h-850q-38 0 -52 11q-18 13 -18 50q0 36 18 49q15 11 52 11h850q37 0 53.5 -12t16.5 -48q0 -37 -18 -50q-14 -11 -52 -11z" />
    <glyph glyph-name="quoteleft" unicode="&#x2018;" horiz-adv-x="320" 
d="M156 610q15 3 30 3q31 0 52 -19.5t21 -50.5q0 -37 -28 -58t-66 -21q-45 0 -74 29t-29 74q0 69 61 134q53 56 82 56q26 0 26 -21q-20 -24 -34 -45q-36 -50 -41 -81z" />
    <glyph glyph-name="quoteright" unicode="&#x2019;" horiz-adv-x="320" 
d="M164 611q-15 -3 -30 -3q-31 0 -52 19.5t-21 50.5q0 37 28 58t66 21q45 0 74 -29t29 -74q0 -69 -61 -134q-53 -56 -82 -56q-26 0 -26 21q0 26 35.5 64.5t39.5 61.5z" />
    <glyph glyph-name="quotesinglbase" unicode="&#x201a;" horiz-adv-x="340" 
d="M174 0q-15 -3 -30 -3q-31 0 -52 19.5t-21 50.5q0 37 28 58t66 21q45 0 74 -29t29 -74q0 -69 -61 -134q-53 -56 -82 -56q-26 0 -26 21q0 26 35.5 64.5t39.5 61.5z" />
    <glyph glyph-name="quotedblleft" unicode="&#x201c;" horiz-adv-x="540" 
d="M156 610q15 3 30 3q31 0 52 -19.5t21 -50.5q0 -37 -28 -58t-66 -21q-45 0 -74 29t-29 74q0 69 61 134q53 56 82 56q26 0 26 -21q-20 -24 -34 -45q-36 -50 -41 -81zM376 610q15 3 30 3q31 0 52 -19.5t21 -50.5q0 -37 -28 -58t-66 -21q-45 0 -74 29t-29 74q0 69 61 134
q53 56 82 56q26 0 26 -21q-20 -24 -34 -45q-36 -50 -41 -81z" />
    <glyph glyph-name="quotedblright" unicode="&#x201d;" horiz-adv-x="540" 
d="M164 611q-15 -3 -30 -3q-31 0 -52 19.5t-21 50.5q0 37 28 58t66 21q45 0 74 -29t29 -74q0 -69 -61 -134q-53 -56 -82 -56q-26 0 -26 21q0 26 35.5 64.5t39.5 61.5zM384 611q-15 -3 -30 -3q-31 0 -52 19.5t-21 50.5q0 37 28 58t66 21q45 0 74 -29t29 -74q0 -69 -61 -134
q-53 -56 -82 -56q-26 0 -26 21q0 26 35.5 64.5t39.5 61.5z" />
    <glyph glyph-name="quotedblbase" unicode="&#x201e;" horiz-adv-x="540" 
d="M164 0q-15 -3 -30 -3q-31 0 -52 19.5t-21 50.5q0 37 28 58t66 21q45 0 74 -29t29 -74q0 -69 -61 -134q-53 -56 -82 -56q-26 0 -26 21q0 26 35.5 64.5t39.5 61.5zM384 0q-15 -3 -30 -3q-31 0 -52 19.5t-21 50.5q0 37 28 58t66 21q45 0 74 -29t29 -74q0 -69 -61 -134
q-53 -56 -82 -56q-26 0 -26 21q0 26 35.5 64.5t39.5 61.5z" />
    <glyph glyph-name="dagger" unicode="&#x2020;" horiz-adv-x="520" 
d="M304 444l22 -133l-33 -444q-2 -23 -5 -32q-6 -17 -25 -17q-27 0 -30 32l-38 461l28 133l-107 -17q-39 -6 -64 7q-29 15 -29 54q0 34 27 50q23 13 58 8l115 -18l-18 129q-13 95 61 95q71 0 59 -88l-19 -136l107 18q44 7 65 -6q29 -19 29 -55q0 -34 -29 -52q-20 -13 -64 -6
z" />
    <glyph glyph-name="daggerdbl" unicode="&#x2021;" horiz-adv-x="520" 
d="M204 93l20 121q-126 -21 -134 -21q-30 0 -48.5 17t-18.5 46t18.5 46t48.5 17q5 0 136 -21l-19 83l19 85q-131 -21 -141 -21q-28 0 -45 17.5t-17 45.5t17 45.5t45 17.5q13 0 139 -21q-21 133 -21 140q0 25 18.5 43.5t43.5 18.5t43.5 -18.5t18.5 -43.5q0 -7 -21 -140
q126 21 139 21q28 0 45 -17.5t17 -45.5t-17 -45.5t-45 -17.5q-10 0 -141 21l19 -85l-19 -83l136 21q30 0 48.5 -17t18.5 -46t-18.5 -46t-48.5 -17q-8 0 -134 21l20 -121l-32 -277q-4 -34 -29 -34t-29 34z" />
    <glyph glyph-name="bullet" unicode="&#x2022;" horiz-adv-x="280" 
d="M143 246q-57 0 -99 31q-47 34 -47 89q0 56 46 90q41 31 99 31q55 0 96 -33q45 -35 45 -89q0 -53 -45 -87q-41 -32 -95 -32z" />
    <glyph glyph-name="ellipsis" unicode="&#x2026;" horiz-adv-x="1000" 
d="M169 -15q-37 0 -67 22t-30 58q0 37 29 59t67 22q37 0 65.5 -23t28.5 -59q0 -35 -28.5 -57t-64.5 -22zM501 -15q-37 0 -65 21q-31 23 -31 59q0 37 29 59t67 22q37 0 65.5 -23t28.5 -59q0 -35 -29 -57t-65 -22zM835 -15q-38 0 -66 21q-31 23 -31 59q0 37 29 59t67 22
q37 0 65.5 -23t28.5 -59q0 -35 -28.5 -57t-64.5 -22z" />
    <glyph glyph-name="perthousand" unicode="&#x2030;" horiz-adv-x="1400" 
d="M217 342q72 0 72 191q0 171 -71 171t-71 -176q0 -186 70 -186zM758 698l-485 -666q-20 -28 -25 -31q-11 -7 -38 -7q-39 0 -39 16q0 6 19 32l453 618q-62 -35 -128 -35q-73 0 -132 35q38 -56 38 -136q0 -101 -52 -162q-55 -66 -154 -66q-94 0 -149 70q-51 64 -51 161
q0 95 53 157q57 66 150 66q52 0 153.5 -35t143.5 -35q50 0 121.5 30.5t93.5 30.5q43 0 43 -12q0 -10 -15 -31zM724 -15q-94 0 -149 70q-51 64 -51 161q0 95 53 157q57 66 150 66q94 0 150 -67q53 -62 53 -158q0 -100 -52 -162q-56 -67 -154 -67zM726 31q72 0 72 191
q0 172 -71 172t-71 -183q0 -180 70 -180zM1184 -15q-94 0 -149 70q-51 64 -51 161q0 95 53 157q57 66 150 66q94 0 150 -67q53 -62 53 -158q0 -100 -52 -162q-56 -67 -154 -67zM1184 31q72 0 72 191q0 172 -71 172t-71 -183q0 -180 70 -180z" />
    <glyph glyph-name="guilsinglleft" unicode="&#x2039;" horiz-adv-x="220" 
d="M127 265l57 -103q21 -38 21 -48q0 -19 -54 -19q-36 0 -52 29l-64 116q-14 25 -14 50t14 50l64 116q16 29 52 29q54 0 54 -19q0 -10 -21 -48l-57 -103q-6 -11 -6 -25t6 -25z" />
    <glyph glyph-name="guilsinglright" unicode="&#x203a;" horiz-adv-x="220" 
d="M93 315l-57 103q-21 38 -21 48q0 19 54 19q36 0 52 -29l64 -116q14 -25 14 -50t-14 -50l-64 -116q-16 -29 -52 -29q-54 0 -54 19q0 10 21 48l57 103q6 11 6 25t-6 25z" />
    <glyph glyph-name="fraction" unicode="&#x2044;" horiz-adv-x="160" 
d="M311 706l-394 -668q-15 -25 -21 -30q-10 -8 -34 -8q-33 0 -33 16q0 5 16 32l397 667q13 22 22 28.5t32 6.5q30 0 30 -13q0 -6 -15 -31z" />
    <glyph glyph-name="dong" unicode="&#x20ab;" horiz-adv-x="382" 
d="M243 363v88q0 68 -57 68q-39 0 -59 -41q-15 -32 -15 -77q0 -112 71 -112q60 0 60 74zM351 598h-1v-262q0 -21 1 -27q3 -13 18 -22t15 -19q0 -21 -36 -21h-66q-23 0 -28.5 8t-5.5 32q-31 -50 -97 -50q-67 0 -109.5 46t-42.5 114q0 73 47 121.5t120 48.5q39 0 77 -21v52
h-94q-45 0 -45 30t45 30h92q-3 14 -19 23t-16 18q0 15 31 24q71 20 86 20q27 0 27 -64v-21h1q45 0 45 -30t-45 -30zM25 197h316v-32h-316v32z" />
    <glyph glyph-name="trademark" unicode="&#x2122;" horiz-adv-x="840" 
d="M433 386l9 280q0 3 -19 13.5t-19 25.5q0 18 14 24q7 3 31 3h51q34 0 42 -13l5 -17q30 -102 68 -197q17 34 65 187q10 33 32 39q5 1 57 1q31 0 40 -3q13 -4 13 -19q0 -18 -19 -26q-13 -6 -13 -32v-26l13 -274q0 -10 18.5 -20.5t18.5 -24.5q0 -27 -35 -27h-99q-37 0 -37 26
q0 18 29 28q16 5 15 30l-8 226q-33 -86 -65 -180q-19 -56 -35 -56q-21 0 -29 17q-26 52 -81 219l-5 -220q-1 -28 19 -35q30 -10 30 -29q0 -18 -18 -23q-11 -3 -62 -3q-41 0 -50 3q-14 5 -14 24q0 14 23 27q14 8 15 52zM85 732h258q35 0 39 -26l11 -70q0 -23 -23 -23
q-12 0 -20 18q-20 46 -74 46q-16 0 -16 -18v-288q0 -31 13 -36q27 -9 27 -28q0 -27 -36 -27h-101q-35 0 -35 27q0 20 22 26q18 5 18 38v288q0 18 -16 18q-54 0 -74 -46q-8 -18 -25 -18q-18 0 -18 23q1 8 11 70q4 26 39 26z" />
    <glyph glyph-name="minus" unicode="&#x2212;" horiz-adv-x="660" 
d="M78 240v95h504v-95h-504z" />
    <glyph glyph-name="periodcentered" unicode="&#x2219;" horiz-adv-x="340" 
d="M172 207q-37 0 -67 22t-30 58q0 38 30 60q27 20 66 20q36 0 65 -23t29 -58t-28.5 -57t-64.5 -22z" />
    <glyph glyph-name="lessequal" unicode="&#x2264;" horiz-adv-x="380" 
d="M100 613l110 62q44 25 74 25q19 0 35 -29.5t16 -50.5q0 -23 -45 -35l-135 -35q-58 -15 -70 -15q-11 0 -18 18q-7 15 -7 27q0 10 40 33z" />
    <glyph glyph-name="greaterequal" unicode="&#x2265;" horiz-adv-x="380" 
d="M170 675l110 -62q40 -23 40 -33q0 -12 -7 -27q-7 -18 -18 -18q-12 0 -70 15l-135 35q-45 12 -45 35q0 21 16 50.5t35 29.5q30 0 74 -25z" />
    <glyph glyph-name="glyph234" horiz-adv-x="540" 
d="M233 -15q-35 0 -62 20q-30 22 -30 55q0 36 31 57q27 19 65 19q36 0 65 -21t29 -56t-33 -56q-28 -18 -65 -18zM182 281v46q0 41 4 49q6 12 38 30q57 32 83 68q28 41 28 103q0 117 -89 117q-70 0 -68 -70q2 -74 -74 -74q-29 0 -49 16t-20 44q0 72 81 114q64 33 145 33
q106 0 175 -47q79 -55 79 -157q0 -86 -67 -147q-38 -34 -137 -78q-23 -10 -29 -27q-5 -12 -5 -41.5t-6 -42.5q-10 -18 -37 -18q-38 0 -48 24q-4 10 -4 58z" />
    <glyph glyph-name="house" unicode="&#x2302;" horiz-adv-x="340" 
d="M172 -15q-37 0 -67 22t-30 58q0 37 29 59t67 22q37 0 65.5 -23t28.5 -59q0 -35 -28.5 -57t-64.5 -22z" />
    <glyph glyph-name="SF260000" unicode="&#x255d;" horiz-adv-x="740" 
d="M461 237h-280q-38 -94 -38 -134q0 -21 26 -38t26 -33q0 -32 -65 -32h-82q-57 0 -57 34q0 16 21 30q15 10 18 13q7 7 12 19q82 294 250 607q14 26 33 33q12 4 49 4t48 -6q8 -6 23 -34q126 -239 250 -605q6 -18 30 -32q19 -11 19 -29q0 -34 -51 -34h-169q-61 0 -61 32
q0 15 21.5 29t21.5 22q0 31 -45 154zM209 319h224q-57 166 -111 265q-65 -129 -113 -265z" />
    <glyph glyph-name="SF360000" unicode="&#x255e;" horiz-adv-x="660" 
d="M257 356v-173q0 -81 34 -99q20 -11 114 -12q51 0 77 7q35 10 65 43q44 48 65 48q14 0 25 -9.5t11 -23.5q0 -24 -22 -91q-10 -31 -21.5 -38.5t-44.5 -7.5h-489q-49 0 -49 34q0 20 25 31q20 9 25 25q3 10 3 37v478q0 33 -3 42q-4 13 -20 17q-30 8 -30 34q0 34 49 34h467
q48 0 57 -16q15 -27 15 -91q0 -43 -36 -43q-19 0 -46 30q-32 36 -75 45q-19 4 -88 4q-48 0 -65 -3q-43 -9 -43 -38v-183h151q35 0 61 18.5t33 18.5q35 0 35 -69q0 -42 -2 -52q-7 -32 -33 -32q-9 0 -35 17.5t-59 17.5h-151z" />
    <glyph glyph-name="SF370000" unicode="&#x255f;" horiz-adv-x="340" 
d="M76 127v478q0 33 -3 42q-4 13 -20 17q-30 8 -30 34q0 34 49 34h190q49 0 49 -34q0 -16 -20 -28q-23 -14 -27 -23q-6 -13 -6 -42v-478q0 -26 3 -36q4 -15 18 -22q32 -17 32 -35q0 -34 -49 -34h-190q-49 0 -49 34q0 20 25 31q20 9 25 25q3 10 3 37z" />
    <glyph glyph-name="SF420000" unicode="&#x2560;" horiz-adv-x="860" 
d="M424 -15q-153 0 -266 98q-125 109 -125 285q0 166 115 274q112 105 279 105q170 0 283 -104q117 -106 117 -275q0 -165 -120 -276q-116 -107 -283 -107zM428 61q108 0 162 103q42 80 42 200q0 119 -42 201q-54 106 -161 106q-103 0 -157 -104q-44 -83 -44 -196
q0 -117 41 -201q53 -109 159 -109z" />
    <glyph glyph-name="SF190000" unicode="&#x2561;" horiz-adv-x="760" 
d="M67 732h200q49 0 49 -32q0 -22 -29 -34q-22 -9 -29 -23q-5 -10 -7 -37q-11 -168 -11 -316q0 -228 181 -228q179 0 179 232q0 72 -6 168q-4 68 -9 166q0 16 -9 24q-16 9 -32 19q-20 11 -20 28q0 33 59 33h87q59 0 59 -33q0 -17 -20 -29q-31 -18 -32 -19q-8 -8 -8 -28
q0 -55 8 -164.5t8 -164.5q0 -161 -76.5 -235t-236.5 -74q-314 0 -314 315q0 51 6.5 152t6.5 152q0 33 -3 42q-4 13 -20 17q-30 8 -30 34q0 35 49 35z" />
    <glyph glyph-name="SF200000" unicode="&#x2562;" horiz-adv-x="740" 
d="M281 127v165q-118 157 -208 319q-13 23 -20.5 31t-31.5 20q-29 15 -29 37t22 29q13 4 54 4h184q53 0 53 -36q0 -15 -22.5 -28t-22.5 -22q0 -46 163 -273q165 206 165 265q0 13 -24 29t-24 31q0 34 53 34h87q32 0 42 -3q22 -6 22 -30q0 -21 -19 -31q-25 -13 -43 -45
q-103 -182 -219 -323v-173q0 -26 3 -36q4 -15 18 -22q32 -17 32 -35q0 -34 -49 -34h-190q-49 0 -49 34q0 20 25 31q20 9 25 25q3 10 3 37z" />
    <glyph glyph-name="SF230000" unicode="&#x2563;" horiz-adv-x="580" 
d="M516 295v-158q0 -36 3 -50t16 -20q33 -16 33 -35q0 -32 -54 -32h-104q-35 0 -44 14q-6 10 -6 48q-47 -77 -155 -77q-75 0 -125 39q-55 43 -55 116q0 95 104 142q78 35 186 35h34q0 105 -93 105q-26 0 -65.5 -32t-67.5 -32q-62 0 -62 48q0 45 85 68q56 15 122 15
q248 0 248 -194zM354 254h-18q-59 0 -98 -27q-45 -31 -45 -88q0 -30 17 -51t46 -21q46 0 77 48q18 28 21 67v72z" />
    <glyph glyph-name="SF470000" unicode="&#x2564;" horiz-adv-x="560" 
d="M203 172q11 -48 46 -77.5t83 -29.5q68 0 135 60q25 22 41 22q11 0 20 -8t9 -19q0 -46 -81 -93q-72 -42 -166 -42q-108 0 -186 63q-83 67 -83 173q0 121 91 197q86 71 210 71q78 0 136 -33q69 -41 69 -113q0 -138 -324 -171zM194 239q66 5 113 28q64 31 64 87q0 65 -60 65
q-59 0 -92 -64q-29 -54 -25 -116z" />
    <glyph glyph-name="SF480000" unicode="&#x2565;" horiz-adv-x="300" 
d="M143 546q-36 0 -64 19q-31 21 -31 56q0 38 29 61t68 23t68.5 -21t29.5 -59q0 -37 -33 -59q-29 -20 -67 -20zM78 135v148q0 57 -1 62q-5 35 -30.5 49t-25.5 28q0 22 48 36q109 31 131 31q41 0 41 -98v-256q0 -38 2 -51t13 -21q25 -11 25 -31q0 -32 -47 -32h-149
q-47 0 -47 32q0 20 25 31q11 8 13 21t2 51z" />
    <glyph glyph-name="SF410000" unicode="&#x2566;" 
d="M309 -15q-119 0 -198 64q-85 70 -85 186q0 114 91 187q84 67 201 67q111 0 192 -68q85 -72 85 -181q0 -113 -88 -186q-83 -69 -198 -69zM310 55q113 0 113 192q0 68 -22 112q-28 59 -89 59q-62 0 -91 -61q-23 -46 -23 -115q0 -187 112 -187z" />
    <glyph glyph-name="SF450000" unicode="&#x2567;" 
d="M61 169v166q0 28 -2 38q-5 18 -21 30.5t-16 25.5q0 22 54 39q62 19 105 19t43 -87v-222q0 -52 9 -74q15 -36 59 -36q45 0 73 35q18 22 18 78v154q0 28 -2 38q-5 18 -21 30.5t-16 25.5q0 22 54 39q62 19 105 19t43 -87v-263q0 -33 2 -42q5 -22 25 -32q25 -12 25 -31
q0 -32 -54 -32h-97q-36 0 -45 14q-7 10 -7 48q-67 -77 -170 -77q-97 0 -145 75q-19 29 -19 109z" />
    <glyph glyph-name="SF460000" unicode="&#x2568;" horiz-adv-x="540" 
d="M46 481h130q33 0 44 -4q19 -7 19 -29q0 -7 -17 -27t-17 -44q0 -90 32 -181q40 -113 80 -113t70 123q24 99 24 159q0 25 -3 34q-5 13 -23 24q-21 12 -21 30q0 20 20 26q9 2 37 2h57q31 0 39 -2q24 -4 24 -24q0 -14 -14 -30t-15 -24q-31 -234 -121 -400
q-106 -196 -252 -196q-32 0 -58 15q-31 17 -31 47q0 24 17.5 38.5t41.5 14.5q16 0 43 -11t34 -11q49 0 117 116q-52 -13 -63 -13q-161 0 -209 388q-3 22 -18.5 37.5t-15.5 26.5q0 28 49 28z" />
    <glyph glyph-name="triaglf" unicode="&#x25c4;" horiz-adv-x="540" 
d="M175 556v19q0 16 2 20.5t15 11.5q46 25 46 70q0 48 -37 48q-29 0 -28 -29.5t-30 -29.5q-29 0 -29 24q0 35 34 64q26 23 60 23q58 0 92 -34q27 -28 27 -76q0 -35 -28 -60q-16 -15 -55 -32q-14 -6 -14 -28q0 -12 -2 -17q-4 -8 -23 -8q-25 0 -29 10q-1 4 -1 24z" />
    <glyph glyph-name="lozenge" unicode="&#x25ca;" horiz-adv-x="580" 
d="M129 582l106 119q22 31 35 31h40q14 0 35 -31l106 -119q24 -27 24 -32q0 -10 -32 -11q23 1 -38 1q-33 0 -50 20l-50 60q-7 9 -15 9t-15 -9l-50 -60q-17 -20 -50 -20q-61 0 -38 -1q-32 1 -32 11q0 5 24 32zM173 835l110 62q44 25 74 25q19 0 35 -29.5t16 -50.5
q0 -23 -45 -35l-135 -35q-58 -15 -70 -15q-11 0 -18 18q-7 15 -7 27q0 10 40 33z" />
    <glyph glyph-name="circle" unicode="&#x25cb;" horiz-adv-x="580" 
d="M129 582l106 119q22 31 35 31h40q14 0 35 -31l106 -119q24 -27 24 -32q0 -10 -32 -11q23 1 -38 1q-33 0 -50 20l-50 60q-7 9 -15 9t-15 -9l-50 -60q-17 -20 -50 -20q-61 0 -38 -1q-32 1 -32 11q0 5 24 32zM296 898l110 -62q40 -23 40 -33q0 -12 -7 -27q-7 -18 -18 -18
q-12 0 -70 15l-135 35q-45 12 -45 35q0 21 16 50.5t35 29.5q30 0 74 -25z" />
    <glyph glyph-name="H18533" unicode="&#x25cf;" horiz-adv-x="580" 
d="M129 582l106 119q22 31 35 31h40q14 0 35 -31l106 -119q24 -27 24 -32q0 -10 -32 -11q23 1 -38 1q-33 0 -50 20l-50 60q-7 9 -15 9t-15 -9l-50 -60q-17 -20 -50 -20q-61 0 -38 -1q-32 1 -32 11q0 5 24 32zM397 696v19q0 16 2 20.5t15 11.5q46 25 46 70q0 48 -37 48
q-29 0 -28 -29.5t-30 -29.5q-29 0 -29 24q0 35 34 64q26 23 60 23q58 0 92 -34q27 -28 27 -76q0 -35 -28 -60q-16 -15 -55 -32q-14 -6 -14 -28q0 -12 -2 -17q-4 -8 -23 -8q-25 0 -29 10q-1 4 -1 24z" />
    <glyph glyph-name="invbullet" unicode="&#x25d8;" horiz-adv-x="580" 
d="M129 582l106 119q22 31 35 31h40q14 0 35 -31l106 -119q24 -27 24 -32q0 -10 -32 -11q23 1 -38 1q-33 0 -50 20l-50 60q-7 9 -15 9t-15 -9l-50 -60q-17 -20 -50 -20q-61 0 -38 -1q-32 1 -32 11q0 5 24 32zM191 873q38 45 106 45q34 0 89.5 -27t74.5 -27q21 0 44.5 25
t30.5 25q19 0 19 -21q0 -54 -40.5 -88.5t-95.5 -34.5q-34 0 -89.5 27t-74.5 27q-21 0 -44.5 -25t-30.5 -25q-19 0 -19 31q0 33 30 68z" />
    <glyph glyph-name="invcircle" unicode="&#x25d9;" horiz-adv-x="580" 
d="M451 727q19 0 19 -25q0 -40 -39 -83q-54 -60 -143 -60q-62 0 -119 40q-62 45 -62 105q0 28 21 28q12 0 31 -25q25 -33 45 -47q36 -25 88 -25q44 0 74 17q25 15 55 52q17 23 30 23zM205 835l110 62q44 25 74 25q19 0 35 -29.5t16 -50.5q0 -23 -45 -35l-135 -35
q-58 -15 -70 -15q-11 0 -18 18q-7 15 -7 27q0 10 40 33z" />
    <glyph glyph-name="openbullet" unicode="&#x25e6;" horiz-adv-x="580" 
d="M451 727q19 0 19 -25q0 -40 -39 -83q-54 -60 -143 -60q-62 0 -119 40q-62 45 -62 105q0 28 21 28q12 0 31 -25q25 -33 45 -47q36 -25 88 -25q44 0 74 17q25 15 55 52q17 23 30 23zM264 898l110 -62q40 -23 40 -33q0 -12 -7 -27q-7 -18 -18 -18q-12 0 -70 15l-135 35
q-45 12 -45 35q0 21 16 50.5t35 29.5q30 0 74 -25z" />
    <glyph glyph-name="glyph255" horiz-adv-x="580" 
d="M451 727q19 0 19 -25q0 -40 -39 -83q-54 -60 -143 -60q-62 0 -119 40q-62 45 -62 105q0 28 21 28q12 0 31 -25q25 -33 45 -47q36 -25 88 -25q44 0 74 17q25 15 55 52q17 23 30 23zM251 696v19q0 16 2 20.5t15 11.5q46 25 46 70q0 48 -37 48q-29 0 -28 -29.5t-30 -29.5
q-29 0 -29 24q0 35 34 64q26 23 60 23q58 0 92 -34q27 -28 27 -76q0 -35 -28 -60q-16 -15 -55 -32q-14 -6 -14 -28q0 -12 -2 -17q-4 -8 -23 -8q-25 0 -29 10q-1 4 -1 24z" />
    <glyph glyph-name="smileface" unicode="&#x263a;" horiz-adv-x="580" 
d="M451 727q19 0 19 -25q0 -40 -39 -83q-54 -60 -143 -60q-62 0 -119 40q-62 45 -62 105q0 28 21 28q12 0 31 -25q25 -33 45 -47q36 -25 88 -25q44 0 74 17q25 15 55 52q17 23 30 23zM141 873q38 45 106 45q34 0 89.5 -27t74.5 -27q21 0 44.5 25t30.5 25q19 0 19 -21
q0 -54 -40.5 -88.5t-95.5 -34.5q-34 0 -89.5 27t-74.5 27q-21 0 -44.5 -25t-30.5 -25q-19 0 -19 31q0 33 30 68z" />
    <glyph glyph-name="fi" unicode="&#xf001;" horiz-adv-x="660" 
d="M253 404v-269q0 -32 2 -41q5 -21 25 -31q25 -12 25 -31q0 -32 -54 -32h-159q-54 0 -54 32q0 19 25 31q20 10 25 31q2 9 2 41v269h-13q-30 0 -40 5q-17 8 -17 34q0 24 15 32q11 6 37 6h19v44q0 117 73 177q67 55 186 55q86 0 160 -29q95 -37 95 -114q0 -37 -34 -60
q-29 -20 -68 -20q-35 0 -64 22.5t-29 56.5q0 6 2.5 16t2.5 14q0 22 -26 33q-19 9 -44 9q-92 0 -92 -139v-65h225q13 0 48 5q21 3 36 3q41 0 41 -98v-256q0 -38 2 -51t13 -21q25 -11 25 -31q0 -32 -47 -32h-149q-47 0 -47 32q0 20 25 31q11 8 13 21t2 51v148q0 75 -12 94
q-16 27 -83 27h-92z" />
    <glyph glyph-name="fl" unicode="&#xf002;" horiz-adv-x="680" 
d="M253 404v-269q0 -32 2 -41q5 -21 25 -31q25 -12 25 -31q0 -32 -54 -32h-159q-54 0 -54 32q0 19 25 31q20 10 25 31q2 9 2 41v269h-13q-30 0 -40 5q-17 8 -17 34q0 24 15 32q11 6 37 6h19q-2 120 25 179q45 97 199 97q72 0 135 -27q90 27 115 27q41 0 41 -98v-524
q0 -41 3 -50q5 -14 23 -22q25 -11 25 -31q0 -22 -20 -29q-9 -3 -38 -3h-149q-29 0 -38 3q-20 7 -20 29q0 20 25 31q18 8 23 22q3 9 3 50v409q0 82 -18 101q-29 30 -85 30q-87 0 -87 -100v-94h29q36 0 47 -3q26 -8 26 -34q0 -27 -20 -35q-12 -5 -50 -5h-32z" />
    <glyph glyph-name="fl2" unicode="&#xfb02;" horiz-adv-x="340" 
 />
    <glyph glyph-name="glyph242" unicode="&#x102;" horiz-adv-x="740" 
d="M461 237h-280q-38 -94 -38 -134q0 -21 26 -38t26 -33q0 -32 -65 -32h-82q-57 0 -57 34q0 16 21 30q15 10 18 13q7 7 12 19q82 294 250 607q14 26 33 33q12 4 49 4t48 -6q8 -6 23 -34q126 -239 250 -605q6 -18 30 -32q19 -11 19 -29q0 -34 -51 -34h-169q-61 0 -61 32
q0 15 21.5 29t21.5 22q0 31 -45 154zM209 319h224q-57 166 -111 265q-65 -129 -113 -265zM530 947q19 0 19 -25q0 -40 -39 -83q-54 -60 -143 -60q-62 0 -119 40q-62 45 -62 105q0 28 21 28q12 0 31 -25q25 -33 45 -47q36 -25 88 -25q44 0 74 17q25 15 55 52q17 23 30 23z
" />
    <glyph glyph-name="glyph243" unicode="&#x103;" horiz-adv-x="580" 
d="M516 295v-158q0 -36 3 -50t16 -20q33 -16 33 -35q0 -32 -54 -32h-104q-35 0 -44 14q-6 10 -6 48q-47 -77 -155 -77q-75 0 -125 39q-55 43 -55 116q0 95 104 142q78 35 186 35h34q0 105 -93 105q-26 0 -65.5 -32t-67.5 -32q-62 0 -62 48q0 45 85 68q56 15 122 15
q248 0 248 -194zM354 254h-18q-59 0 -98 -27q-45 -31 -45 -88q0 -30 17 -51t46 -21q46 0 77 48q18 28 21 67v72zM451 727q19 0 19 -25q0 -40 -39 -83q-54 -60 -143 -60q-62 0 -119 40q-62 45 -62 105q0 28 21 28q12 0 31 -25q25 -33 45 -47q36 -25 88 -25q44 0 74 17
q25 15 55 52q17 23 30 23z" />
    <glyph glyph-name="glyph244" unicode="&#x128;" horiz-adv-x="340" 
d="M76 127v478q0 33 -3 42q-4 13 -20 17q-30 8 -30 34q0 34 49 34h190q49 0 49 -34q0 -16 -20 -28q-23 -14 -27 -23q-6 -13 -6 -42v-478q0 -26 3 -36q4 -15 18 -22q32 -17 32 -35q0 -34 -49 -34h-190q-49 0 -49 34q0 20 25 31q20 9 25 25q3 10 3 37zM32 899q38 45 106 45
q34 0 89.5 -27t74.5 -27q21 0 44.5 25t30.5 25q19 0 19 -21q0 -54 -40.5 -88.5t-95.5 -34.5q-34 0 -89.5 27t-74.5 27q-21 0 -44.5 -25t-30.5 -25q-19 0 -19 31q0 33 30 68z" />
    <glyph glyph-name="glyph245" unicode="&#x129;" horiz-adv-x="300" 
d="M78 135v148q0 57 -1 62q-5 35 -30.5 49t-25.5 28q0 22 48 36q109 31 131 31q41 0 41 -98v-256q0 -38 2 -51t13 -21q25 -11 25 -31q0 -32 -47 -32h-149q-47 0 -47 32q0 20 25 31q11 8 13 21t2 51zM32 659q38 45 106 45q34 0 89.5 -27t74.5 -27q21 0 44.5 25t30.5 25
q19 0 19 -21q0 -54 -40.5 -88.5t-95.5 -34.5q-34 0 -89.5 27t-74.5 27q-21 0 -44.5 -25t-30.5 -25q-19 0 -19 31q0 33 30 68z" />
    <glyph glyph-name="glyph246" unicode="&#x168;" horiz-adv-x="760" 
d="M67 732h200q49 0 49 -32q0 -22 -29 -34q-22 -9 -29 -23q-5 -10 -7 -37q-11 -168 -11 -316q0 -228 181 -228q179 0 179 232q0 72 -6 168q-4 68 -9 166q0 16 -9 24q-16 9 -32 19q-20 11 -20 28q0 33 59 33h87q59 0 59 -33q0 -17 -20 -29q-31 -18 -32 -19q-8 -8 -8 -28
q0 -55 8 -164.5t8 -164.5q0 -161 -76.5 -235t-236.5 -74q-314 0 -314 315q0 51 6.5 152t6.5 152q0 33 -3 42q-4 13 -20 17q-30 8 -30 34q0 35 49 35zM218 899q38 45 106 45q34 0 89.5 -27t74.5 -27q21 0 44.5 25t30.5 25q19 0 19 -21q0 -54 -40.5 -88.5t-95.5 -34.5
q-34 0 -89.5 27t-74.5 27q-21 0 -44.5 -25t-30.5 -25q-19 0 -19 31q0 33 30 68z" />
    <glyph glyph-name="glyph247" unicode="&#x169;" 
d="M61 169v166q0 28 -2 38q-5 18 -21 30.5t-16 25.5q0 22 54 39q62 19 105 19t43 -87v-222q0 -52 9 -74q15 -36 59 -36q45 0 73 35q18 22 18 78v154q0 28 -2 38q-5 18 -21 30.5t-16 25.5q0 22 54 39q62 19 105 19t43 -87v-263q0 -33 2 -42q5 -22 25 -32q25 -12 25 -31
q0 -32 -54 -32h-97q-36 0 -45 14q-7 10 -7 48q-67 -77 -170 -77q-97 0 -145 75q-19 29 -19 109zM143 659q38 45 106 45q34 0 89.5 -27t74.5 -27q21 0 44.5 25t30.5 25q19 0 19 -21q0 -54 -40.5 -88.5t-95.5 -34.5q-34 0 -89.5 27t-74.5 27q-21 0 -44.5 -25t-30.5 -25
q-19 0 -19 31q0 33 30 68z" />
    <glyph glyph-name="glyph248" unicode="&#x1a0;" horiz-adv-x="860" 
d="M428 61q108 0 162 103q42 81 42 200t-42 201q-54 106 -161 106q-103 0 -157 -104q-44 -83 -44 -196q0 -117 41 -201q53 -109 159 -109zM838 611q-15 -3 -30 -3q-31 0 -52 19.5t-21 50.5q0 37 30 59q26 20 64 20q45 0 74 -29t29 -74q0 -69 -61 -134q-33 -35 -57 -48
q13 -49 13 -104q0 -165 -120 -276q-116 -107 -283 -107q-153 0 -266 98q-125 109 -125 285q0 166 115 274q112 105 279 105q169 0 283 -104q57 -52 86 -118l1 1q33 38 41 85z" />
    <glyph glyph-name="glyph249" unicode="&#x1a1;" 
d="M310 55q113 0 113 192q0 68 -22 112q-28 59 -89 59q-62 0 -91 -61q-23 -46 -23 -115q0 -187 112 -187zM590 443q-15 -3 -30 -3q-31 0 -52 19.5t-21 50.5q0 37 28 58t66 21q45 0 74 -29t29 -74q0 -69 -61 -134q-22 -23 -40 -37q12 -35 12 -75q0 -113 -88 -186
q-83 -69 -198 -69q-119 0 -198 64q-85 70 -85 186q0 114 91 187q84 67 201 67q110 0 191 -68q29 -24 48 -53q26 35 33 75z" />
    <glyph glyph-name="glyph250" unicode="&#x1af;" horiz-adv-x="760" 
d="M656 732q28 25 70 25q45 0 74 -29t29 -74q0 -69 -61 -134q-53 -56 -82 -56q-4 0 -8 1q7 -105 7 -171q0 -161 -76.5 -235t-236.5 -74q-314 0 -314 315q0 51 6.5 152t6.5 152q0 33 -3 42q-4 13 -20 17q-30 8 -30 34q0 35 49 35h200q49 0 49 -32q0 -22 -29 -34
q-22 -9 -29 -23q-5 -10 -7 -37q-11 -168 -11 -316q0 -228 181 -228q179 0 179 232q0 72 -6 168q-4 68 -9 166q0 16 -9 24q-16 9 -32 19q-20 11 -20 28q0 33 59 33h73zM735 611q-15 -3 -30 -3q-20 0 -36 8q1 -27 6 -112q8 9 19 22q33 38 41 85z" />
    <glyph glyph-name="glyph251" unicode="&#x1b0;" 
d="M490 487q-4 10 -4 23q0 37 28 58t66 21q45 0 74 -29t29 -74q0 -69 -61 -134q-48 -50 -76 -55v-160q0 -33 2 -42q5 -22 25 -32q25 -12 25 -31q0 -32 -54 -32h-97q-36 0 -45 14q-7 11 -7 48q-67 -77 -170 -77q-97 0 -145 75q-19 29 -19 109v166q0 28 -2 38q-5 18 -21 30.5
t-16 25.5q0 22 54 39q62 19 105 19t43 -87v-222q0 -52 9 -74q15 -36 59 -36q45 0 73 35q18 22 18 78v154q0 28 -2 38q-5 18 -21 30.5t-16 25.5q0 22 53 38.5t93 19.5zM589 443q-15 -3 -30 -3q-8 0 -16 2q3 -18 3 -42v-44l1 2q34 38 42 85z" />
    <glyph glyph-name="ch279" unicode="&#xaf;" horiz-adv-x="440" 
d="M299 584h-153q-40 0 -51 6q-18 10 -18 45q0 30 18 40q12 6 45 6h155q38 0 49 -5q20 -9 20 -43t-17 -43q-11 -6 -48 -6z" />
    <glyph glyph-name="ch286" unicode="&#xb5;" 
d="M61 100v235q0 28 -2 38q-5 18 -21 30.5t-16 25.5q0 22 54 39q62 19 105 19t43 -87v-222q0 -52 9 -74q15 -36 59 -36q45 0 73 35q18 22 18 78v154q0 28 -2 38q-5 18 -21 30.5t-16 25.5q0 22 54 39q62 19 105 19t43 -87v-263q0 -33 2 -42q5 -22 25 -32q25 -12 25 -31
q0 -32 -54 -32h-97q-36 0 -45 14q-7 10 -7 48q-23 -27 -66 -51q-46 -26 -79 -26q-30 0 -50 20q0 -23 12 -65.5t12 -64.5q0 -34 -29 -53q-25 -17 -60 -17q-85 0 -85 85q0 35 5.5 105t5.5 105z" />
    <glyph glyph-name="glyph252" unicode="&#x1ea0;" horiz-adv-x="740" 
d="M461 237h-280q-38 -94 -38 -134q0 -21 26 -38t26 -33q0 -32 -65 -32h-82q-57 0 -57 34q0 16 21 30q15 10 18 13q7 7 12 19q82 294 250 607q14 26 33 33q12 4 49 4t48 -6q8 -6 23 -34q126 -239 250 -605q6 -18 30 -32q19 -11 19 -29q0 -34 -51 -34h-169q-61 0 -61 32
q0 15 21.5 29t21.5 22q0 31 -45 154zM209 319h224q-57 166 -111 265q-65 -129 -113 -265zM371 -232q-37 0 -67 22t-30 58q0 37 29 59t67 22q37 0 65.5 -23t28.5 -59q0 -35 -28.5 -57t-64.5 -22z" />
    <glyph glyph-name="glyph253" unicode="&#x1ea1;" horiz-adv-x="580" 
d="M516 295v-158q0 -36 3 -50t16 -20q33 -16 33 -35q0 -32 -54 -32h-104q-35 0 -44 14q-6 10 -6 48q-47 -77 -155 -77q-75 0 -125 39q-55 43 -55 116q0 95 104 142q78 35 186 35h34q0 105 -93 105q-26 0 -65.5 -32t-67.5 -32q-62 0 -62 48q0 45 85 68q56 15 122 15
q248 0 248 -194zM354 254h-18q-59 0 -98 -27q-45 -31 -45 -88q0 -30 17 -51t46 -21q46 0 77 48q18 28 21 67v72zM293 -232q-37 0 -67 22t-30 58q0 37 29 59t67 22q37 0 65.5 -23t28.5 -59q0 -35 -28.5 -57t-64.5 -22z" />
    <glyph glyph-name="glyph254" unicode="&#x1ea2;" horiz-adv-x="740" 
d="M461 237h-280q-38 -94 -38 -134q0 -21 26 -38t26 -33q0 -32 -65 -32h-82q-57 0 -57 34q0 16 21 30q15 10 18 13q7 7 12 19q82 294 250 607q14 26 33 33q12 4 49 4t48 -6q8 -6 23 -34q126 -239 250 -605q6 -18 30 -32q19 -11 19 -29q0 -34 -51 -34h-169q-61 0 -61 32
q0 15 21.5 29t21.5 22q0 31 -45 154zM209 319h224q-57 166 -111 265q-65 -129 -113 -265zM333 804v19q0 16 2 20.5t15 11.5q46 25 46 70q0 48 -37 48q-29 0 -28 -29.5t-30 -29.5q-29 0 -29 24q0 35 34 64q26 23 60 23q58 0 92 -34q27 -28 27 -76q0 -35 -28 -60
q-16 -15 -55 -32q-14 -6 -14 -28q0 -12 -2 -17q-4 -8 -23 -8q-25 0 -29 10q-1 4 -1 24z" />
    <glyph glyph-name="glyph255" unicode="&#x1ea3;" horiz-adv-x="580" 
d="M516 295v-158q0 -36 3 -50t16 -20q33 -16 33 -35q0 -32 -54 -32h-104q-35 0 -44 14q-6 10 -6 48q-47 -77 -155 -77q-75 0 -125 39q-55 43 -55 116q0 95 104 142q78 35 186 35h34q0 105 -93 105q-26 0 -65.5 -32t-67.5 -32q-62 0 -62 48q0 45 85 68q56 15 122 15
q248 0 248 -194zM354 254h-18q-59 0 -98 -27q-45 -31 -45 -88q0 -30 17 -51t46 -21q46 0 77 48q18 28 21 67v72zM241 556v19q0 16 2 20.5t15 11.5q46 25 46 70q0 48 -37 48q-29 0 -28 -29.5t-30 -29.5q-29 0 -29 24q0 35 34 64q26 23 60 23q58 0 92 -34q27 -28 27 -76
q0 -35 -28 -60q-16 -15 -55 -32q-14 -6 -14 -28q0 -12 -2 -17q-4 -8 -23 -8q-25 0 -29 10q-1 4 -1 24z" />
    <glyph glyph-name="glyph256" unicode="&#x1ea4;" horiz-adv-x="740" 
d="M461 237h-280q-38 -94 -38 -134q0 -21 26 -38t26 -33q0 -32 -65 -32h-82q-57 0 -57 34q0 16 21 30q15 10 18 13q7 7 12 19q82 294 250 607q14 26 33 33q12 4 49 4t48 -6q8 -6 23 -34q126 -239 250 -605q6 -18 30 -32q19 -11 19 -29q0 -34 -51 -34h-169q-61 0 -61 32
q0 15 21.5 29t21.5 22q0 31 -45 154zM209 319h224q-57 166 -111 265q-65 -129 -113 -265zM209 812l106 119q22 31 35 31h40q14 0 35 -31l106 -119q24 -27 24 -32q0 -10 -32 -11q23 1 -38 1q-33 0 -50 20l-50 60q-7 9 -15 9t-15 -9l-50 -60q-17 -20 -50 -20q-61 0 -38 -1
q-32 1 -32 11q0 5 24 32zM253 1065l110 62q44 25 74 25q19 0 35 -29.5t16 -50.5q0 -23 -45 -35l-135 -35q-58 -15 -70 -15q-11 0 -18 18q-7 15 -7 27q0 10 40 33z" />
    <glyph glyph-name="glyph257" unicode="&#x1ea5;" horiz-adv-x="580" 
d="M516 295v-158q0 -36 3 -50t16 -20q33 -16 33 -35q0 -32 -54 -32h-104q-35 0 -44 14q-6 10 -6 48q-47 -77 -155 -77q-75 0 -125 39q-55 43 -55 116q0 95 104 142q78 35 186 35h34q0 105 -93 105q-26 0 -65.5 -32t-67.5 -32q-62 0 -62 48q0 45 85 68q56 15 122 15
q248 0 248 -194zM354 254h-18q-59 0 -98 -27q-45 -31 -45 -88q0 -30 17 -51t46 -21q46 0 77 48q18 28 21 67v72zM129 582l106 119q22 31 35 31h40q14 0 35 -31l106 -119q24 -27 24 -32q0 -10 -32 -11q23 1 -38 1q-33 0 -50 20l-50 60q-7 9 -15 9t-15 -9l-50 -60
q-17 -20 -50 -20q-61 0 -38 -1q-32 1 -32 11q0 5 24 32zM173 835l110 62q44 25 74 25q19 0 35 -29.5t16 -50.5q0 -23 -45 -35l-135 -35q-58 -15 -70 -15q-11 0 -18 18q-7 15 -7 27q0 10 40 33z" />
    <glyph glyph-name="glyph258" unicode="&#x1ea6;" horiz-adv-x="740" 
d="M461 237h-280q-38 -94 -38 -134q0 -21 26 -38t26 -33q0 -32 -65 -32h-82q-57 0 -57 34q0 16 21 30q15 10 18 13q7 7 12 19q82 294 250 607q14 26 33 33q12 4 49 4t48 -6q8 -6 23 -34q126 -239 250 -605q6 -18 30 -32q19 -11 19 -29q0 -34 -51 -34h-169q-61 0 -61 32
q0 15 21.5 29t21.5 22q0 31 -45 154zM209 319h224q-57 166 -111 265q-65 -129 -113 -265zM209 812l106 119q22 31 35 31h40q14 0 35 -31l106 -119q24 -27 24 -32q0 -10 -32 -11q23 1 -38 1q-33 0 -50 20l-50 60q-7 9 -15 9t-15 -9l-50 -60q-17 -20 -50 -20q-61 0 -38 -1
q-32 1 -32 11q0 5 24 32zM376 1128l110 -62q40 -23 40 -33q0 -12 -7 -27q-7 -18 -18 -18q-12 0 -70 15l-135 35q-45 12 -45 35q0 21 16 50.5t35 29.5q30 0 74 -25z" />
    <glyph glyph-name="glyph259" unicode="&#x1ea7;" horiz-adv-x="580" 
d="M516 295v-158q0 -36 3 -50t16 -20q33 -16 33 -35q0 -32 -54 -32h-104q-35 0 -44 14q-6 10 -6 48q-47 -77 -155 -77q-75 0 -125 39q-55 43 -55 116q0 95 104 142q78 35 186 35h34q0 105 -93 105q-26 0 -65.5 -32t-67.5 -32q-62 0 -62 48q0 45 85 68q56 15 122 15
q248 0 248 -194zM354 254h-18q-59 0 -98 -27q-45 -31 -45 -88q0 -30 17 -51t46 -21q46 0 77 48q18 28 21 67v72zM129 582l106 119q22 31 35 31h40q14 0 35 -31l106 -119q24 -27 24 -32q0 -10 -32 -11q23 1 -38 1q-33 0 -50 20l-50 60q-7 9 -15 9t-15 -9l-50 -60
q-17 -20 -50 -20q-61 0 -38 -1q-32 1 -32 11q0 5 24 32zM296 898l110 -62q40 -23 40 -33q0 -12 -7 -27q-7 -18 -18 -18q-12 0 -70 15l-135 35q-45 12 -45 35q0 21 16 50.5t35 29.5q30 0 74 -25z" />
    <glyph glyph-name="glyph260" unicode="&#x1ea8;" horiz-adv-x="740" 
d="M461 237h-280q-38 -94 -38 -134q0 -21 26 -38t26 -33q0 -32 -65 -32h-82q-57 0 -57 34q0 16 21 30q15 10 18 13q7 7 12 19q82 294 250 607q14 26 33 33q12 4 49 4t48 -6q8 -6 23 -34q126 -239 250 -605q6 -18 30 -32q19 -11 19 -29q0 -34 -51 -34h-169q-61 0 -61 32
q0 15 21.5 29t21.5 22q0 31 -45 154zM209 319h224q-57 166 -111 265q-65 -129 -113 -265zM209 812l106 119q22 31 35 31h40q14 0 35 -31l106 -119q24 -27 24 -32q0 -10 -32 -11q23 1 -38 1q-33 0 -50 20l-50 60q-7 9 -15 9t-15 -9l-50 -60q-17 -20 -50 -20q-61 0 -38 -1
q-32 1 -32 11q0 5 24 32zM478 926v19q0 16 2 20.5t15 11.5q46 25 46 70q0 48 -37 48q-29 0 -28 -29.5t-30 -29.5q-29 0 -29 24q0 35 34 64q26 23 60 23q58 0 92 -34q27 -28 27 -76q0 -35 -28 -60q-16 -15 -55 -32q-14 -6 -14 -28q0 -12 -2 -17q-4 -8 -23 -8q-25 0 -29 10
q-1 4 -1 24z" />
    <glyph glyph-name="glyph261" unicode="&#x1ea9;" horiz-adv-x="580" 
d="M516 295v-158q0 -36 3 -50t16 -20q33 -16 33 -35q0 -32 -54 -32h-104q-35 0 -44 14q-6 10 -6 48q-47 -77 -155 -77q-75 0 -125 39q-55 43 -55 116q0 95 104 142q78 35 186 35h34q0 105 -93 105q-26 0 -65.5 -32t-67.5 -32q-62 0 -62 48q0 45 85 68q56 15 122 15
q248 0 248 -194zM354 254h-18q-59 0 -98 -27q-45 -31 -45 -88q0 -30 17 -51t46 -21q46 0 77 48q18 28 21 67v72zM129 582l106 119q22 31 35 31h40q14 0 35 -31l106 -119q24 -27 24 -32q0 -10 -32 -11q23 1 -38 1q-33 0 -50 20l-50 60q-7 9 -15 9t-15 -9l-50 -60
q-17 -20 -50 -20q-61 0 -38 -1q-32 1 -32 11q0 5 24 32zM397 696v19q0 16 2 20.5t15 11.5q46 25 46 70q0 48 -37 48q-29 0 -28 -29.5t-30 -29.5q-29 0 -29 24q0 35 34 64q26 23 60 23q58 0 92 -34q27 -28 27 -76q0 -35 -28 -60q-16 -15 -55 -32q-14 -6 -14 -28q0 -12 -2 -17
q-4 -8 -23 -8q-25 0 -29 10q-1 4 -1 24z" />
    <glyph glyph-name="glyph262" unicode="&#x1eaa;" horiz-adv-x="740" 
d="M461 237h-280q-38 -94 -38 -134q0 -21 26 -38t26 -33q0 -32 -65 -32h-82q-57 0 -57 34q0 16 21 30q15 10 18 13q7 7 12 19q82 294 250 607q14 26 33 33q12 4 49 4t48 -6q8 -6 23 -34q126 -239 250 -605q6 -18 30 -32q19 -11 19 -29q0 -34 -51 -34h-169q-61 0 -61 32
q0 15 21.5 29t21.5 22q0 31 -45 154zM209 319h224q-57 166 -111 265q-65 -129 -113 -265zM209 812l106 119q22 31 35 31h40q14 0 35 -31l106 -119q24 -27 24 -32q0 -10 -32 -11q23 1 -38 1q-33 0 -50 20l-50 60q-7 9 -15 9t-15 -9l-50 -60q-17 -20 -50 -20q-61 0 -38 -1
q-32 1 -32 11q0 5 24 32zM272 1104q38 45 106 45q34 0 89.5 -27t74.5 -27q21 0 44.5 25t30.5 25q19 0 19 -21q0 -54 -40.5 -88.5t-95.5 -34.5q-34 0 -89.5 27t-74.5 27q-21 0 -44.5 -25t-30.5 -25q-19 0 -19 31q0 33 30 68z" />
    <glyph glyph-name="glyph263" unicode="&#x1eab;" horiz-adv-x="580" 
d="M516 295v-158q0 -36 3 -50t16 -20q33 -16 33 -35q0 -32 -54 -32h-104q-35 0 -44 14q-6 10 -6 48q-47 -77 -155 -77q-75 0 -125 39q-55 43 -55 116q0 95 104 142q78 35 186 35h34q0 105 -93 105q-26 0 -65.5 -32t-67.5 -32q-62 0 -62 48q0 45 85 68q56 15 122 15
q248 0 248 -194zM354 254h-18q-59 0 -98 -27q-45 -31 -45 -88q0 -30 17 -51t46 -21q46 0 77 48q18 28 21 67v72zM129 582l106 119q22 31 35 31h40q14 0 35 -31l106 -119q24 -27 24 -32q0 -10 -32 -11q23 1 -38 1q-33 0 -50 20l-50 60q-7 9 -15 9t-15 -9l-50 -60
q-17 -20 -50 -20q-61 0 -38 -1q-32 1 -32 11q0 5 24 32zM191 873q38 45 106 45q34 0 89.5 -27t74.5 -27q21 0 44.5 25t30.5 25q19 0 19 -21q0 -54 -40.5 -88.5t-95.5 -34.5q-34 0 -89.5 27t-74.5 27q-21 0 -44.5 -25t-30.5 -25q-19 0 -19 31q0 33 30 68z" />
    <glyph glyph-name="glyph264" unicode="&#x1eac;" horiz-adv-x="740" 
d="M461 237h-280q-38 -94 -38 -134q0 -21 26 -38t26 -33q0 -32 -65 -32h-82q-57 0 -57 34q0 16 21 30q15 10 18 13q7 7 12 19q82 294 250 607q14 26 33 33q12 4 49 4t48 -6q8 -6 23 -34q126 -239 250 -605q6 -18 30 -32q19 -11 19 -29q0 -34 -51 -34h-169q-61 0 -61 32
q0 15 21.5 29t21.5 22q0 31 -45 154zM209 319h224q-57 166 -111 265q-65 -129 -113 -265zM209 812l106 119q22 31 35 31h40q14 0 35 -31l106 -119q24 -27 24 -32q0 -10 -32 -11q23 1 -38 1q-33 0 -50 20l-50 60q-7 9 -15 9t-15 -9l-50 -60q-17 -20 -50 -20q-61 0 -38 -1
q-32 1 -32 11q0 5 24 32zM371 -232q-37 0 -67 22t-30 58q0 37 29 59t67 22q37 0 65.5 -23t28.5 -59q0 -35 -28.5 -57t-64.5 -22z" />
    <glyph glyph-name="glyph265" unicode="&#x1ead;" horiz-adv-x="580" 
d="M516 295v-158q0 -36 3 -50t16 -20q33 -16 33 -35q0 -32 -54 -32h-104q-35 0 -44 14q-6 10 -6 48q-47 -77 -155 -77q-75 0 -125 39q-55 43 -55 116q0 95 104 142q78 35 186 35h34q0 105 -93 105q-26 0 -65.5 -32t-67.5 -32q-62 0 -62 48q0 45 85 68q56 15 122 15
q248 0 248 -194zM354 254h-18q-59 0 -98 -27q-45 -31 -45 -88q0 -30 17 -51t46 -21q46 0 77 48q18 28 21 67v72zM129 582l106 119q22 31 35 31h40q14 0 35 -31l106 -119q24 -27 24 -32q0 -10 -32 -11q23 1 -38 1q-33 0 -50 20l-50 60q-7 9 -15 9t-15 -9l-50 -60
q-17 -20 -50 -20q-61 0 -38 -1q-32 1 -32 11q0 5 24 32zM293 -232q-37 0 -67 22t-30 58q0 37 29 59t67 22q37 0 65.5 -23t28.5 -59q0 -35 -28.5 -57t-64.5 -22z" />
    <glyph glyph-name="glyph266" unicode="&#x1eae;" horiz-adv-x="740" 
d="M461 237h-280q-38 -94 -38 -134q0 -21 26 -38t26 -33q0 -32 -65 -32h-82q-57 0 -57 34q0 16 21 30q15 10 18 13q7 7 12 19q82 294 250 607q14 26 33 33q12 4 49 4t48 -6q8 -6 23 -34q126 -239 250 -605q6 -18 30 -32q19 -11 19 -29q0 -34 -51 -34h-169q-61 0 -61 32
q0 15 21.5 29t21.5 22q0 31 -45 154zM209 319h224q-57 166 -111 265q-65 -129 -113 -265zM530 947q19 0 19 -25q0 -40 -39 -83q-54 -60 -143 -60q-62 0 -119 40q-62 45 -62 105q0 28 21 28q12 0 31 -25q25 -33 45 -47q36 -25 88 -25q44 0 74 17q25 15 55 52q17 23 30 23z
M284 1055l110 62q44 25 74 25q19 0 35 -29.5t16 -50.5q0 -23 -45 -35l-135 -35q-58 -15 -70 -15q-11 0 -18 18q-7 15 -7 27q0 10 40 33z" />
    <glyph glyph-name="glyph267" unicode="&#x1eaf;" horiz-adv-x="580" 
d="M516 295v-158q0 -36 3 -50t16 -20q33 -16 33 -35q0 -32 -54 -32h-104q-35 0 -44 14q-6 10 -6 48q-47 -77 -155 -77q-75 0 -125 39q-55 43 -55 116q0 95 104 142q78 35 186 35h34q0 105 -93 105q-26 0 -65.5 -32t-67.5 -32q-62 0 -62 48q0 45 85 68q56 15 122 15
q248 0 248 -194zM354 254h-18q-59 0 -98 -27q-45 -31 -45 -88q0 -30 17 -51t46 -21q46 0 77 48q18 28 21 67v72zM451 727q19 0 19 -25q0 -40 -39 -83q-54 -60 -143 -60q-62 0 -119 40q-62 45 -62 105q0 28 21 28q12 0 31 -25q25 -33 45 -47q36 -25 88 -25q44 0 74 17
q25 15 55 52q17 23 30 23zM205 835l110 62q44 25 74 25q19 0 35 -29.5t16 -50.5q0 -23 -45 -35l-135 -35q-58 -15 -70 -15q-11 0 -18 18q-7 15 -7 27q0 10 40 33z" />
    <glyph glyph-name="glyph268" unicode="&#x1eb0;" horiz-adv-x="740" 
d="M461 237h-280q-38 -94 -38 -134q0 -21 26 -38t26 -33q0 -32 -65 -32h-82q-57 0 -57 34q0 16 21 30q15 10 18 13q7 7 12 19q82 294 250 607q14 26 33 33q12 4 49 4t48 -6q8 -6 23 -34q126 -239 250 -605q6 -18 30 -32q19 -11 19 -29q0 -34 -51 -34h-169q-61 0 -61 32
q0 15 21.5 29t21.5 22q0 31 -45 154zM209 319h224q-57 166 -111 265q-65 -129 -113 -265zM530 947q19 0 19 -25q0 -40 -39 -83q-54 -60 -143 -60q-62 0 -119 40q-62 45 -62 105q0 28 21 28q12 0 31 -25q25 -33 45 -47q36 -25 88 -25q44 0 74 17q25 15 55 52q17 23 30 23z
M343 1118l110 -62q40 -23 40 -33q0 -12 -7 -27q-7 -18 -18 -18q-12 0 -70 15l-135 35q-45 12 -45 35q0 21 16 50.5t35 29.5q30 0 74 -25z" />
    <glyph glyph-name="glyph269" unicode="&#x1eb1;" horiz-adv-x="580" 
d="M516 295v-158q0 -36 3 -50t16 -20q33 -16 33 -35q0 -32 -54 -32h-104q-35 0 -44 14q-6 10 -6 48q-47 -77 -155 -77q-75 0 -125 39q-55 43 -55 116q0 95 104 142q78 35 186 35h34q0 105 -93 105q-26 0 -65.5 -32t-67.5 -32q-62 0 -62 48q0 45 85 68q56 15 122 15
q248 0 248 -194zM354 254h-18q-59 0 -98 -27q-45 -31 -45 -88q0 -30 17 -51t46 -21q46 0 77 48q18 28 21 67v72zM451 727q19 0 19 -25q0 -40 -39 -83q-54 -60 -143 -60q-62 0 -119 40q-62 45 -62 105q0 28 21 28q12 0 31 -25q25 -33 45 -47q36 -25 88 -25q44 0 74 17
q25 15 55 52q17 23 30 23zM264 898l110 -62q40 -23 40 -33q0 -12 -7 -27q-7 -18 -18 -18q-12 0 -70 15l-135 35q-45 12 -45 35q0 21 16 50.5t35 29.5q30 0 74 -25z" />
    <glyph glyph-name="glyph270" unicode="&#x1eb2;" horiz-adv-x="740" 
d="M461 237h-280q-38 -94 -38 -134q0 -21 26 -38t26 -33q0 -32 -65 -32h-82q-57 0 -57 34q0 16 21 30q15 10 18 13q7 7 12 19q82 294 250 607q14 26 33 33q12 4 49 4t48 -6q8 -6 23 -34q126 -239 250 -605q6 -18 30 -32q19 -11 19 -29q0 -34 -51 -34h-169q-61 0 -61 32
q0 15 21.5 29t21.5 22q0 31 -45 154zM209 319h224q-57 166 -111 265q-65 -129 -113 -265zM530 947q19 0 19 -25q0 -40 -39 -83q-54 -60 -143 -60q-62 0 -119 40q-62 45 -62 105q0 28 21 28q12 0 31 -25q25 -33 45 -47q36 -25 88 -25q44 0 74 17q25 15 55 52q17 23 30 23z
M330 916v19q0 16 2 20.5t15 11.5q46 25 46 70q0 48 -37 48q-29 0 -28 -29.5t-30 -29.5q-29 0 -29 24q0 35 34 64q26 23 60 23q58 0 92 -34q27 -28 27 -76q0 -35 -28 -60q-16 -15 -55 -32q-14 -6 -14 -28q0 -12 -2 -17q-4 -8 -23 -8q-25 0 -29 10q-1 4 -1 24z" />
    <glyph glyph-name="glyph271" unicode="&#x1eb3;" horiz-adv-x="580" 
d="M516 295v-158q0 -36 3 -50t16 -20q33 -16 33 -35q0 -32 -54 -32h-104q-35 0 -44 14q-6 10 -6 48q-47 -77 -155 -77q-75 0 -125 39q-55 43 -55 116q0 95 104 142q78 35 186 35h34q0 105 -93 105q-26 0 -65.5 -32t-67.5 -32q-62 0 -62 48q0 45 85 68q56 15 122 15
q248 0 248 -194zM354 254h-18q-59 0 -98 -27q-45 -31 -45 -88q0 -30 17 -51t46 -21q46 0 77 48q18 28 21 67v72zM451 727q19 0 19 -25q0 -40 -39 -83q-54 -60 -143 -60q-62 0 -119 40q-62 45 -62 105q0 28 21 28q12 0 31 -25q25 -33 45 -47q36 -25 88 -25q44 0 74 17
q25 15 55 52q17 23 30 23zM251 696v19q0 16 2 20.5t15 11.5q46 25 46 70q0 48 -37 48q-29 0 -28 -29.5t-30 -29.5q-29 0 -29 24q0 35 34 64q26 23 60 23q58 0 92 -34q27 -28 27 -76q0 -35 -28 -60q-16 -15 -55 -32q-14 -6 -14 -28q0 -12 -2 -17q-4 -8 -23 -8q-25 0 -29 10
q-1 4 -1 24z" />
    <glyph glyph-name="glyph272" unicode="&#x1eb4;" horiz-adv-x="740" 
d="M461 237h-280q-38 -94 -38 -134q0 -21 26 -38t26 -33q0 -32 -65 -32h-82q-57 0 -57 34q0 16 21 30q15 10 18 13q7 7 12 19q82 294 250 607q14 26 33 33q12 4 49 4t48 -6q8 -6 23 -34q126 -239 250 -605q6 -18 30 -32q19 -11 19 -29q0 -34 -51 -34h-169q-61 0 -61 32
q0 15 21.5 29t21.5 22q0 31 -45 154zM209 319h224q-57 166 -111 265q-65 -129 -113 -265zM530 947q19 0 19 -25q0 -40 -39 -83q-54 -60 -143 -60q-62 0 -119 40q-62 45 -62 105q0 28 21 28q12 0 31 -25q25 -33 45 -47q36 -25 88 -25q44 0 74 17q25 15 55 52q17 23 30 23z
M220 1093q38 45 106 45q34 0 89.5 -27t74.5 -27q21 0 44.5 25t30.5 25q19 0 19 -21q0 -54 -40.5 -88.5t-95.5 -34.5q-34 0 -89.5 27t-74.5 27q-21 0 -44.5 -25t-30.5 -25q-19 0 -19 31q0 33 30 68z" />
    <glyph glyph-name="glyph273" unicode="&#x1eb5;" horiz-adv-x="580" 
d="M516 295v-158q0 -36 3 -50t16 -20q33 -16 33 -35q0 -32 -54 -32h-104q-35 0 -44 14q-6 10 -6 48q-47 -77 -155 -77q-75 0 -125 39q-55 43 -55 116q0 95 104 142q78 35 186 35h34q0 105 -93 105q-26 0 -65.5 -32t-67.5 -32q-62 0 -62 48q0 45 85 68q56 15 122 15
q248 0 248 -194zM354 254h-18q-59 0 -98 -27q-45 -31 -45 -88q0 -30 17 -51t46 -21q46 0 77 48q18 28 21 67v72zM451 727q19 0 19 -25q0 -40 -39 -83q-54 -60 -143 -60q-62 0 -119 40q-62 45 -62 105q0 28 21 28q12 0 31 -25q25 -33 45 -47q36 -25 88 -25q44 0 74 17
q25 15 55 52q17 23 30 23zM141 873q38 45 106 45q34 0 89.5 -27t74.5 -27q21 0 44.5 25t30.5 25q19 0 19 -21q0 -54 -40.5 -88.5t-95.5 -34.5q-34 0 -89.5 27t-74.5 27q-21 0 -44.5 -25t-30.5 -25q-19 0 -19 31q0 33 30 68z" />
    <glyph glyph-name="glyph274" unicode="&#x1eb6;" horiz-adv-x="740" 
d="M461 237h-280q-38 -94 -38 -134q0 -21 26 -38t26 -33q0 -32 -65 -32h-82q-57 0 -57 34q0 16 21 30q15 10 18 13q7 7 12 19q82 294 250 607q14 26 33 33q12 4 49 4t48 -6q8 -6 23 -34q126 -239 250 -605q6 -18 30 -32q19 -11 19 -29q0 -34 -51 -34h-169q-61 0 -61 32
q0 15 21.5 29t21.5 22q0 31 -45 154zM209 319h224q-57 166 -111 265q-65 -129 -113 -265zM530 947q19 0 19 -25q0 -40 -39 -83q-54 -60 -143 -60q-62 0 -119 40q-62 45 -62 105q0 28 21 28q12 0 31 -25q25 -33 45 -47q36 -25 88 -25q44 0 74 17q25 15 55 52q17 23 30 23z
M371 -232q-37 0 -67 22t-30 58q0 37 29 59t67 22q37 0 65.5 -23t28.5 -59q0 -35 -28.5 -57t-64.5 -22z" />
    <glyph glyph-name="glyph275" unicode="&#x1eb7;" horiz-adv-x="580" 
d="M516 295v-158q0 -36 3 -50t16 -20q33 -16 33 -35q0 -32 -54 -32h-104q-35 0 -44 14q-6 10 -6 48q-47 -77 -155 -77q-75 0 -125 39q-55 43 -55 116q0 95 104 142q78 35 186 35h34q0 105 -93 105q-26 0 -65.5 -32t-67.5 -32q-62 0 -62 48q0 45 85 68q56 15 122 15
q248 0 248 -194zM354 254h-18q-59 0 -98 -27q-45 -31 -45 -88q0 -30 17 -51t46 -21q46 0 77 48q18 28 21 67v72zM451 727q19 0 19 -25q0 -40 -39 -83q-54 -60 -143 -60q-62 0 -119 40q-62 45 -62 105q0 28 21 28q12 0 31 -25q25 -33 45 -47q36 -25 88 -25q44 0 74 17
q25 15 55 52q17 23 30 23zM293 -232q-37 0 -67 22t-30 58q0 37 29 59t67 22q37 0 65.5 -23t28.5 -59q0 -35 -28.5 -57t-64.5 -22z" />
    <glyph glyph-name="glyph276" unicode="&#x1eb8;" horiz-adv-x="660" 
d="M257 356v-173q0 -81 34 -99q20 -11 114 -12q51 0 77 7q35 10 65 43q44 48 65 48q14 0 25 -9.5t11 -23.5q0 -24 -22 -91q-10 -31 -21.5 -38.5t-44.5 -7.5h-489q-49 0 -49 34q0 20 25 31q20 9 25 25q3 10 3 37v478q0 33 -3 42q-4 13 -20 17q-30 8 -30 34q0 34 49 34h467
q48 0 57 -16q15 -27 15 -91q0 -43 -36 -43q-19 0 -46 30q-32 36 -75 45q-19 4 -88 4q-48 0 -65 -3q-43 -9 -43 -38v-183h151q35 0 61 18.5t33 18.5q35 0 35 -69q0 -42 -2 -52q-7 -32 -33 -32q-9 0 -35 17.5t-59 17.5h-151zM334 -232q-37 0 -67 22t-30 58q0 37 29 59t67 22
q37 0 65.5 -23t28.5 -59q0 -35 -28.5 -57t-64.5 -22z" />
    <glyph glyph-name="glyph277" unicode="&#x1eb9;" horiz-adv-x="560" 
d="M203 172q11 -48 46 -77.5t83 -29.5q68 0 135 60q25 22 41 22q11 0 20 -8t9 -19q0 -46 -81 -93q-72 -42 -166 -42q-108 0 -186 63q-83 67 -83 173q0 121 91 197q86 71 210 71q78 0 136 -33q69 -41 69 -113q0 -138 -324 -171zM194 239q66 5 113 28q64 31 64 87q0 65 -60 65
q-59 0 -92 -64q-29 -54 -25 -116zM313 -232q-37 0 -67 22t-30 58q0 37 29 59t67 22q37 0 65.5 -23t28.5 -59q0 -35 -28.5 -57t-64.5 -22z" />
    <glyph glyph-name="glyph278" unicode="&#x1eba;" horiz-adv-x="660" 
d="M257 356v-173q0 -81 34 -99q20 -11 114 -12q51 0 77 7q35 10 65 43q44 48 65 48q14 0 25 -9.5t11 -23.5q0 -24 -22 -91q-10 -31 -21.5 -38.5t-44.5 -7.5h-489q-49 0 -49 34q0 20 25 31q20 9 25 25q3 10 3 37v478q0 33 -3 42q-4 13 -20 17q-30 8 -30 34q0 34 49 34h467
q48 0 57 -16q15 -27 15 -91q0 -43 -36 -43q-19 0 -46 30q-32 36 -75 45q-19 4 -88 4q-48 0 -65 -3q-43 -9 -43 -38v-183h151q35 0 61 18.5t33 18.5q35 0 35 -69q0 -42 -2 -52q-7 -32 -33 -32q-9 0 -35 17.5t-59 17.5h-151zM283 804v19q0 16 2 20.5t15 11.5q46 25 46 70
q0 48 -37 48q-29 0 -28 -29.5t-30 -29.5q-29 0 -29 24q0 35 34 64q26 23 60 23q58 0 92 -34q27 -28 27 -76q0 -35 -28 -60q-16 -15 -55 -32q-14 -6 -14 -28q0 -12 -2 -17q-4 -8 -23 -8q-25 0 -29 10q-1 4 -1 24z" />
    <glyph glyph-name="glyph279" unicode="&#x1ebb;" horiz-adv-x="560" 
d="M203 172q11 -48 46 -77.5t83 -29.5q68 0 135 60q25 22 41 22q11 0 20 -8t9 -19q0 -46 -81 -93q-72 -42 -166 -42q-108 0 -186 63q-83 67 -83 173q0 121 91 197q86 71 210 71q78 0 136 -33q69 -41 69 -113q0 -138 -324 -171zM194 239q66 5 113 28q64 31 64 87q0 65 -60 65
q-59 0 -92 -64q-29 -54 -25 -116zM266 556v19q0 16 2 20.5t15 11.5q46 25 46 70q0 48 -37 48q-29 0 -28 -29.5t-30 -29.5q-29 0 -29 24q0 35 34 64q26 23 60 23q58 0 92 -34q27 -28 27 -76q0 -35 -28 -60q-16 -15 -55 -32q-14 -6 -14 -28q0 -12 -2 -17q-4 -8 -23 -8
q-25 0 -29 10q-1 4 -1 24z" />
    <glyph glyph-name="glyph280" unicode="&#x1ebc;" horiz-adv-x="660" 
d="M257 356v-173q0 -81 34 -99q20 -11 114 -12q51 0 77 7q35 10 65 43q44 48 65 48q14 0 25 -9.5t11 -23.5q0 -24 -22 -91q-10 -31 -21.5 -38.5t-44.5 -7.5h-489q-49 0 -49 34q0 20 25 31q20 9 25 25q3 10 3 37v478q0 33 -3 42q-4 13 -20 17q-30 8 -30 34q0 34 49 34h467
q48 0 57 -16q15 -27 15 -91q0 -43 -36 -43q-19 0 -46 30q-32 36 -75 45q-19 4 -88 4q-48 0 -65 -3q-43 -9 -43 -38v-183h151q35 0 61 18.5t33 18.5q35 0 35 -69q0 -42 -2 -52q-7 -32 -33 -32q-9 0 -35 17.5t-59 17.5h-151zM156 899q38 45 106 45q34 0 89.5 -27t74.5 -27
q21 0 44.5 25t30.5 25q19 0 19 -21q0 -54 -40.5 -88.5t-95.5 -34.5q-34 0 -89.5 27t-74.5 27q-21 0 -44.5 -25t-30.5 -25q-19 0 -19 31q0 33 30 68z" />
    <glyph glyph-name="glyph281" unicode="&#x1ebd;" horiz-adv-x="560" 
d="M203 172q11 -48 46 -77.5t83 -29.5q68 0 135 60q25 22 41 22q11 0 20 -8t9 -19q0 -46 -81 -93q-72 -42 -166 -42q-108 0 -186 63q-83 67 -83 173q0 121 91 197q86 71 210 71q78 0 136 -33q69 -41 69 -113q0 -138 -324 -171zM194 239q66 5 113 28q64 31 64 87q0 65 -60 65
q-59 0 -92 -64q-29 -54 -25 -116zM125 659q38 45 106 45q34 0 89.5 -27t74.5 -27q21 0 44.5 25t30.5 25q19 0 19 -21q0 -54 -40.5 -88.5t-95.5 -34.5q-34 0 -89.5 27t-74.5 27q-21 0 -44.5 -25t-30.5 -25q-19 0 -19 31q0 33 30 68z" />
    <glyph glyph-name="glyph282" unicode="&#x1ebe;" horiz-adv-x="660" 
d="M257 356v-173q0 -81 34 -99q20 -11 114 -12q51 0 77 7q35 10 65 43q44 48 65 48q14 0 25 -9.5t11 -23.5q0 -24 -22 -91q-10 -31 -21.5 -38.5t-44.5 -7.5h-489q-49 0 -49 34q0 20 25 31q20 9 25 25q3 10 3 37v478q0 33 -3 42q-4 13 -20 17q-30 8 -30 34q0 34 49 34h467
q48 0 57 -16q15 -27 15 -91q0 -43 -36 -43q-19 0 -46 30q-32 36 -75 45q-19 4 -88 4q-48 0 -65 -3q-43 -9 -43 -38v-183h151q35 0 61 18.5t33 18.5q35 0 35 -69q0 -42 -2 -52q-7 -32 -33 -32q-9 0 -35 17.5t-59 17.5h-151zM169 827l106 119q22 31 35 31h40q14 0 35 -31
l106 -119q24 -27 24 -32q0 -10 -32 -11q23 1 -38 1q-33 0 -50 20l-50 60q-7 9 -15 9t-15 -9l-50 -60q-17 -20 -50 -20q-61 0 -38 -1q-32 1 -32 11q0 5 24 32zM213 1080l110 62q44 25 74 25q19 0 35 -29.5t16 -50.5q0 -23 -45 -35l-135 -35q-58 -15 -70 -15q-11 0 -18 18
q-7 15 -7 27q0 10 40 33z" />
    <glyph glyph-name="glyph283" unicode="&#x1ebf;" horiz-adv-x="560" 
d="M203 172q11 -48 46 -77.5t83 -29.5q68 0 135 60q25 22 41 22q11 0 20 -8t9 -19q0 -46 -81 -93q-72 -42 -166 -42q-108 0 -186 63q-83 67 -83 173q0 121 91 197q86 71 210 71q78 0 136 -33q69 -41 69 -113q0 -138 -324 -171zM194 239q66 5 113 28q64 31 64 87q0 65 -60 65
q-59 0 -92 -64q-29 -54 -25 -116zM149 582l106 119q22 31 35 31h40q14 0 35 -31l106 -119q24 -27 24 -32q0 -10 -32 -11q23 1 -38 1q-33 0 -50 20l-50 60q-7 9 -15 9t-15 -9l-50 -60q-17 -20 -50 -20q-61 0 -38 -1q-32 1 -32 11q0 5 24 32zM193 835l110 62q44 25 74 25
q19 0 35 -29.5t16 -50.5q0 -23 -45 -35l-135 -35q-58 -15 -70 -15q-11 0 -18 18q-7 15 -7 27q0 10 40 33z" />
    <glyph glyph-name="glyph284" unicode="&#x1ec0;" horiz-adv-x="660" 
d="M257 356v-173q0 -81 34 -99q20 -11 114 -12q51 0 77 7q35 10 65 43q44 48 65 48q14 0 25 -9.5t11 -23.5q0 -24 -22 -91q-10 -31 -21.5 -38.5t-44.5 -7.5h-489q-49 0 -49 34q0 20 25 31q20 9 25 25q3 10 3 37v478q0 33 -3 42q-4 13 -20 17q-30 8 -30 34q0 34 49 34h467
q48 0 57 -16q15 -27 15 -91q0 -43 -36 -43q-19 0 -46 30q-32 36 -75 45q-19 4 -88 4q-48 0 -65 -3q-43 -9 -43 -38v-183h151q35 0 61 18.5t33 18.5q35 0 35 -69q0 -42 -2 -52q-7 -32 -33 -32q-9 0 -35 17.5t-59 17.5h-151zM169 827l106 119q22 31 35 31h40q14 0 35 -31
l106 -119q24 -27 24 -32q0 -10 -32 -11q23 1 -38 1q-33 0 -50 20l-50 60q-7 9 -15 9t-15 -9l-50 -60q-17 -20 -50 -20q-61 0 -38 -1q-32 1 -32 11q0 5 24 32zM336 1143l110 -62q40 -23 40 -33q0 -12 -7 -27q-7 -18 -18 -18q-12 0 -70 15l-135 35q-45 12 -45 35q0 21 16 50.5
t35 29.5q30 0 74 -25z" />
    <glyph glyph-name="glyph285" unicode="&#x1ec1;" horiz-adv-x="560" 
d="M203 172q11 -48 46 -77.5t83 -29.5q68 0 135 60q25 22 41 22q11 0 20 -8t9 -19q0 -46 -81 -93q-72 -42 -166 -42q-108 0 -186 63q-83 67 -83 173q0 121 91 197q86 71 210 71q78 0 136 -33q69 -41 69 -113q0 -138 -324 -171zM194 239q66 5 113 28q64 31 64 87q0 65 -60 65
q-59 0 -92 -64q-29 -54 -25 -116zM149 582l106 119q22 31 35 31h40q14 0 35 -31l106 -119q24 -27 24 -32q0 -10 -32 -11q23 1 -38 1q-33 0 -50 20l-50 60q-7 9 -15 9t-15 -9l-50 -60q-17 -20 -50 -20q-61 0 -38 -1q-32 1 -32 11q0 5 24 32zM316 898l110 -62q40 -23 40 -33
q0 -12 -7 -27q-7 -18 -18 -18q-12 0 -70 15l-135 35q-45 12 -45 35q0 21 16 50.5t35 29.5q30 0 74 -25z" />
    <glyph glyph-name="glyph286" unicode="&#x1ec2;" horiz-adv-x="660" 
d="M257 356v-173q0 -81 34 -99q20 -11 114 -12q51 0 77 7q35 10 65 43q44 48 65 48q14 0 25 -9.5t11 -23.5q0 -24 -22 -91q-10 -31 -21.5 -38.5t-44.5 -7.5h-489q-49 0 -49 34q0 20 25 31q20 9 25 25q3 10 3 37v478q0 33 -3 42q-4 13 -20 17q-30 8 -30 34q0 34 49 34h467
q48 0 57 -16q15 -27 15 -91q0 -43 -36 -43q-19 0 -46 30q-32 36 -75 45q-19 4 -88 4q-48 0 -65 -3q-43 -9 -43 -38v-183h151q35 0 61 18.5t33 18.5q35 0 35 -69q0 -42 -2 -52q-7 -32 -33 -32q-9 0 -35 17.5t-59 17.5h-151zM169 827l106 119q22 31 35 31h40q14 0 35 -31
l106 -119q24 -27 24 -32q0 -10 -32 -11q23 1 -38 1q-33 0 -50 20l-50 60q-7 9 -15 9t-15 -9l-50 -60q-17 -20 -50 -20q-61 0 -38 -1q-32 1 -32 11q0 5 24 32zM438 941v19q0 16 2 20.5t15 11.5q46 25 46 70q0 48 -37 48q-29 0 -28 -29.5t-30 -29.5q-29 0 -29 24q0 35 34 64
q26 23 60 23q58 0 92 -34q27 -28 27 -76q0 -35 -28 -60q-16 -15 -55 -32q-14 -6 -14 -28q0 -12 -2 -17q-4 -8 -23 -8q-25 0 -29 10q-1 4 -1 24z" />
    <glyph glyph-name="glyph287" unicode="&#x1ec3;" horiz-adv-x="560" 
d="M203 172q11 -48 46 -77.5t83 -29.5q68 0 135 60q25 22 41 22q11 0 20 -8t9 -19q0 -46 -81 -93q-72 -42 -166 -42q-108 0 -186 63q-83 67 -83 173q0 121 91 197q86 71 210 71q78 0 136 -33q69 -41 69 -113q0 -138 -324 -171zM194 239q66 5 113 28q64 31 64 87q0 65 -60 65
q-59 0 -92 -64q-29 -54 -25 -116zM149 582l106 119q22 31 35 31h40q14 0 35 -31l106 -119q24 -27 24 -32q0 -10 -32 -11q23 1 -38 1q-33 0 -50 20l-50 60q-7 9 -15 9t-15 -9l-50 -60q-17 -20 -50 -20q-61 0 -38 -1q-32 1 -32 11q0 5 24 32zM417 696v19q0 16 2 20.5t15 11.5
q46 25 46 70q0 48 -37 48q-29 0 -28 -29.5t-30 -29.5q-29 0 -29 24q0 35 34 64q26 23 60 23q58 0 92 -34q27 -28 27 -76q0 -35 -28 -60q-16 -15 -55 -32q-14 -6 -14 -28q0 -12 -2 -17q-4 -8 -23 -8q-25 0 -29 10q-1 4 -1 24z" />
    <glyph glyph-name="glyph288" unicode="&#x1ec4;" horiz-adv-x="660" 
d="M257 356v-173q0 -81 34 -99q20 -11 114 -12q51 0 77 7q35 10 65 43q44 48 65 48q14 0 25 -9.5t11 -23.5q0 -24 -22 -91q-10 -31 -21.5 -38.5t-44.5 -7.5h-489q-49 0 -49 34q0 20 25 31q20 9 25 25q3 10 3 37v478q0 33 -3 42q-4 13 -20 17q-30 8 -30 34q0 34 49 34h467
q48 0 57 -16q15 -27 15 -91q0 -43 -36 -43q-19 0 -46 30q-32 36 -75 45q-19 4 -88 4q-48 0 -65 -3q-43 -9 -43 -38v-183h151q35 0 61 18.5t33 18.5q35 0 35 -69q0 -42 -2 -52q-7 -32 -33 -32q-9 0 -35 17.5t-59 17.5h-151zM169 827l106 119q22 31 35 31h40q14 0 35 -31
l106 -119q24 -27 24 -32q0 -10 -32 -11q23 1 -38 1q-33 0 -50 20l-50 60q-7 9 -15 9t-15 -9l-50 -60q-17 -20 -50 -20q-61 0 -38 -1q-32 1 -32 11q0 5 24 32zM231 1118q38 45 106 45q34 0 89.5 -27t74.5 -27q21 0 44.5 25t30.5 25q19 0 19 -21q0 -54 -40.5 -88.5
t-95.5 -34.5q-34 0 -89.5 27t-74.5 27q-21 0 -44.5 -25t-30.5 -25q-19 0 -19 31q0 33 30 68z" />
    <glyph glyph-name="glyph289" unicode="&#x1ec5;" horiz-adv-x="560" 
d="M203 172q11 -48 46 -77.5t83 -29.5q68 0 135 60q25 22 41 22q11 0 20 -8t9 -19q0 -46 -81 -93q-72 -42 -166 -42q-108 0 -186 63q-83 67 -83 173q0 121 91 197q86 71 210 71q78 0 136 -33q69 -41 69 -113q0 -138 -324 -171zM194 239q66 5 113 28q64 31 64 87q0 65 -60 65
q-59 0 -92 -64q-29 -54 -25 -116zM149 582l106 119q22 31 35 31h40q14 0 35 -31l106 -119q24 -27 24 -32q0 -10 -32 -11q23 1 -38 1q-33 0 -50 20l-50 60q-7 9 -15 9t-15 -9l-50 -60q-17 -20 -50 -20q-61 0 -38 -1q-32 1 -32 11q0 5 24 32zM211 873q38 45 106 45
q34 0 89.5 -27t74.5 -27q21 0 44.5 25t30.5 25q19 0 19 -21q0 -54 -40.5 -88.5t-95.5 -34.5q-34 0 -89.5 27t-74.5 27q-21 0 -44.5 -25t-30.5 -25q-19 0 -19 31q0 33 30 68z" />
    <glyph glyph-name="glyph290" unicode="&#x1ec6;" horiz-adv-x="660" 
d="M257 356v-173q0 -81 34 -99q20 -11 114 -12q51 0 77 7q35 10 65 43q44 48 65 48q14 0 25 -9.5t11 -23.5q0 -24 -22 -91q-10 -31 -21.5 -38.5t-44.5 -7.5h-489q-49 0 -49 34q0 20 25 31q20 9 25 25q3 10 3 37v478q0 33 -3 42q-4 13 -20 17q-30 8 -30 34q0 34 49 34h467
q48 0 57 -16q15 -27 15 -91q0 -43 -36 -43q-19 0 -46 30q-32 36 -75 45q-19 4 -88 4q-48 0 -65 -3q-43 -9 -43 -38v-183h151q35 0 61 18.5t33 18.5q35 0 35 -69q0 -42 -2 -52q-7 -32 -33 -32q-9 0 -35 17.5t-59 17.5h-151zM169 827l106 119q22 31 35 31h40q14 0 35 -31
l106 -119q24 -27 24 -32q0 -10 -32 -11q23 1 -38 1q-33 0 -50 20l-50 60q-7 9 -15 9t-15 -9l-50 -60q-17 -20 -50 -20q-61 0 -38 -1q-32 1 -32 11q0 5 24 32zM334 -232q-37 0 -67 22t-30 58q0 37 29 59t67 22q37 0 65.5 -23t28.5 -59q0 -35 -28.5 -57t-64.5 -22z" />
    <glyph glyph-name="glyph291" unicode="&#x1ec7;" horiz-adv-x="560" 
d="M203 172q11 -48 46 -77.5t83 -29.5q68 0 135 60q25 22 41 22q11 0 20 -8t9 -19q0 -46 -81 -93q-72 -42 -166 -42q-108 0 -186 63q-83 67 -83 173q0 121 91 197q86 71 210 71q78 0 136 -33q69 -41 69 -113q0 -138 -324 -171zM194 239q66 5 113 28q64 31 64 87q0 65 -60 65
q-59 0 -92 -64q-29 -54 -25 -116zM149 582l106 119q22 31 35 31h40q14 0 35 -31l106 -119q24 -27 24 -32q0 -10 -32 -11q23 1 -38 1q-33 0 -50 20l-50 60q-7 9 -15 9t-15 -9l-50 -60q-17 -20 -50 -20q-61 0 -38 -1q-32 1 -32 11q0 5 24 32zM313 -232q-37 0 -67 22t-30 58
q0 37 29 59t67 22q37 0 65.5 -23t28.5 -59q0 -35 -28.5 -57t-64.5 -22z" />
    <glyph glyph-name="glyph292" unicode="&#x1ec8;" horiz-adv-x="340" 
d="M76 127v478q0 33 -3 42q-4 13 -20 17q-30 8 -30 34q0 34 49 34h190q49 0 49 -34q0 -16 -20 -28q-23 -14 -27 -23q-6 -13 -6 -42v-478q0 -26 3 -36q4 -15 18 -22q32 -17 32 -35q0 -34 -49 -34h-190q-49 0 -49 34q0 20 25 31q20 9 25 25q3 10 3 37zM133 804v19q0 16 2 20.5
t15 11.5q46 25 46 70q0 48 -37 48q-29 0 -28 -29.5t-30 -29.5q-29 0 -29 24q0 35 34 64q26 23 60 23q58 0 92 -34q27 -28 27 -76q0 -35 -28 -60q-16 -15 -55 -32q-14 -6 -14 -28q0 -12 -2 -17q-4 -8 -23 -8q-25 0 -29 10q-1 4 -1 24z" />
    <glyph glyph-name="glyph293" unicode="&#x1ec9;" horiz-adv-x="300" 
d="M78 135v148q0 57 -1 62q-5 35 -30.5 49t-25.5 28q0 22 48 36q109 31 131 31q41 0 41 -98v-256q0 -38 2 -51t13 -21q25 -11 25 -31q0 -32 -47 -32h-149q-47 0 -47 32q0 20 25 31q11 8 13 21t2 51zM111 556v19q0 16 2 20.5t15 11.5q46 25 46 70q0 48 -37 48
q-29 0 -28 -29.5t-30 -29.5q-29 0 -29 24q0 35 34 64q26 23 60 23q58 0 92 -34q27 -28 27 -76q0 -35 -28 -60q-16 -15 -55 -32q-14 -6 -14 -28q0 -12 -2 -17q-4 -8 -23 -8q-25 0 -29 10q-1 4 -1 24z" />
    <glyph glyph-name="glyph294" unicode="&#x1eca;" horiz-adv-x="340" 
d="M76 127v478q0 33 -3 42q-4 13 -20 17q-30 8 -30 34q0 34 49 34h190q49 0 49 -34q0 -16 -20 -28q-23 -14 -27 -23q-6 -13 -6 -42v-478q0 -26 3 -36q4 -15 18 -22q32 -17 32 -35q0 -34 -49 -34h-190q-49 0 -49 34q0 20 25 31q20 9 25 25q3 10 3 37zM169 -232q-37 0 -67 22
t-30 58q0 37 29 59t67 22q37 0 65.5 -23t28.5 -59q0 -35 -28.5 -57t-64.5 -22z" />
    <glyph glyph-name="glyph295" unicode="&#x1ecb;" horiz-adv-x="300" 
d="M143 546q-36 0 -64 19q-31 21 -31 56q0 38 29 61t68 23t68.5 -21t29.5 -59q0 -37 -33 -59q-29 -20 -67 -20zM78 135v148q0 57 -1 62q-5 35 -30.5 49t-25.5 28q0 22 48 36q109 31 131 31q41 0 41 -98v-256q0 -38 2 -51t13 -21q25 -11 25 -31q0 -32 -47 -32h-149
q-47 0 -47 32q0 20 25 31q11 8 13 21t2 51zM155 -232q-37 0 -67 22t-30 58q0 37 29 59t67 22q37 0 65.5 -23t28.5 -59q0 -35 -28.5 -57t-64.5 -22z" />
    <glyph glyph-name="glyph296" unicode="&#x1ecc;" horiz-adv-x="860" 
d="M424 -15q-153 0 -266 98q-125 109 -125 285q0 166 115 274q112 105 279 105q170 0 283 -104q117 -106 117 -275q0 -165 -120 -276q-116 -107 -283 -107zM428 61q108 0 162 103q42 80 42 200q0 119 -42 201q-54 106 -161 106q-103 0 -157 -104q-44 -83 -44 -196
q0 -117 41 -201q53 -109 159 -109zM433 -232q-37 0 -67 22t-30 58q0 37 29 59t67 22q37 0 65.5 -23t28.5 -59q0 -35 -28.5 -57t-64.5 -22z" />
    <glyph glyph-name="glyph297" unicode="&#x1ecd;" 
d="M309 -15q-119 0 -198 64q-85 70 -85 186q0 114 91 187q84 67 201 67q111 0 192 -68q85 -72 85 -181q0 -113 -88 -186q-83 -69 -198 -69zM310 55q113 0 113 192q0 68 -22 112q-28 59 -89 59q-62 0 -91 -61q-23 -46 -23 -115q0 -187 112 -187zM309 -232q-37 0 -67 22
t-30 58q0 37 29 59t67 22q37 0 65.5 -23t28.5 -59q0 -35 -28.5 -57t-64.5 -22z" />
    <glyph glyph-name="glyph298" unicode="&#x1ece;" horiz-adv-x="860" 
d="M424 -15q-153 0 -266 98q-125 109 -125 285q0 166 115 274q112 105 279 105q170 0 283 -104q117 -106 117 -275q0 -165 -120 -276q-116 -107 -283 -107zM428 61q108 0 162 103q42 80 42 200q0 119 -42 201q-54 106 -161 106q-103 0 -157 -104q-44 -83 -44 -196
q0 -117 41 -201q53 -109 159 -109zM386 804v19q0 16 2 20.5t15 11.5q46 25 46 70q0 48 -37 48q-29 0 -28 -29.5t-30 -29.5q-29 0 -29 24q0 35 34 64q26 23 60 23q58 0 92 -34q27 -28 27 -76q0 -35 -28 -60q-16 -15 -55 -32q-14 -6 -14 -28q0 -12 -2 -17q-4 -8 -23 -8
q-25 0 -29 10q-1 4 -1 24z" />
    <glyph glyph-name="glyph299" unicode="&#x1ecf;" 
d="M309 -15q-119 0 -198 64q-85 70 -85 186q0 114 91 187q84 67 201 67q111 0 192 -68q85 -72 85 -181q0 -113 -88 -186q-83 -69 -198 -69zM310 55q113 0 113 192q0 68 -22 112q-28 59 -89 59q-62 0 -91 -61q-23 -46 -23 -115q0 -187 112 -187zM273 556v19q0 16 2 20.5
t15 11.5q46 25 46 70q0 48 -37 48q-29 0 -28 -29.5t-30 -29.5q-29 0 -29 24q0 35 34 64q26 23 60 23q58 0 92 -34q27 -28 27 -76q0 -35 -28 -60q-16 -15 -55 -32q-14 -6 -14 -28q0 -12 -2 -17q-4 -8 -23 -8q-25 0 -29 10q-1 4 -1 24z" />
    <glyph glyph-name="glyph300" unicode="&#x1ed0;" horiz-adv-x="860" 
d="M424 -15q-153 0 -266 98q-125 109 -125 285q0 166 115 274q112 105 279 105q170 0 283 -104q117 -106 117 -275q0 -165 -120 -276q-116 -107 -283 -107zM428 61q108 0 162 103q42 80 42 200q0 119 -42 201q-54 106 -161 106q-103 0 -157 -104q-44 -83 -44 -196
q0 -117 41 -201q53 -109 159 -109zM269 827l106 119q22 31 35 31h40q14 0 35 -31l106 -119q24 -27 24 -32q0 -10 -32 -11q23 1 -38 1q-33 0 -50 20l-50 60q-7 9 -15 9t-15 -9l-50 -60q-17 -20 -50 -20q-61 0 -38 -1q-32 1 -32 11q0 5 24 32zM314 1080l110 62q44 25 74 25
q19 0 35 -29.5t16 -50.5q0 -23 -45 -35l-135 -35q-58 -15 -70 -15q-11 0 -18 18q-7 15 -7 27q0 10 40 33z" />
    <glyph glyph-name="glyph301" unicode="&#x1ed1;" 
d="M309 -15q-119 0 -198 64q-85 70 -85 186q0 114 91 187q84 67 201 67q111 0 192 -68q85 -72 85 -181q0 -113 -88 -186q-83 -69 -198 -69zM310 55q113 0 113 192q0 68 -22 112q-28 59 -89 59q-62 0 -91 -61q-23 -46 -23 -115q0 -187 112 -187zM149 582l106 119q22 31 35 31
h40q14 0 35 -31l106 -119q24 -27 24 -32q0 -10 -32 -11q23 1 -38 1q-33 0 -50 20l-50 60q-7 9 -15 9t-15 -9l-50 -60q-17 -20 -50 -20q-61 0 -38 -1q-32 1 -32 11q0 5 24 32zM194 835l110 62q44 25 74 25q19 0 35 -29.5t16 -50.5q0 -23 -45 -35l-135 -35q-58 -15 -70 -15
q-11 0 -18 18q-7 15 -7 27q0 10 40 33z" />
    <glyph glyph-name="glyph302" unicode="&#x1ed2;" horiz-adv-x="860" 
d="M424 -15q-153 0 -266 98q-125 109 -125 285q0 166 115 274q112 105 279 105q170 0 283 -104q117 -106 117 -275q0 -165 -120 -276q-116 -107 -283 -107zM428 61q108 0 162 103q42 80 42 200q0 119 -42 201q-54 106 -161 106q-103 0 -157 -104q-44 -83 -44 -196
q0 -117 41 -201q53 -109 159 -109zM269 827l106 119q22 31 35 31h40q14 0 35 -31l106 -119q24 -27 24 -32q0 -10 -32 -11q23 1 -38 1q-33 0 -50 20l-50 60q-7 9 -15 9t-15 -9l-50 -60q-17 -20 -50 -20q-61 0 -38 -1q-32 1 -32 11q0 5 24 32zM436 1142l110 -62q40 -23 40 -33
q0 -12 -7 -27q-7 -18 -18 -18q-12 0 -70 15l-135 35q-45 12 -45 35q0 21 16 50.5t35 29.5q30 0 74 -25z" />
    <glyph glyph-name="glyph303" unicode="&#x1ed3;" 
d="M309 -15q-119 0 -198 64q-85 70 -85 186q0 114 91 187q84 67 201 67q111 0 192 -68q85 -72 85 -181q0 -113 -88 -186q-83 -69 -198 -69zM310 55q113 0 113 192q0 68 -22 112q-28 59 -89 59q-62 0 -91 -61q-23 -46 -23 -115q0 -187 112 -187zM149 582l106 119q22 31 35 31
h40q14 0 35 -31l106 -119q24 -27 24 -32q0 -10 -32 -11q23 1 -38 1q-33 0 -50 20l-50 60q-7 9 -15 9t-15 -9l-50 -60q-17 -20 -50 -20q-61 0 -38 -1q-32 1 -32 11q0 5 24 32zM316 898l110 -62q40 -23 40 -33q0 -12 -7 -27q-7 -18 -18 -18q-12 0 -70 15l-135 35
q-45 12 -45 35q0 21 16 50.5t35 29.5q30 0 74 -25z" />
    <glyph glyph-name="glyph304" unicode="&#x1ed4;" horiz-adv-x="860" 
d="M424 -15q-153 0 -266 98q-125 109 -125 285q0 166 115 274q112 105 279 105q170 0 283 -104q117 -106 117 -275q0 -165 -120 -276q-116 -107 -283 -107zM428 61q108 0 162 103q42 80 42 200q0 119 -42 201q-54 106 -161 106q-103 0 -157 -104q-44 -83 -44 -196
q0 -117 41 -201q53 -109 159 -109zM269 827l106 119q22 31 35 31h40q14 0 35 -31l106 -119q24 -27 24 -32q0 -10 -32 -11q23 1 -38 1q-33 0 -50 20l-50 60q-7 9 -15 9t-15 -9l-50 -60q-17 -20 -50 -20q-61 0 -38 -1q-32 1 -32 11q0 5 24 32zM538 941v19q0 16 2 20.5t15 11.5
q46 25 46 70q0 48 -37 48q-29 0 -28 -29.5t-30 -29.5q-29 0 -29 24q0 35 34 64q26 23 60 23q58 0 92 -34q27 -28 27 -76q0 -35 -28 -60q-16 -15 -55 -32q-14 -6 -14 -28q0 -12 -2 -17q-4 -8 -23 -8q-25 0 -29 10q-1 4 -1 24z" />
    <glyph glyph-name="glyph305" unicode="&#x1ed5;" 
d="M309 -15q-119 0 -198 64q-85 70 -85 186q0 114 91 187q84 67 201 67q111 0 192 -68q85 -72 85 -181q0 -113 -88 -186q-83 -69 -198 -69zM310 55q113 0 113 192q0 68 -22 112q-28 59 -89 59q-62 0 -91 -61q-23 -46 -23 -115q0 -187 112 -187zM149 582l106 119q22 31 35 31
h40q14 0 35 -31l106 -119q24 -27 24 -32q0 -10 -32 -11q23 1 -38 1q-33 0 -50 20l-50 60q-7 9 -15 9t-15 -9l-50 -60q-17 -20 -50 -20q-61 0 -38 -1q-32 1 -32 11q0 5 24 32zM417 696v19q0 16 2 20.5t15 11.5q46 25 46 70q0 48 -37 48q-29 0 -28 -29.5t-30 -29.5
q-29 0 -29 24q0 35 34 64q26 23 60 23q58 0 92 -34q27 -28 27 -76q0 -35 -28 -60q-16 -15 -55 -32q-14 -6 -14 -28q0 -12 -2 -17q-4 -8 -23 -8q-25 0 -29 10q-1 4 -1 24z" />
    <glyph glyph-name="glyph306" unicode="&#x1ed6;" horiz-adv-x="860" 
d="M424 -15q-153 0 -266 98q-125 109 -125 285q0 166 115 274q112 105 279 105q170 0 283 -104q117 -106 117 -275q0 -165 -120 -276q-116 -107 -283 -107zM428 61q108 0 162 103q42 80 42 200q0 119 -42 201q-54 106 -161 106q-103 0 -157 -104q-44 -83 -44 -196
q0 -117 41 -201q53 -109 159 -109zM269 827l106 119q22 31 35 31h40q14 0 35 -31l106 -119q24 -27 24 -32q0 -10 -32 -11q23 1 -38 1q-33 0 -50 20l-50 60q-7 9 -15 9t-15 -9l-50 -60q-17 -20 -50 -20q-61 0 -38 -1q-32 1 -32 11q0 5 24 32zM331 1118q38 45 106 45
q34 0 89.5 -27t74.5 -27q21 0 44.5 25t30.5 25q19 0 19 -21q0 -54 -40.5 -88.5t-95.5 -34.5q-34 0 -89.5 27t-74.5 27q-21 0 -44.5 -25t-30.5 -25q-19 0 -19 31q0 33 30 68z" />
    <glyph glyph-name="glyph307" unicode="&#x1ed7;" 
d="M309 -15q-119 0 -198 64q-85 70 -85 186q0 114 91 187q84 67 201 67q111 0 192 -68q85 -72 85 -181q0 -113 -88 -186q-83 -69 -198 -69zM310 55q113 0 113 192q0 68 -22 112q-28 59 -89 59q-62 0 -91 -61q-23 -46 -23 -115q0 -187 112 -187zM149 582l106 119q22 31 35 31
h40q14 0 35 -31l106 -119q24 -27 24 -32q0 -10 -32 -11q23 1 -38 1q-33 0 -50 20l-50 60q-7 9 -15 9t-15 -9l-50 -60q-17 -20 -50 -20q-61 0 -38 -1q-32 1 -32 11q0 5 24 32zM211 873q38 45 106 45q34 0 89.5 -27t74.5 -27q21 0 44.5 25t30.5 25q19 0 19 -21
q0 -54 -40.5 -88.5t-95.5 -34.5q-34 0 -89.5 27t-74.5 27q-21 0 -44.5 -25t-30.5 -25q-19 0 -19 31q0 33 30 68z" />
    <glyph glyph-name="glyph308" unicode="&#x1ed8;" horiz-adv-x="860" 
d="M424 -15q-153 0 -266 98q-125 109 -125 285q0 166 115 274q112 105 279 105q170 0 283 -104q117 -106 117 -275q0 -165 -120 -276q-116 -107 -283 -107zM428 61q108 0 162 103q42 80 42 200q0 119 -42 201q-54 106 -161 106q-103 0 -157 -104q-44 -83 -44 -196
q0 -117 41 -201q53 -109 159 -109zM269 827l106 119q22 31 35 31h40q14 0 35 -31l106 -119q24 -27 24 -32q0 -10 -32 -11q23 1 -38 1q-33 0 -50 20l-50 60q-7 9 -15 9t-15 -9l-50 -60q-17 -20 -50 -20q-61 0 -38 -1q-32 1 -32 11q0 5 24 32zM433 -232q-37 0 -67 22t-30 58
q0 37 29 59t67 22q37 0 65.5 -23t28.5 -59q0 -35 -28.5 -57t-64.5 -22z" />
    <glyph glyph-name="glyph309" unicode="&#x1ed9;" 
d="M309 -15q-119 0 -198 64q-85 70 -85 186q0 114 91 187q84 67 201 67q111 0 192 -68q85 -72 85 -181q0 -113 -88 -186q-83 -69 -198 -69zM310 55q113 0 113 192q0 68 -22 112q-28 59 -89 59q-62 0 -91 -61q-23 -46 -23 -115q0 -187 112 -187zM149 582l106 119q22 31 35 31
h40q14 0 35 -31l106 -119q24 -27 24 -32q0 -10 -32 -11q23 1 -38 1q-33 0 -50 20l-50 60q-7 9 -15 9t-15 -9l-50 -60q-17 -20 -50 -20q-61 0 -38 -1q-32 1 -32 11q0 5 24 32zM309 -232q-37 0 -67 22t-30 58q0 37 29 59t67 22q37 0 65.5 -23t28.5 -59q0 -35 -28.5 -57
t-64.5 -22z" />
    <glyph glyph-name="glyph310" unicode="&#x1eda;" horiz-adv-x="860" 
d="M428 61q108 0 162 103q42 81 42 200t-42 201q-54 106 -161 106q-103 0 -157 -104q-44 -83 -44 -196q0 -117 41 -201q53 -109 159 -109zM838 611q-15 -3 -30 -3q-31 0 -52 19.5t-21 50.5q0 37 30 59q26 20 64 20q45 0 74 -29t29 -74q0 -69 -61 -134q-33 -35 -57 -48
q13 -49 13 -104q0 -165 -120 -276q-116 -107 -283 -107q-153 0 -266 98q-125 109 -125 285q0 166 115 274q112 105 279 105q169 0 283 -104q57 -52 86 -118l1 1q33 38 41 85zM340 858l110 62q44 25 74 25q19 0 35 -29.5t16 -50.5q0 -23 -45 -35l-135 -35q-58 -15 -70 -15
q-11 0 -18 18q-7 15 -7 27q0 10 40 33z" />
    <glyph glyph-name="glyph311" unicode="&#x1edb;" 
d="M310 55q113 0 113 192q0 68 -22 112q-28 59 -89 59q-62 0 -91 -61q-23 -46 -23 -115q0 -187 112 -187zM590 443q-15 -3 -30 -3q-31 0 -52 19.5t-21 50.5q0 37 28 58t66 21q45 0 74 -29t29 -74q0 -69 -61 -134q-22 -23 -40 -37q12 -35 12 -75q0 -113 -88 -186
q-83 -69 -198 -69q-119 0 -198 64q-85 70 -85 186q0 114 91 187q84 67 201 67q110 0 191 -68q29 -24 48 -53q26 35 33 75zM220 613l110 62q44 25 74 25q19 0 35 -29.5t16 -50.5q0 -23 -45 -35l-135 -35q-58 -15 -70 -15q-11 0 -18 18q-7 15 -7 27q0 10 40 33z" />
    <glyph glyph-name="glyph312" unicode="&#x1edc;" horiz-adv-x="860" 
d="M428 61q108 0 162 103q42 81 42 200t-42 201q-54 106 -161 106q-103 0 -157 -104q-44 -83 -44 -196q0 -117 41 -201q53 -109 159 -109zM838 611q-15 -3 -30 -3q-31 0 -52 19.5t-21 50.5q0 37 30 59q26 20 64 20q45 0 74 -29t29 -74q0 -69 -61 -134q-33 -35 -57 -48
q13 -49 13 -104q0 -165 -120 -276q-116 -107 -283 -107q-153 0 -266 98q-125 109 -125 285q0 166 115 274q112 105 279 105q169 0 283 -104q57 -52 86 -118l1 1q33 38 41 85zM410 920l110 -62q40 -23 40 -33q0 -12 -7 -27q-7 -18 -18 -18q-12 0 -70 15l-135 35
q-45 12 -45 35q0 21 16 50.5t35 29.5q30 0 74 -25z" />
    <glyph glyph-name="glyph313" unicode="&#x1edd;" 
d="M310 55q113 0 113 192q0 68 -22 112q-28 59 -89 59q-62 0 -91 -61q-23 -46 -23 -115q0 -187 112 -187zM590 443q-15 -3 -30 -3q-31 0 -52 19.5t-21 50.5q0 37 28 58t66 21q45 0 74 -29t29 -74q0 -69 -61 -134q-22 -23 -40 -37q12 -35 12 -75q0 -113 -88 -186
q-83 -69 -198 -69q-119 0 -198 64q-85 70 -85 186q0 114 91 187q84 67 201 67q110 0 191 -68q29 -24 48 -53q26 35 33 75zM290 675l110 -62q40 -23 40 -33q0 -12 -7 -27q-7 -18 -18 -18q-12 0 -70 15l-135 35q-45 12 -45 35q0 21 16 50.5t35 29.5q30 0 74 -25z" />
    <glyph glyph-name="glyph314" unicode="&#x1ede;" horiz-adv-x="860" 
d="M428 61q108 0 162 103q42 81 42 200t-42 201q-54 106 -161 106q-103 0 -157 -104q-44 -83 -44 -196q0 -117 41 -201q53 -109 159 -109zM838 611q-15 -3 -30 -3q-31 0 -52 19.5t-21 50.5q0 37 30 59q26 20 64 20q45 0 74 -29t29 -74q0 -69 -61 -134q-33 -35 -57 -48
q13 -49 13 -104q0 -165 -120 -276q-116 -107 -283 -107q-153 0 -266 98q-125 109 -125 285q0 166 115 274q112 105 279 105q169 0 283 -104q57 -52 86 -118l1 1q33 38 41 85zM386 804v19q0 16 2 20.5t15 11.5q46 25 46 70q0 48 -37 48q-29 0 -28 -29.5t-30 -29.5
q-29 0 -29 24q0 35 34 64q26 23 60 23q58 0 92 -34q27 -28 27 -76q0 -35 -28 -60q-16 -15 -55 -32q-14 -6 -14 -28q0 -12 -2 -17q-4 -8 -23 -8q-25 0 -29 10q-1 4 -1 24z" />
    <glyph glyph-name="glyph315" unicode="&#x1edf;" 
d="M310 55q113 0 113 192q0 68 -22 112q-28 59 -89 59q-62 0 -91 -61q-23 -46 -23 -115q0 -187 112 -187zM590 443q-15 -3 -30 -3q-31 0 -52 19.5t-21 50.5q0 37 28 58t66 21q45 0 74 -29t29 -74q0 -69 -61 -134q-22 -23 -40 -37q12 -35 12 -75q0 -113 -88 -186
q-83 -69 -198 -69q-119 0 -198 64q-85 70 -85 186q0 114 91 187q84 67 201 67q110 0 191 -68q29 -24 48 -53q26 35 33 75zM273 556v19q0 16 2 20.5t15 11.5q46 25 46 70q0 48 -37 48q-29 0 -28 -29.5t-30 -29.5q-29 0 -29 24q0 35 34 64q26 23 60 23q58 0 92 -34
q27 -28 27 -76q0 -35 -28 -60q-16 -15 -55 -32q-14 -6 -14 -28q0 -12 -2 -17q-4 -8 -23 -8q-25 0 -29 10q-1 4 -1 24z" />
    <glyph glyph-name="glyph316" unicode="&#x1ee0;" horiz-adv-x="860" 
d="M428 61q108 0 162 103q42 81 42 200t-42 201q-54 106 -161 106q-103 0 -157 -104q-44 -83 -44 -196q0 -117 41 -201q53 -109 159 -109zM838 611q-15 -3 -30 -3q-31 0 -52 19.5t-21 50.5q0 37 30 59q26 20 64 20q45 0 74 -29t29 -74q0 -69 -61 -134q-33 -35 -57 -48
q13 -49 13 -104q0 -165 -120 -276q-116 -107 -283 -107q-153 0 -266 98q-125 109 -125 285q0 166 115 274q112 105 279 105q169 0 283 -104q57 -52 86 -118l1 1q33 38 41 85zM263 899q38 45 106 45q34 0 89.5 -27t74.5 -27q21 0 44.5 25t30.5 25q19 0 19 -21
q0 -54 -40.5 -88.5t-95.5 -34.5q-34 0 -89.5 27t-74.5 27q-21 0 -44.5 -25t-30.5 -25q-19 0 -19 31q0 33 30 68z" />
    <glyph glyph-name="glyph317" unicode="&#x1ee1;" 
d="M310 55q113 0 113 192q0 68 -22 112q-28 59 -89 59q-62 0 -91 -61q-23 -46 -23 -115q0 -187 112 -187zM590 443q-15 -3 -30 -3q-31 0 -52 19.5t-21 50.5q0 37 28 58t66 21q45 0 74 -29t29 -74q0 -69 -61 -134q-22 -23 -40 -37q12 -35 12 -75q0 -113 -88 -186
q-83 -69 -198 -69q-119 0 -198 64q-85 70 -85 186q0 114 91 187q84 67 201 67q110 0 191 -68q29 -24 48 -53q26 35 33 75zM143 659q38 45 106 45q34 0 89.5 -27t74.5 -27q21 0 44.5 25t30.5 25q19 0 19 -21q0 -54 -40.5 -88.5t-95.5 -34.5q-34 0 -89.5 27t-74.5 27
q-21 0 -44.5 -25t-30.5 -25q-19 0 -19 31q0 33 30 68z" />
    <glyph glyph-name="glyph318" unicode="&#x1ee2;" horiz-adv-x="860" 
d="M428 61q108 0 162 103q42 81 42 200t-42 201q-54 106 -161 106q-103 0 -157 -104q-44 -83 -44 -196q0 -117 41 -201q53 -109 159 -109zM838 611q-15 -3 -30 -3q-31 0 -52 19.5t-21 50.5q0 37 30 59q26 20 64 20q45 0 74 -29t29 -74q0 -69 -61 -134q-33 -35 -57 -48
q13 -49 13 -104q0 -165 -120 -276q-116 -107 -283 -107q-153 0 -266 98q-125 109 -125 285q0 166 115 274q112 105 279 105q169 0 283 -104q57 -52 86 -118l1 1q33 38 41 85zM433 -232q-37 0 -67 22t-30 58q0 37 29 59t67 22q37 0 65.5 -23t28.5 -59q0 -35 -28.5 -57
t-64.5 -22z" />
    <glyph glyph-name="glyph319" unicode="&#x1ee3;" 
d="M310 55q113 0 113 192q0 68 -22 112q-28 59 -89 59q-62 0 -91 -61q-23 -46 -23 -115q0 -187 112 -187zM590 443q-15 -3 -30 -3q-31 0 -52 19.5t-21 50.5q0 37 28 58t66 21q45 0 74 -29t29 -74q0 -69 -61 -134q-22 -23 -40 -37q12 -35 12 -75q0 -113 -88 -186
q-83 -69 -198 -69q-119 0 -198 64q-85 70 -85 186q0 114 91 187q84 67 201 67q110 0 191 -68q29 -24 48 -53q26 35 33 75zM309 -232q-37 0 -67 22t-30 58q0 37 29 59t67 22q37 0 65.5 -23t28.5 -59q0 -35 -28.5 -57t-64.5 -22z" />
    <glyph glyph-name="glyph320" unicode="&#x1ee4;" horiz-adv-x="760" 
d="M67 732h200q49 0 49 -32q0 -22 -29 -34q-22 -9 -29 -23q-5 -10 -7 -37q-11 -168 -11 -316q0 -228 181 -228q179 0 179 232q0 72 -6 168q-4 68 -9 166q0 16 -9 24q-16 9 -32 19q-20 11 -20 28q0 33 59 33h87q59 0 59 -33q0 -17 -20 -29q-31 -18 -32 -19q-8 -8 -8 -28
q0 -55 8 -164.5t8 -164.5q0 -161 -76.5 -235t-236.5 -74q-314 0 -314 315q0 51 6.5 152t6.5 152q0 33 -3 42q-4 13 -20 17q-30 8 -30 34q0 35 49 35zM374 -232q-37 0 -67 22t-30 58q0 37 29 59t67 22q37 0 65.5 -23t28.5 -59q0 -35 -28.5 -57t-64.5 -22z" />
    <glyph glyph-name="glyph321" unicode="&#x1ee5;" 
d="M61 169v166q0 28 -2 38q-5 18 -21 30.5t-16 25.5q0 22 54 39q62 19 105 19t43 -87v-222q0 -52 9 -74q15 -36 59 -36q45 0 73 35q18 22 18 78v154q0 28 -2 38q-5 18 -21 30.5t-16 25.5q0 22 54 39q62 19 105 19t43 -87v-263q0 -33 2 -42q5 -22 25 -32q25 -12 25 -31
q0 -32 -54 -32h-97q-36 0 -45 14q-7 10 -7 48q-67 -77 -170 -77q-97 0 -145 75q-19 29 -19 109zM307 -232q-37 0 -67 22t-30 58q0 37 29 59t67 22q37 0 65.5 -23t28.5 -59q0 -35 -28.5 -57t-64.5 -22z" />
    <glyph glyph-name="glyph322" unicode="&#x1ee6;" horiz-adv-x="760" 
d="M67 732h200q49 0 49 -32q0 -22 -29 -34q-22 -9 -29 -23q-5 -10 -7 -37q-11 -168 -11 -316q0 -228 181 -228q179 0 179 232q0 72 -6 168q-4 68 -9 166q0 16 -9 24q-16 9 -32 19q-20 11 -20 28q0 33 59 33h87q59 0 59 -33q0 -17 -20 -29q-31 -18 -32 -19q-8 -8 -8 -28
q0 -55 8 -164.5t8 -164.5q0 -161 -76.5 -235t-236.5 -74q-314 0 -314 315q0 51 6.5 152t6.5 152q0 33 -3 42q-4 13 -20 17q-30 8 -30 34q0 35 49 35zM364 804v19q0 16 2 20.5t15 11.5q46 25 46 70q0 48 -37 48q-29 0 -28 -29.5t-30 -29.5q-29 0 -29 24q0 35 34 64
q26 23 60 23q58 0 92 -34q27 -28 27 -76q0 -35 -28 -60q-16 -15 -55 -32q-14 -6 -14 -28q0 -12 -2 -17q-4 -8 -23 -8q-25 0 -29 10q-1 4 -1 24z" />
    <glyph glyph-name="glyph323" unicode="&#x1ee7;" 
d="M61 169v166q0 28 -2 38q-5 18 -21 30.5t-16 25.5q0 22 54 39q62 19 105 19t43 -87v-222q0 -52 9 -74q15 -36 59 -36q45 0 73 35q18 22 18 78v154q0 28 -2 38q-5 18 -21 30.5t-16 25.5q0 22 54 39q62 19 105 19t43 -87v-263q0 -33 2 -42q5 -22 25 -32q25 -12 25 -31
q0 -32 -54 -32h-97q-36 0 -45 14q-7 10 -7 48q-67 -77 -170 -77q-97 0 -145 75q-19 29 -19 109zM253 556v19q0 16 2 20.5t15 11.5q46 25 46 70q0 48 -37 48q-29 0 -28 -29.5t-30 -29.5q-29 0 -29 24q0 35 34 64q26 23 60 23q58 0 92 -34q27 -28 27 -76q0 -35 -28 -60
q-16 -15 -55 -32q-14 -6 -14 -28q0 -12 -2 -17q-4 -8 -23 -8q-25 0 -29 10q-1 4 -1 24z" />
    <glyph glyph-name="glyph324" unicode="&#x1ee8;" horiz-adv-x="760" 
d="M656 732q28 25 70 25q45 0 74 -29t29 -74q0 -69 -61 -134q-53 -56 -82 -56q-4 0 -8 1q7 -105 7 -171q0 -161 -76.5 -235t-236.5 -74q-314 0 -314 315q0 51 6.5 152t6.5 152q0 33 -3 42q-4 13 -20 17q-30 8 -30 34q0 35 49 35h200q49 0 49 -32q0 -22 -29 -34
q-22 -9 -29 -23q-5 -10 -7 -37q-11 -168 -11 -316q0 -228 181 -228q179 0 179 232q0 72 -6 168q-4 68 -9 166q0 16 -9 24q-16 9 -32 19q-20 11 -20 28q0 33 59 33h73zM735 611q-15 -3 -30 -3q-20 0 -36 8q1 -27 6 -112q8 9 19 22q33 38 41 85zM340 858l110 62q44 25 74 25
q19 0 35 -29.5t16 -50.5q0 -23 -45 -35l-135 -35q-58 -15 -70 -15q-11 0 -18 18q-7 15 -7 27q0 10 40 33z" />
    <glyph glyph-name="glyph325" unicode="&#x1ee9;" 
d="M490 487q-4 10 -4 23q0 37 28 58t66 21q45 0 74 -29t29 -74q0 -69 -61 -134q-48 -50 -76 -55v-160q0 -33 2 -42q5 -22 25 -32q25 -12 25 -31q0 -32 -54 -32h-97q-36 0 -45 14q-7 11 -7 48q-67 -77 -170 -77q-97 0 -145 75q-19 29 -19 109v166q0 28 -2 38q-5 18 -21 30.5
t-16 25.5q0 22 54 39q62 19 105 19t43 -87v-222q0 -52 9 -74q15 -36 59 -36q45 0 73 35q18 22 18 78v154q0 28 -2 38q-5 18 -21 30.5t-16 25.5q0 22 53 38.5t93 19.5zM589 443q-15 -3 -30 -3q-8 0 -16 2q3 -18 3 -42v-44l1 2q34 38 42 85zM235 613l110 62q44 25 74 25
q19 0 35 -29.5t16 -50.5q0 -23 -45 -35l-135 -35q-58 -15 -70 -15q-11 0 -18 18q-7 15 -7 27q0 10 40 33z" />
    <glyph glyph-name="glyph326" unicode="&#x1eea;" horiz-adv-x="760" 
d="M656 732q28 25 70 25q45 0 74 -29t29 -74q0 -69 -61 -134q-53 -56 -82 -56q-4 0 -8 1q7 -105 7 -171q0 -161 -76.5 -235t-236.5 -74q-314 0 -314 315q0 51 6.5 152t6.5 152q0 33 -3 42q-4 13 -20 17q-30 8 -30 34q0 35 49 35h200q49 0 49 -32q0 -22 -29 -34
q-22 -9 -29 -23q-5 -10 -7 -37q-11 -168 -11 -316q0 -228 181 -228q179 0 179 232q0 72 -6 168q-4 68 -9 166q0 16 -9 24q-16 9 -32 19q-20 11 -20 28q0 33 59 33h73zM735 611q-15 -3 -30 -3q-20 0 -36 8q1 -27 6 -112q8 9 19 22q33 38 41 85zM380 921l110 -62
q40 -23 40 -33q0 -12 -7 -27q-7 -18 -18 -18q-12 0 -70 15l-135 35q-45 12 -45 35q0 21 16 50.5t35 29.5q30 0 74 -25z" />
    <glyph glyph-name="glyph327" unicode="&#x1eeb;" 
d="M490 487q-4 10 -4 23q0 37 28 58t66 21q45 0 74 -29t29 -74q0 -69 -61 -134q-48 -50 -76 -55v-160q0 -33 2 -42q5 -22 25 -32q25 -12 25 -31q0 -32 -54 -32h-97q-36 0 -45 14q-7 11 -7 48q-67 -77 -170 -77q-97 0 -145 75q-19 29 -19 109v166q0 28 -2 38q-5 18 -21 30.5
t-16 25.5q0 22 54 39q62 19 105 19t43 -87v-222q0 -52 9 -74q15 -36 59 -36q45 0 73 35q18 22 18 78v154q0 28 -2 38q-5 18 -21 30.5t-16 25.5q0 22 53 38.5t93 19.5zM589 443q-15 -3 -30 -3q-8 0 -16 2q3 -18 3 -42v-44l1 2q34 38 42 85zM270 675l110 -62q40 -23 40 -33
q0 -12 -7 -27q-7 -18 -18 -18q-12 0 -70 15l-135 35q-45 12 -45 35q0 21 16 50.5t35 29.5q30 0 74 -25z" />
    <glyph glyph-name="glyph328" unicode="&#x1eec;" horiz-adv-x="760" 
d="M656 732q28 25 70 25q45 0 74 -29t29 -74q0 -69 -61 -134q-53 -56 -82 -56q-4 0 -8 1q7 -105 7 -171q0 -161 -76.5 -235t-236.5 -74q-314 0 -314 315q0 51 6.5 152t6.5 152q0 33 -3 42q-4 13 -20 17q-30 8 -30 34q0 35 49 35h200q49 0 49 -32q0 -22 -29 -34
q-22 -9 -29 -23q-5 -10 -7 -37q-11 -168 -11 -316q0 -228 181 -228q179 0 179 232q0 72 -6 168q-4 68 -9 166q0 16 -9 24q-16 9 -32 19q-20 11 -20 28q0 33 59 33h73zM735 611q-15 -3 -30 -3q-20 0 -36 8q1 -27 6 -112q8 9 19 22q33 38 41 85zM364 804v19q0 16 2 20.5
t15 11.5q46 25 46 70q0 48 -37 48q-29 0 -28 -29.5t-30 -29.5q-29 0 -29 24q0 35 34 64q26 23 60 23q58 0 92 -34q27 -28 27 -76q0 -35 -28 -60q-16 -15 -55 -32q-14 -6 -14 -28q0 -12 -2 -17q-4 -8 -23 -8q-25 0 -29 10q-1 4 -1 24z" />
    <glyph glyph-name="glyph329" unicode="&#x1eed;" 
d="M490 487q-4 10 -4 23q0 37 28 58t66 21q45 0 74 -29t29 -74q0 -69 -61 -134q-48 -50 -76 -55v-160q0 -33 2 -42q5 -22 25 -32q25 -12 25 -31q0 -32 -54 -32h-97q-36 0 -45 14q-7 11 -7 48q-67 -77 -170 -77q-97 0 -145 75q-19 29 -19 109v166q0 28 -2 38q-5 18 -21 30.5
t-16 25.5q0 22 54 39q62 19 105 19t43 -87v-222q0 -52 9 -74q15 -36 59 -36q45 0 73 35q18 22 18 78v154q0 28 -2 38q-5 18 -21 30.5t-16 25.5q0 22 53 38.5t93 19.5zM589 443q-15 -3 -30 -3q-8 0 -16 2q3 -18 3 -42v-44l1 2q34 38 42 85zM253 556v19q0 16 2 20.5t15 11.5
q46 25 46 70q0 48 -37 48q-29 0 -28 -29.5t-30 -29.5q-29 0 -29 24q0 35 34 64q26 23 60 23q58 0 92 -34q27 -28 27 -76q0 -35 -28 -60q-16 -15 -55 -32q-14 -6 -14 -28q0 -12 -2 -17q-4 -8 -23 -8q-25 0 -29 10q-1 4 -1 24z" />
    <glyph glyph-name="glyph330" unicode="&#x1eee;" horiz-adv-x="760" 
d="M656 732q28 25 70 25q45 0 74 -29t29 -74q0 -69 -61 -134q-53 -56 -82 -56q-4 0 -8 1q7 -105 7 -171q0 -161 -76.5 -235t-236.5 -74q-314 0 -314 315q0 51 6.5 152t6.5 152q0 33 -3 42q-4 13 -20 17q-30 8 -30 34q0 35 49 35h200q49 0 49 -32q0 -22 -29 -34
q-22 -9 -29 -23q-5 -10 -7 -37q-11 -168 -11 -316q0 -228 181 -228q179 0 179 232q0 72 -6 168q-4 68 -9 166q0 16 -9 24q-16 9 -32 19q-20 11 -20 28q0 33 59 33h73zM735 611q-15 -3 -30 -3q-20 0 -36 8q1 -27 6 -112q8 9 19 22q33 38 41 85zM218 899q38 45 106 45
q34 0 89.5 -27t74.5 -27q21 0 44.5 25t30.5 25q19 0 19 -21q0 -54 -40.5 -88.5t-95.5 -34.5q-34 0 -89.5 27t-74.5 27q-21 0 -44.5 -25t-30.5 -25q-19 0 -19 31q0 33 30 68z" />
    <glyph glyph-name="glyph331" unicode="&#x1eef;" 
d="M490 487q-4 10 -4 23q0 37 28 58t66 21q45 0 74 -29t29 -74q0 -69 -61 -134q-48 -50 -76 -55v-160q0 -33 2 -42q5 -22 25 -32q25 -12 25 -31q0 -32 -54 -32h-97q-36 0 -45 14q-7 11 -7 48q-67 -77 -170 -77q-97 0 -145 75q-19 29 -19 109v166q0 28 -2 38q-5 18 -21 30.5
t-16 25.5q0 22 54 39q62 19 105 19t43 -87v-222q0 -52 9 -74q15 -36 59 -36q45 0 73 35q18 22 18 78v154q0 28 -2 38q-5 18 -21 30.5t-16 25.5q0 22 53 38.5t93 19.5zM589 443q-15 -3 -30 -3q-8 0 -16 2q3 -18 3 -42v-44l1 2q34 38 42 85zM143 659q38 45 106 45
q34 0 89.5 -27t74.5 -27q21 0 44.5 25t30.5 25q19 0 19 -21q0 -54 -40.5 -88.5t-95.5 -34.5q-34 0 -89.5 27t-74.5 27q-21 0 -44.5 -25t-30.5 -25q-19 0 -19 31q0 33 30 68z" />
    <glyph glyph-name="glyph332" unicode="&#x1ef0;" horiz-adv-x="760" 
d="M656 732q28 25 70 25q45 0 74 -29t29 -74q0 -69 -61 -134q-53 -56 -82 -56q-4 0 -8 1q7 -105 7 -171q0 -161 -76.5 -235t-236.5 -74q-314 0 -314 315q0 51 6.5 152t6.5 152q0 33 -3 42q-4 13 -20 17q-30 8 -30 34q0 35 49 35h200q49 0 49 -32q0 -22 -29 -34
q-22 -9 -29 -23q-5 -10 -7 -37q-11 -168 -11 -316q0 -228 181 -228q179 0 179 232q0 72 -6 168q-4 68 -9 166q0 16 -9 24q-16 9 -32 19q-20 11 -20 28q0 33 59 33h73zM735 611q-15 -3 -30 -3q-20 0 -36 8q1 -27 6 -112q8 9 19 22q33 38 41 85zM374 -232q-37 0 -67 22t-30 58
q0 37 29 59t67 22q37 0 65.5 -23t28.5 -59q0 -35 -28.5 -57t-64.5 -22z" />
    <glyph glyph-name="glyph333" unicode="&#x1ef1;" 
d="M490 487q-4 10 -4 23q0 37 28 58t66 21q45 0 74 -29t29 -74q0 -69 -61 -134q-48 -50 -76 -55v-160q0 -33 2 -42q5 -22 25 -32q25 -12 25 -31q0 -32 -54 -32h-97q-36 0 -45 14q-7 11 -7 48q-67 -77 -170 -77q-97 0 -145 75q-19 29 -19 109v166q0 28 -2 38q-5 18 -21 30.5
t-16 25.5q0 22 54 39q62 19 105 19t43 -87v-222q0 -52 9 -74q15 -36 59 -36q45 0 73 35q18 22 18 78v154q0 28 -2 38q-5 18 -21 30.5t-16 25.5q0 22 53 38.5t93 19.5zM589 443q-15 -3 -30 -3q-8 0 -16 2q3 -18 3 -42v-44l1 2q34 38 42 85zM307 -232q-37 0 -67 22t-30 58
q0 37 29 59t67 22q37 0 65.5 -23t28.5 -59q0 -35 -28.5 -57t-64.5 -22z" />
    <glyph glyph-name="glyph334" unicode="&#x1ef2;" horiz-adv-x="740" 
d="M281 127v165q-118 157 -208 319q-13 23 -20.5 31t-31.5 20q-29 15 -29 37t22 29q13 4 54 4h184q53 0 53 -36q0 -15 -22.5 -28t-22.5 -22q0 -46 163 -273q165 206 165 265q0 13 -24 29t-24 31q0 34 53 34h87q32 0 42 -3q22 -6 22 -30q0 -21 -19 -31q-25 -13 -43 -45
q-103 -182 -219 -323v-173q0 -26 3 -36q4 -15 18 -22q32 -17 32 -35q0 -34 -49 -34h-190q-49 0 -49 34q0 20 25 31q20 9 25 25q3 10 3 37zM380 921l110 -62q40 -23 40 -33q0 -12 -7 -27q-7 -18 -18 -18q-12 0 -70 15l-135 35q-45 12 -45 35q0 21 16 50.5t35 29.5
q30 0 74 -25z" />
    <glyph glyph-name="glyph335" unicode="&#x1ef3;" horiz-adv-x="540" 
d="M46 481h130q33 0 44 -4q19 -7 19 -29q0 -7 -17 -27t-17 -44q0 -90 32 -181q40 -113 80 -113t70 123q24 99 24 159q0 25 -3 34q-5 13 -23 24q-21 12 -21 30q0 20 20 26q9 2 37 2h57q31 0 39 -2q24 -4 24 -24q0 -14 -14 -30t-15 -24q-31 -234 -121 -400
q-106 -196 -252 -196q-32 0 -58 15q-31 17 -31 47q0 24 17.5 38.5t41.5 14.5q16 0 43 -11t34 -11q49 0 117 116q-52 -13 -63 -13q-161 0 -209 388q-3 22 -18.5 37.5t-15.5 26.5q0 28 49 28zM270 675l110 -62q40 -23 40 -33q0 -12 -7 -27q-7 -18 -18 -18q-12 0 -70 15
l-135 35q-45 12 -45 35q0 21 16 50.5t35 29.5q30 0 74 -25z" />
    <glyph glyph-name="glyph336" unicode="&#x1ef4;" horiz-adv-x="740" 
d="M281 127v165q-118 157 -208 319q-13 23 -20.5 31t-31.5 20q-29 15 -29 37t22 29q13 4 54 4h184q53 0 53 -36q0 -15 -22.5 -28t-22.5 -22q0 -46 163 -273q165 206 165 265q0 13 -24 29t-24 31q0 34 53 34h87q32 0 42 -3q22 -6 22 -30q0 -21 -19 -31q-25 -13 -43 -45
q-103 -182 -219 -323v-173q0 -26 3 -36q4 -15 18 -22q32 -17 32 -35q0 -34 -49 -34h-190q-49 0 -49 34q0 20 25 31q20 9 25 25q3 10 3 37zM374 -232q-37 0 -67 22t-30 58q0 37 29 59t67 22q37 0 65.5 -23t28.5 -59q0 -35 -28.5 -57t-64.5 -22z" />
    <glyph glyph-name="glyph337" unicode="&#x1ef5;" horiz-adv-x="540" 
d="M46 481h130q33 0 44 -4q19 -7 19 -29q0 -7 -17 -27t-17 -44q0 -90 32 -181q40 -113 80 -113t70 123q24 99 24 159q0 25 -3 34q-5 13 -23 24q-21 12 -21 30q0 20 20 26q9 2 37 2h57q31 0 39 -2q24 -4 24 -24q0 -14 -14 -30t-15 -24q-31 -234 -121 -400
q-106 -196 -252 -196q-32 0 -58 15q-31 17 -31 47q0 24 17.5 38.5t41.5 14.5q16 0 43 -11t34 -11q49 0 117 116q-52 -13 -63 -13q-161 0 -209 388q-3 22 -18.5 37.5t-15.5 26.5q0 28 49 28zM430 -232q-37 0 -67 22t-30 58q0 37 29 59t67 22q37 0 65.5 -23t28.5 -59
q0 -35 -28.5 -57t-64.5 -22z" />
    <glyph glyph-name="glyph338" unicode="&#x1ef6;" horiz-adv-x="740" 
d="M281 127v165q-118 157 -208 319q-13 23 -20.5 31t-31.5 20q-29 15 -29 37t22 29q13 4 54 4h184q53 0 53 -36q0 -15 -22.5 -28t-22.5 -22q0 -46 163 -273q165 206 165 265q0 13 -24 29t-24 31q0 34 53 34h87q32 0 42 -3q22 -6 22 -30q0 -21 -19 -31q-25 -13 -43 -45
q-103 -182 -219 -323v-173q0 -26 3 -36q4 -15 18 -22q32 -17 32 -35q0 -34 -49 -34h-190q-49 0 -49 34q0 20 25 31q20 9 25 25q3 10 3 37zM360 804v19q0 16 2 20.5t15 11.5q46 25 46 70q0 48 -37 48q-29 0 -28 -29.5t-30 -29.5q-29 0 -29 24q0 35 34 64q26 23 60 23
q58 0 92 -34q27 -28 27 -76q0 -35 -28 -60q-16 -15 -55 -32q-14 -6 -14 -28q0 -12 -2 -17q-4 -8 -23 -8q-25 0 -29 10q-1 4 -1 24z" />
    <glyph glyph-name="glyph339" unicode="&#x1ef7;" horiz-adv-x="540" 
d="M46 481h130q33 0 44 -4q19 -7 19 -29q0 -7 -17 -27t-17 -44q0 -90 32 -181q40 -113 80 -113t70 123q24 99 24 159q0 25 -3 34q-5 13 -23 24q-21 12 -21 30q0 20 20 26q9 2 37 2h57q31 0 39 -2q24 -4 24 -24q0 -14 -14 -30t-15 -24q-31 -234 -121 -400
q-106 -196 -252 -196q-32 0 -58 15q-31 17 -31 47q0 24 17.5 38.5t41.5 14.5q16 0 43 -11t34 -11q49 0 117 116q-52 -13 -63 -13q-161 0 -209 388q-3 22 -18.5 37.5t-15.5 26.5q0 28 49 28zM252 556v19q0 16 2 20.5t15 11.5q46 25 46 70q0 48 -37 48q-29 0 -28 -29.5
t-30 -29.5q-29 0 -29 24q0 35 34 64q26 23 60 23q58 0 92 -34q27 -28 27 -76q0 -35 -28 -60q-16 -15 -55 -32q-14 -6 -14 -28q0 -12 -2 -17q-4 -8 -23 -8q-25 0 -29 10q-1 4 -1 24z" />
    <glyph glyph-name="glyph340" unicode="&#x1ef8;" horiz-adv-x="740" 
d="M281 127v165q-118 157 -208 319q-13 23 -20.5 31t-31.5 20q-29 15 -29 37t22 29q13 4 54 4h184q53 0 53 -36q0 -15 -22.5 -28t-22.5 -22q0 -46 163 -273q165 206 165 265q0 13 -24 29t-24 31q0 34 53 34h87q32 0 42 -3q22 -6 22 -30q0 -21 -19 -31q-25 -13 -43 -45
q-103 -182 -219 -323v-173q0 -26 3 -36q4 -15 18 -22q32 -17 32 -35q0 -34 -49 -34h-190q-49 0 -49 34q0 20 25 31q20 9 25 25q3 10 3 37zM218 899q38 45 106 45q34 0 89.5 -27t74.5 -27q21 0 44.5 25t30.5 25q19 0 19 -21q0 -54 -40.5 -88.5t-95.5 -34.5q-34 0 -89.5 27
t-74.5 27q-21 0 -44.5 -25t-30.5 -25q-19 0 -19 31q0 33 30 68z" />
    <glyph glyph-name="glyph341" unicode="&#x1ef9;" horiz-adv-x="540" 
d="M46 481h130q33 0 44 -4q19 -7 19 -29q0 -7 -17 -27t-17 -44q0 -90 32 -181q40 -113 80 -113t70 123q24 99 24 159q0 25 -3 34q-5 13 -23 24q-21 12 -21 30q0 20 20 26q9 2 37 2h57q31 0 39 -2q24 -4 24 -24q0 -14 -14 -30t-15 -24q-31 -234 -121 -400
q-106 -196 -252 -196q-32 0 -58 15q-31 17 -31 47q0 24 17.5 38.5t41.5 14.5q16 0 43 -11t34 -11q49 0 117 116q-52 -13 -63 -13q-161 0 -209 388q-3 22 -18.5 37.5t-15.5 26.5q0 28 49 28zM110 659q38 45 106 45q34 0 89.5 -27t74.5 -27q21 0 44.5 25t30.5 25q19 0 19 -21
q0 -54 -40.5 -88.5t-95.5 -34.5q-34 0 -89.5 27t-74.5 27q-21 0 -44.5 -25t-30.5 -25q-19 0 -19 31q0 33 30 68z" />
    <glyph glyph-name="ch377" unicode="-" horiz-adv-x="340" 
d="M245 226h-150q-38 0 -52 11q-18 13 -18 50q0 36 18 49q15 11 52 11h150q37 0 53.5 -12t16.5 -48q0 -37 -18 -50q-14 -11 -52 -11z" />
    <glyph glyph-name="ch377" unicode="&#x2010;" horiz-adv-x="340" 
d="M245 226h-150q-38 0 -52 11q-18 13 -18 50q0 36 18 49q15 11 52 11h150q37 0 53.5 -12t16.5 -48q0 -37 -18 -50q-14 -11 -52 -11z" />
    <glyph glyph-name="ch395" unicode="&#xad;" horiz-adv-x="660" 
d="M78 240v95h504v-95h-504z" />
    <glyph glyph-name="ch396" unicode="&#xb7;" horiz-adv-x="340" 
d="M172 207q-37 0 -67 22t-30 58q0 38 30 60q27 20 66 20q36 0 65 -23t29 -58t-28.5 -57t-64.5 -22z" />
  </font>
</defs>
</svg>
